<svg xmlns="http://www.w3.org/2000/svg" width="38" height="38"><path d="M19 38a19 19 0 0 1-7.4-36.507A19.01 19.01 0 0 1 36.507 11.6 19.01 19.01 0 0 1 26.4 36.507 18.88 18.88 0 0 1 19 38zm.5-31.157l-5.23.076a9.4 9.4 0 0 0-3.08.589 6.48 6.48 0 0 0-3.71 3.711c-.368.986-.568 2.027-.6 3.08l-.076 5.23.076 5.23c.022 1.053.222 2.094.6 3.08.66 1.704 2.006 3.05 3.7 3.7.986.368 2.028.567 3.08.59l5.23.076s3.882-.015 5.23-.076c1.052-.022 2.094-.22 3.08-.59a6.49 6.49 0 0 0 3.71-3.71c.368-.986.568-2.027.6-3.08l.076-5.23-.076-5.23c-.022-1.053-.222-2.094-.6-3.08a6.49 6.49 0 0 0-3.71-3.711 9.4 9.4 0 0 0-3.08-.589l-5.23-.076zm0 23.088c-3.4 0-3.8-.013-5.126-.074a7.03 7.03 0 0 1-2.356-.437 4.2 4.2 0 0 1-2.408-2.408 7 7 0 0 1-.436-2.355L9.1 19.53l.075-5.126c.01-.805.157-1.6.436-2.356a4.2 4.2 0 0 1 2.406-2.408 7.03 7.03 0 0 1 2.356-.44l5.126-.074 5.126.074a7.03 7.03 0 0 1 2.356.437 4.2 4.2 0 0 1 2.408 2.407c.28.755.427 1.55.436 2.356l.075 5.126-.075 5.126a7 7 0 0 1-.436 2.355 4.2 4.2 0 0 1-2.408 2.408 7.03 7.03 0 0 1-2.356.437l-5.125.078zm0-16.915c-3.598 0-6.515 2.917-6.515 6.515s2.917 6.515 6.515 6.515 6.515-2.917 6.515-6.515-2.918-6.512-6.515-6.516zm6.772-1.78c-.727 0-1.352.513-1.494 1.226s.24 1.426.91 1.704 1.445.043 1.85-.56.324-1.41-.2-1.923a1.51 1.51 0 0 0-1.077-.447zM19.5 23.76a4.23 4.23 0 0 1-2.99-7.219 4.23 4.23 0 0 1 7.219 2.99c-.003 2.334-1.895 4.226-4.23 4.23z" fill="#fff" opacity=".795"/></svg>