<svg xmlns="http://www.w3.org/2000/svg" width="300" height="70"><defs><linearGradient id="A" x1=".051" y1=".346" x2=".971" y2=".859"><stop offset="0" stop-color="#00abcc"/><stop offset=".485" stop-color="#57c5e8"/><stop offset="1" stop-color="#2087cd"/></linearGradient></defs><path fill="url(#A)" d="M0 0h300v70H0z"/><path d="M122.08 35.56c-.6 2.02-2 3.04-4.64 4.04a4.37 4.37 0 0 1 .96 1.16c.2.34.26.5.42.5a1.2 1.2 0 0 0 .48-.18 8.04 8.04 0 0 0 4.3-4.02 8.84 8.84 0 0 0 4.82 4.1 1.32 1.32 0 0 0 .44.12c.18 0 .26-.16.4-.56.192-.495.454-.96.78-1.38a8.2 8.2 0 0 1-5.36-3.78h2.08l2.72.04c.2 0 .22-.02.22-.22v-1.42c0-.2-.02-.22-.22-.22l-2.72.04h-2.42c.08-.68.1-1.44.12-2.28h1.86l2.64.04c.2 0 .22-.02.22-.22v-1.4c0-.22-.02-.24-.22-.24l-2.64.04h-.16L127.2 28c.086-.183.217-.34.38-.46a.4.4 0 0 0 .24-.36c0-.12-.1-.22-.26-.28a16.91 16.91 0 0 0-2.06-.58c-.07.385-.183.76-.34 1.12-.362.783-.77 1.545-1.22 2.28h-2.96l1.5-.58c.26-.1.3-.18.22-.38-.364-.764-.806-1.488-1.32-2.16-.14-.18-.16-.18-.42-.08l-1.34.54c-.22.08-.28.14-.14.32a9.8 9.8 0 0 1 1.34 2.34c-1.7 0-2.3-.04-2.42-.04-.2 0-.2.02-.2.24v1.4c0 .2 0 .22.2.22l2.64-.04h1.4c.03.76.015 1.52-.04 2.28h-1.74c-1.94 0-2.58-.04-2.7-.04-.2 0-.22.02-.22.22v1.42c0 .2.02.22.22.22l2.7-.04zm-5.48.32l.04-1.9c0-.2-.02-.22-.22-.22-.12 0-.44.04-1.5.04h-1.22c-1.08 0-1.36-.04-1.46-.04-.22 0-.24.02-.24.22v1.52c0 .22.02.24.24.24.1 0 .38-.04 1.46-.04h.94v4.44a12.85 12.85 0 0 1-1.68 1.28c-.38.23-.774.438-1.18.62.236.642.5 1.27.82 1.88a.38.38 0 0 0 .28.24c.126.001.242-.068.3-.18.112-.153.247-.288.4-.4a22.6 22.6 0 0 0 2.06-1.76 3.87 3.87 0 0 0 1.96 1.78c1.516.455 3.1.644 4.68.56l7-.18c.64-.04.64-.04.74-.68.064-.547.248-1.073.54-1.54-2.98.3-6.02.42-8.6.42a11.43 11.43 0 0 1-3.7-.4 3.07 3.07 0 0 1-1.66-1.66zm-4-8.18c-.22.14-.24.2-.1.36.936.936 1.76 1.976 2.46 3.1.06.1.1.14.18.14.06 0 .12-.04.24-.12l1.12-.9c.22-.16.22-.24.12-.4a17.41 17.41 0 0 0-2.5-2.94c-.16-.14-.22-.12-.42.02zm27.34 16.8c.2 0 .22-.02.22-.22v-.66h6.26v.6c0 .18.02.2.22.2h1.66c.2 0 .22-.02.22-.2l-.04-2.64v-1.56l.04-1.54c0-.18-.02-.2-.22-.2l-2.58.04h-4.78c-1.84 0-2.48-.04-2.62-.04-.2 0-.22.02-.22.2l.04 1.78v1.36l-.04 2.66c0 .2.02.22.22.22zm.22-4.48h6.26v1.9h-6.26zm-6.3 1.28l-.04 3.04c0 .2.02.22.2.22h1.66c.2 0 .22-.02.22-.22l-.04-3.04V30.66l.96-2.44a2.24 2.24 0 0 1 .4-.84.58.58 0 0 0 .22-.36c0-.12-.1-.22-.34-.3a15.73 15.73 0 0 0-1.84-.54 7.09 7.09 0 0 1-.34 1.44c-.727 2.35-1.902 4.537-3.46 6.44a5.99 5.99 0 0 1 .64 1.72c.06.22.12.34.22.34s.22-.08.36-.26a18.3 18.3 0 0 0 1.18-1.6zm13.26-9.58l2.74.04c.22 0 .24-.02.24-.24v-1.4c0-.22-.02-.24-.24-.24l-2.74.04h-7.2c-1.98 0-2.64-.04-2.76-.04-.2 0-.22.02-.22.24v1.4c0 .22.02.24.22.24l2.76-.04zm-1.58-2.9l2.46.04c.22 0 .24-.02.24-.22V27.3c0-.2-.02-.22-.24-.22l-2.46.04h-4.32c-1.78 0-2.38-.04-2.5-.04-.2 0-.22.02-.22.22v1.34c0 .2.02.22.22.22l2.5-.04zm-.16 5.64l2.46.04c.2 0 .22-.02.22-.2v-1.32c0-.2-.02-.22-.22-.22l-2.46.04h-4.14c-1.76 0-2.36-.04-2.48-.04-.2 0-.22.02-.22.22v1.32c0 .18.02.2.22.2l2.48-.04zm0 2.76l2.46.04c.2 0 .22-.02.22-.22v-1.3c0-.2-.02-.22-.22-.22l-2.46.04h-4.14c-1.76 0-2.36-.04-2.48-.04-.2 0-.22.02-.22.22v1.3c0 .2.02.22.22.22l2.48-.04zm15.56-7.32l-6.2.4a13.19 13.19 0 0 1-2.44.08c.116.685.284 1.36.5 2.02.06.2.14.28.34.28.18 0 .5-.18.94-.24 1.58-.22 4.4-.46 6.92-.6l.02 2.04a2.45 2.45 0 0 0-1.52-.4c-.806-.03-1.59.276-2.16.845s-.883 1.35-.86 2.155a2.77 2.77 0 0 0 2.78 3.06 2.31 2.31 0 0 0 1.88-.8 6.68 6.68 0 0 1-4.1 4.4c.554.166 1.07.437 1.52.8.165.158.374.263.6.3.286-.065.553-.195.78-.38a7.47 7.47 0 0 0 3.56-6.46 6.23 6.23 0 0 0-.3-1.98l-.02-3.72 6.1.04c.24.02.34-.04.34-.26v-1.52c-.02-.26-.06-.3-.3-.3l-6.14.1.04-1.28a2.09 2.09 0 0 1 .16-.58c.105-.132.167-.292.18-.46 0-.18-.22-.32-.56-.38a20.32 20.32 0 0 0-2.34-.28c.137.476.217.966.24 1.46l.04 1.66zm-1.28 5.14a1.2 1.2 0 0 1 1.32 1.28c.028.37-.105.735-.366 1s-.623.403-.994.38a1.24 1.24 0 0 1-1.28-1.36c-.008-.35.13-.69.38-.935s.6-.378.94-.365zm19.28-.48l4.32-4.28a3.23 3.23 0 0 1 .88-.64.53.53 0 0 0 .34-.48c-.007-.183-.086-.355-.22-.48a7.57 7.57 0 0 0-1.34-1.28c-.13-.106-.293-.162-.46-.16-.136.027-.265.082-.38.16-.355.14-.724.24-1.1.3l-4.54.68a9.64 9.64 0 0 1-1.86-.04c.147.745.382 1.47.7 2.16.052.2.233.34.44.34.137-.014.272-.048.4-.1.274-.1.555-.18.84-.24l3.86-.76c-.92 1.14-1.86 2.14-3.1 3.42a48.14 48.14 0 0 1-4.74 4.42c-.16.16-.22.3-.1.46a9 9 0 0 0 1.18 1.3.49.49 0 0 0 .3.18c.1 0 .2-.08.34-.22l1.74-1.7a8.14 8.14 0 0 1 5.12-2.12 2.92 2.92 0 0 1 3.14 3.02c.084 1.358-.752 2.603-2.04 3.04a3.64 3.64 0 0 0-3.76-2.92c-1.45-.095-2.706.992-2.82 2.44 0 1.86 1.52 2.94 4.04 2.94 4.28 0 6.98-2.14 6.98-5.48a4.64 4.64 0 0 0-4.96-4.8 6.02 6.02 0 0 0-3.18.9zm1.74 7.48a4.38 4.38 0 0 1-.92.08c-1.2 0-1.74-.42-1.74-1.04 0-.42.38-.76.96-.76.84 0 1.44.62 1.7 1.72z" fill="#fff"/></svg>