<svg xmlns="http://www.w3.org/2000/svg" width="173" height="42" viewBox="0 0 172.679 41.068"><defs><linearGradient id="A" x1=".006" y1=".083" x2=".662" y2=".647"><stop offset=".055" stop-color="#7fd4c3"/><stop offset=".352" stop-color="#4da2c3"/><stop offset=".638" stop-color="#2579c4"/><stop offset=".864" stop-color="#0c60c4"/><stop offset="1" stop-color="#0357c5"/></linearGradient></defs><path d="M45.734 18.613l-2.97 8.145q-.135.36-.247.63c-.076.186-.115.384-.113.585a2.15 2.15 0 0 0 .472 1.395c.318.392.708.72 1.148.967a7.15 7.15 0 0 0 1.395.608c.398.13.804.234 1.215.315v.54q-1.35-.1-2.7-.135-1.35-.045-2.745-.045-1.35 0-2.633.045-1.283.045-2.722.135v-.54a6.43 6.43 0 0 0 2.317-.967 6.36 6.36 0 0 0 1.553-1.553 11.43 11.43 0 0 0 1.1-1.98q.473-1.08.923-2.25l7.787-19.125q.135-.315.248-.585a1.3 1.3 0 0 0 .112-.495c-.018-.232-.07-.46-.158-.675a4.04 4.04 0 0 0-.382-.81 10.22 10.22 0 0 0 2.025-.585q.855-.36 1.9-.765l9.36 25.74c.345 1.054.95 2.006 1.755 2.768.953.757 2.115 1.205 3.33 1.282v.54q-1.8-.1-3.533-.135-1.733-.045-3.622-.045h-2.115q-.9 0-1.62.023-.72.023-1.373.067-.652.045-1.417.1v-.54c1.112-.104 2.192-.433 3.173-.967.774-.367 1.27-1.143 1.282-2-.002-.248-.055-.494-.157-.72a5.39 5.39 0 0 1-.247-.675l-2.925-8.28zm4.86-12.78l-4.4 11.43h8.46zm55.53 28.305q-1.26 1.62-2.317 2.925c-.658.825-1.422 1.558-2.273 2.182a9.32 9.32 0 0 1-2.768 1.35c-1.223.34-2.488.5-3.757.472-1.076.005-2.146-.154-3.173-.472-1.013-.318-1.998-.717-2.947-1.193q-1.44-.72-2.858-1.575-1.418-.855-2.857-1.574a19.14 19.14 0 0 0-2.993-1.193 10.99 10.99 0 0 0-3.217-.472 6.4 6.4 0 0 0-2.115.36 14.59 14.59 0 0 0-1.98.855l-.63-.72c.942-.6 1.964-1.088 3.037-1.418a11.97 11.97 0 0 1 3.353-.428c1.685.005 3.36.256 4.972.743q2.5.743 4.882 1.62 2.382.877 4.613 1.6a13.58 13.58 0 0 0 4.162.72c.864.01 1.727-.09 2.566-.295.73-.186 1.428-.482 2.07-.877.645-.402 1.24-.878 1.777-1.418a22.13 22.13 0 0 0 1.688-1.912zm-36.4-17.145c-.038-2.246.415-4.473 1.327-6.525a14.66 14.66 0 0 1 3.573-4.882 15.54 15.54 0 0 1 5.287-3.06 19.5 19.5 0 0 1 6.458-1.058 19.5 19.5 0 0 1 6.455 1.058 15.54 15.54 0 0 1 5.287 3.06 14.66 14.66 0 0 1 3.578 4.882c.915 2.052 1.37 4.28 1.335 6.525.037 2.246-.418 4.473-1.332 6.525a14.66 14.66 0 0 1-3.578 4.882 15.54 15.54 0 0 1-5.29 3.061 19.5 19.5 0 0 1-6.455 1.057 19.5 19.5 0 0 1-6.458-1.057 15.54 15.54 0 0 1-5.287-3.061 14.66 14.66 0 0 1-3.577-4.882c-.91-2.053-1.363-4.28-1.323-6.525zm4.77 0a17.1 17.1 0 0 0 .81 5.265 13.76 13.76 0 0 0 2.34 4.433 11.56 11.56 0 0 0 3.735 3.06 10.66 10.66 0 0 0 4.99 1.147 10.66 10.66 0 0 0 5-1.147 11.56 11.56 0 0 0 3.735-3.06 13.76 13.76 0 0 0 2.34-4.433 17.1 17.1 0 0 0 .81-5.265 17.1 17.1 0 0 0-.81-5.265 13.76 13.76 0 0 0-2.34-4.433 11.56 11.56 0 0 0-3.735-3.06 10.66 10.66 0 0 0-5-1.148 10.66 10.66 0 0 0-4.995 1.148 11.56 11.56 0 0 0-3.735 3.06 13.76 13.76 0 0 0-2.34 4.433 17.1 17.1 0 0 0-.81 5.265zm36.36-10.26a6.09 6.09 0 0 0-.248-1.958 2.44 2.44 0 0 0-.743-1.1 3.06 3.06 0 0 0-1.215-.585q-.72-.18-1.665-.36V2.2q1.9.1 3.713.135 1.823.045 3.713.045 1.35 0 2.677-.045 1.327-.045 2.677-.135v.54a10.9 10.9 0 0 0-2.385.45c-.563.17-1.074.48-1.485.9a3.34 3.34 0 0 0-.765 1.507 9.76 9.76 0 0 0-.225 2.272v14.67a8.27 8.27 0 0 0 .7 3.577c.435.938 1.09 1.756 1.912 2.385a8.03 8.03 0 0 0 2.809 1.35 13.1 13.1 0 0 0 3.4.428 11.28 11.28 0 0 0 4.72-.85 8.62 8.62 0 0 0 2.925-2.1c.686-.763 1.193-1.67 1.485-2.652.247-.81.382-1.652.4-2.5v-12.6c.01-1.015-.042-2.03-.157-3.037a5.2 5.2 0 0 0-.63-2.025c-.312-.522-.775-.938-1.327-1.192-.7-.306-1.445-.503-2.205-.585v-.54q1.4.1 2.768.135 1.368.045 2.768.045 1.17 0 2.295-.045 1.125-.045 2.295-.135v.54c-.585.08-1.163.2-1.732.36-.51.14-.97.42-1.327.8a3.95 3.95 0 0 0-.833 1.688c-.22.98-.32 1.986-.292 2.992v13.456a10.41 10.41 0 0 1-.967 4.658c-.62 1.273-1.52 2.388-2.632 3.262-1.158.894-2.48 1.55-3.89 1.935a17.37 17.37 0 0 1-4.748.63 15.9 15.9 0 0 1-4.41-.607c-1.355-.378-2.63-1.004-3.757-1.845-1.093-.822-1.99-1.875-2.632-3.083a8.9 8.9 0 0 1-.99-4.275zm39.87 11.88l-2.97 8.145q-.135.36-.247.63c-.076.186-.115.384-.113.585a2.15 2.15 0 0 0 .473 1.395c.318.392.707.72 1.147.967a7.15 7.15 0 0 0 1.4.608c.398.13.804.234 1.215.315v.54q-1.35-.1-2.7-.135-1.35-.045-2.755-.045-1.35 0-2.632.045-1.282.045-2.718.135v-.54a6.43 6.43 0 0 0 2.317-.967 6.36 6.36 0 0 0 1.552-1.553 11.43 11.43 0 0 0 1.1-1.98q.473-1.08.923-2.25L154.5 5.383q.135-.315.248-.585a1.3 1.3 0 0 0 .112-.495c-.018-.232-.07-.46-.158-.675a4.04 4.04 0 0 0-.382-.81 10.22 10.22 0 0 0 2.025-.585q.855-.36 1.9-.765l9.36 25.74c.346 1.054.95 2.005 1.755 2.767.953.757 2.115 1.205 3.33 1.282v.54q-1.8-.1-3.533-.135-1.733-.045-3.624-.045h-2.115q-.9 0-1.62.023-.72.023-1.372.067-.653.045-1.418.1v-.54c1.112-.104 2.192-.433 3.173-.967.774-.367 1.272-1.143 1.283-2-.002-.248-.056-.494-.158-.72a5.39 5.39 0 0 1-.247-.675l-2.925-8.28zm4.86-12.78l-4.4 11.43h8.46z" fill="#032559"/><path d="M30.286 22.056c-.927-1.55-1.705-3.18-2.326-4.876-.54-2.066.138-5.412 3.71-5.172 3.334.224 3.987 5.353 4.443 4.84.586.02.157-2.1-.13-3.176C34.244 7.195 26.302 0 18.084 0A18.09 18.09 0 0 0-.005 18.089c.001 4.798 1.908 9.398 5.3 12.8s7.995 5.296 12.793 5.294c4.9 0 7.927-1.33 9.95-2.99 3.236-2.74 4.166-7.345 2.247-11.126z" fill="url(#A)"/><path d="M18.645 10.59a5.41 5.41 0 0 0-2.383 1.484c-1.942 2.936-6.39 4.83-9.768.74-4.35-5.27 3.34-10.17 6.115-10.9a9.4 9.4 0 0 1 8.2 1.795c2.445 2.125 1.665 5.9-.714 6.472-.685.17-1.45.408-1.45.408z" fill="#dff5fc" opacity=".96"/></svg>