<svg xmlns="http://www.w3.org/2000/svg" width="252" height="36" viewBox="0 0 251.53 35.412"><defs><clipPath id="A"><path fill="none" d="M0 0h251.53v35.412H0z"/></clipPath></defs><g clip-path="url(#A)" fill="#032559"><path d="M31.73 17.408h-6.8l-.46 1.134a11.5 11.5 0 0 0-1.028 3.217c-.03.472.175.927.547 1.22a2.26 2.26 0 0 0 1.4.415V24h-5.313v-.606c.67-.063 1.294-.36 1.767-.837a10.25 10.25 0 0 0 1.4-2.749q.066-.2.633-1.53L29.08 5.873h.514l5.972 14.2.817 1.872a2.49 2.49 0 0 0 .745 1 2.72 2.72 0 0 0 1.4.455v.6H31.5v-.606a5.24 5.24 0 0 0 1.752-.194.74.74 0 0 0 .455-.758c-.134-.597-.338-1.176-.6-1.725zm-.224-.593l-3.164-7.62-3.15 7.62zm18.325 7.45a12.62 12.62 0 0 1-1.333.066 9.84 9.84 0 0 1-7.033-2.564 8.93 8.93 0 0 1-2.722-6.823A8.54 8.54 0 0 1 41.505 8.3a9.89 9.89 0 0 1 6.915-2.511 11.56 11.56 0 0 1 4.944 1.114 7.8 7.8 0 0 1 3.612 3.3 9.69 9.69 0 0 1 1.222 4.832c.035 1.94-.523 3.844-1.6 5.458a8.41 8.41 0 0 1-4.631 3.322L48.025 26q.4-.04.712-.04a20.96 20.96 0 0 1 6.736 1.32 15.15 15.15 0 0 0 4.64 1.015q2.373 0 2.82-1.793h.554a4.52 4.52 0 0 1-1.516 2.953 4.87 4.87 0 0 1-3.335 1.134 6.6 6.6 0 0 1-2.446-.435 18.26 18.26 0 0 1-2.867-1.556 10.53 10.53 0 0 0-5.273-2.017 3.77 3.77 0 0 0-2.452 1c-.3.314-.677.54-1.094.66q-.475 0-.475-.435 0-.33.567-.68.567-.35 2.135-1.116.33-.158.66-.343zm-8.068-9.23q0 4.3 1.72 6.473a6.2 6.2 0 0 0 5.161 2.162c1.844.077 3.614-.725 4.772-2.162q1.753-2.162 1.753-6.447a10.23 10.23 0 0 0-1.727-6.387c-1.2-1.5-3.08-2.337-5-2.22-1.902-.112-3.743.695-4.95 2.17q-1.72 2.168-1.72 6.413zm31.074-8.912h5.972v.606a3.24 3.24 0 0 0-1.773.534c-.352.246-.606.608-.72 1.022a11.74 11.74 0 0 0-.132 2.2v5.946a23.38 23.38 0 0 1-.178 3.388A4.7 4.7 0 0 1 74.978 22a5.78 5.78 0 0 1-2.392 1.7 9.32 9.32 0 0 1-3.56.633 9.12 9.12 0 0 1-4.041-.811 5.16 5.16 0 0 1-2.36-2.1 7.18 7.18 0 0 1-.705-3.448l.013-1.833v-5.563c.028-.92-.014-1.84-.125-2.755-.043-.35-.235-.662-.527-.857a4.11 4.11 0 0 0-1.76-.237h-.4v-.606h8.16v.606h-.356c-.584-.044-1.172.03-1.727.218a1.15 1.15 0 0 0-.547.811c-.125.935-.17 1.878-.138 2.82v5.63a21.9 21.9 0 0 0 .27 4.153 3.64 3.64 0 0 0 1.523 2.14 5.53 5.53 0 0 0 3.335.916c1.024.014 2.038-.195 2.973-.613a4.85 4.85 0 0 0 1.992-1.525 4.35 4.35 0 0 0 .8-1.885 22.86 22.86 0 0 0 .145-3.052v-6.1a9 9 0 0 0-.17-2.123 1.64 1.64 0 0 0-.738-.962 3.97 3.97 0 0 0-1.793-.435zM89.3 17.408h-6.8l-.46 1.134a11.5 11.5 0 0 0-1.028 3.217c-.03.472.175.927.547 1.22a2.26 2.26 0 0 0 1.4.415V24H77.65v-.606c.67-.063 1.294-.36 1.767-.837a10.25 10.25 0 0 0 1.4-2.749q.066-.2.633-1.53l5.194-12.406h.514l5.972 14.2.817 1.872a2.49 2.49 0 0 0 .745 1 2.72 2.72 0 0 0 1.4.455v.6h-7.027v-.606a5.24 5.24 0 0 0 1.749-.194.74.74 0 0 0 .455-.758 7.65 7.65 0 0 0-.606-1.727zm-.224-.593L85.9 9.195l-3.15 7.62zM109.4 23.92a16.11 16.11 0 0 0 5.265-1.674c3.4-1.8 5.373-4.806 5.373-8.18.098-2.4-.848-4.706-2.592-6.345a10.26 10.26 0 0 0-6.966-2.484 13.09 13.09 0 0 0-9.288 3.78 8.44 8.44 0 0 0-2.43 5.346 5.2 5.2 0 0 0 .62 2.457 16.75 16.75 0 0 1 1.188 2.538 5.3 5.3 0 0 0 .756 1.728c.294.354.728.562 1.188.567 1 0 2.322-1.323 4.023-4.023 2.052-3.294 3.564-7.236 3.564-9.342-.01-.822-.305-1.614-.837-2.24.313-.042.63-.06.945-.054a8.91 8.91 0 0 1 4.67 1.242 6.7 6.7 0 0 1 3.047 5.967 9.6 9.6 0 0 1-2.4 6.507 12.28 12.28 0 0 1-6.321 3.753zm-.7-17.766a3.02 3.02 0 0 1 .378 1.35c0 1.674-1.43 5.157-3.43 8.343-1.33 2.106-2.625 3.564-3.22 3.564-.3 0-.648-.3-1.026-.783a6.32 6.32 0 0 1-1.08-3.564c0-4.163 3.676-8.073 8.37-8.9zm30.747 11.016h2.538v1c.027.3.135.35.62.35 1.134 0 1.4-.08 1.4-.486-.077-1.972-.106-5.914-.106-10.774v-3c.73-.432.864-.54.864-.73 0-.108-.08-.243-.324-.46-.648-.54-.864-.73-1.512-1.215A10.38 10.38 0 0 0 141.74 3.1h-10.642c-.706-.552-1.466-1.03-2.268-1.43.135 1.593.162 3 .162 6.94 0 3.618-.054 5.832-.2 9.558 0 .35.08.405.648.405 1.215 0 1.43-.08 1.43-.54v-.864h2.16a8.78 8.78 0 0 1-4.509 6.7c-1.393.826-2.916 1.4-4.505 1.726l.108.486c1.462-.216 2.08-.35 2.9-.54 2.104-.468 4.027-1.537 5.535-3.078a9.52 9.52 0 0 0 2.4-5.292h2.592v3.97c0 .135 0 .62-.027 1.27v1.16c0 1.43.594 1.8 2.7 1.8l2.5.027h.462a28.62 28.62 0 0 0 4.347-.216c.648-.135 1.053-.488 1.053-.888 0-.378-.135-.513-.62-.675-.324-.108-.405-.27-.405-.648v-.28l.2-4.4-.35-.054-1.3 4.887c-.216.54-.567.7-1.566.7h-.2c-.3 0-.837 0-1.566.027h-.378a9.28 9.28 0 0 1-2.862-.189c-.108-.08-.108-.135-.108-.648zm2.538-9.67h-11.097V3.72h11.1zm0 .62v3.78h-11.097V8.12zm0 4.4v4.023h-11.097V12.52zM157.67 3.23c1.107.2 1.593.432 1.944 1 .216.432.27.8.324 3.1.108 3.78.3 4.725.972 5.292.333.276.756.42 1.188.405h.108a18.72 18.72 0 0 0-3.294 2.17c-1.782 1.512-2.646 2.97-2.646 4.536.02 1.83 1.204 3.447 2.943 4.02a13.8 13.8 0 0 0 4.589.621 41.86 41.86 0 0 0 5.185-.351c.864-.2 1.16-.405 1.16-.918-.102-.736-.716-1.293-1.458-1.323a2.6 2.6 0 0 0-.54.081 31.65 31.65 0 0 1-6.264.81c-3 0-4.536-1-4.536-2.943 0-1.27.648-2.322 2.106-3.456a18.39 18.39 0 0 1 6.75-3.024 17.07 17.07 0 0 0 1.809-.567.85.85 0 0 0 .567-.8c-.1-.65-.645-1.132-1.3-1.134a2.35 2.35 0 0 0-1.107.324c-2.457 1.134-3.05 1.35-3.618 1.35-.837 0-1.053-.4-1.053-2a20.83 20.83 0 0 1 .594-5.454c.2-.486.216-.513.216-.7V4.2c0-.405-.216-.648-.756-.864a8.74 8.74 0 0 0-2.727-.513 1.5 1.5 0 0 0-1.157.405zm10.476 1.3c.813.857 1.503 1.822 2.052 2.867.864 1.755.864 1.755 1.215 1.755.46 0 .837-.486.837-1.134s-.378-1.27-1.35-2.16a13.77 13.77 0 0 0-2.402-1.679zm2.835-1.566a13.83 13.83 0 0 1 2.97 3.861c.216.378.378.513.62.513.4 0 .675-.46.675-1.107 0-.756-.35-1.3-1.4-2.08a12.2 12.2 0 0 0-2.565-1.539zM184.182 5a6.73 6.73 0 0 0 1.89 1.566 7.37 7.37 0 0 0 3.078.729 28.1 28.1 0 0 0 2.025-.08c-.432.27-.432.27-2.268 1.27-.7.378-1.134.648-1.97 1.134l.2.4c.513-.2.513-.216 1.053-.432l2.214-.918c1.27-.564 2.6-1.007 3.942-1.323 1.8-.405 1.97-.486 1.97-.945-.188-.763-.838-1.324-1.62-1.4a2.74 2.74 0 0 0-.486.108 20.64 20.64 0 0 1-5.616.8 6.33 6.33 0 0 1-4.131-1.188zm-1.023 10.287a7.2 7.2 0 0 0-.432 2.268 5.18 5.18 0 0 0 2.241 4.266c1.35.918 3.267 1.3 6.3 1.3a31 31 0 0 0 6.291-.54c.567-.135.864-.432.864-.837a1.29 1.29 0 0 0-.594-.945 3.23 3.23 0 0 0-1.485-.54 1.03 1.03 0 0 0-.459.108 18.18 18.18 0 0 1-5.967.972c-4.347 0-6.372-1.512-6.372-4.725 0-.378.027-.62.08-1.215zm32.292 9.963a16.53 16.53 0 0 0 7.02-1.728c2.565-1.377 4-3.537 4-5.967 0-2.862-2.457-4.86-5.994-4.86-2.4 0-4.725.8-7.83 2.754h-.058c1.917-2.16 4.266-4.644 7.02-7.48.614-.713 1.323-1.34 2.106-1.862.378-.243.46-.35.46-.594-.098-.428-.313-.82-.62-1.134-.567-.7-1.053-1.08-1.377-1.08-.243 0-.324.027-.8.35a8.03 8.03 0 0 1-2.484.8 19.07 19.07 0 0 1-3.59.675c-.918 0-1.485-.513-2.24-2.052a1.25 1.25 0 0 0-.19.62c0 1.35 1.27 3.32 2.133 3.32a3.66 3.66 0 0 0 1.215-.378c1.242-.54 3.348-1.27 4.78-1.7.324-.108.567-.162.675-.2.014-.015.033-.025.054-.027.05.003.092.035.108.08a1.5 1.5 0 0 1-.324.621 84.9 84.9 0 0 1-5.427 6.642c-1.46 1.805-3.088 3.468-4.86 4.968-.7.54-.837.7-.837 1.188 0 .837.486 1.728.972 1.728.3 0 .486-.162.945-.73 2.565-3.267 6.858-5.67 10.07-5.67 2.43 0 4 1.43 4 3.672a6.23 6.23 0 0 1-2.515 4.885c-1.512 1.27-3.456 2.08-6.507 2.754zM13.53 35.412L3.25 4.156-.002 8l12.787 27.157zm224.468 0l10.28-31.256 3.25 3.85-12.787 27.157z"/></g></svg>