<svg xmlns="http://www.w3.org/2000/svg" xmlns:xlink="http://www.w3.org/1999/xlink" width="89" height="103" viewBox="0 0 88.009 102.885"><style><![CDATA[.B{fill:#fff}.C{fill:#6c4f32}]]></style><defs><clipPath id="A"><path fill="none" d="M0 0h88.01v102.885H0z"/></clipPath><path id="B" d="M69.05 14.507l.338.105a1.42 1.42 0 0 0 1.239-.2c.34-.237.55-.618.572-1.032l-.02-.168c-.212-1.996-.586-3.97-1.118-5.906-.742-2.142-1.184-3.08-2.006-3.94s-4.444-1.62-6.493 2.584a15.83 15.83 0 0 1-1.6 2.715l-.75 1.027c-.293.335-.395.796-.27 1.223.13.42.468.744.893.86q4.644 1.317 9.216 2.732z"/><path id="C" d="M53.875 18.677q4.146 3.987 8.2 8.04 1.14 1.142 2.274 2.285a1.38 1.38 0 0 0 1.09.4 1.4 1.4 0 0 0 1.022-.573c.393-.46.75-.95 1.067-1.464 1.456-2.276 2.544-4.767 3.225-7.38a13.93 13.93 0 0 0 .333-1.769c.127-.67-.272-1.328-.925-1.525q-.882-.277-1.77-.55-4.844-1.492-9.764-2.877-.77-.216-1.542-.43a1.5 1.5 0 0 0-1.327.275q-1.487 1.184-2.963 2.377a1.41 1.41 0 0 0-.531 1.007c-.024.384.122.76.4 1.025q.608.58 1.2 1.16z"/><path id="D" d="M18.04 29.043a36.8 36.8 0 0 0 3.414 4.945l.11.132c.3.275.73.393 1.137.318.434-.076.807-.35 1-.74l.163-.314q2.208-4.246 4.53-8.474c.217-.383.223-.85.016-1.24a1.31 1.31 0 0 0-1.061-.666c-.39.002-.78-.052-1.157-.16a23.81 23.81 0 0 1-3.154-.8c-4.43-1.5-6.446 1.62-6.4 2.8.137 1.488.613 2.924 1.392 4.2z"/><path id="E" d="M24.647 35.71c-.32.603-.13 1.35.435 1.73a14 14 0 0 0 1.494 1.008c2.338 1.354 4.875 2.33 7.518 2.89a11.86 11.86 0 0 0 1.789.267c.404.06.815-.058 1.125-.325a1.38 1.38 0 0 0 .482-1.062q-.018-1.61-.03-3.22-.037-5.73.038-11.482l.024-1.673c.007-.384-.156-.752-.445-1.006-.3-.258-.696-.377-1.09-.33q-1.887.2-3.774.438a1.51 1.51 0 0 0-1.13.752l-.778 1.4q-2.477 4.473-4.816 8.968z"/><path id="F" d="M39.317 40.857a1.43 1.43 0 0 0 .439 1.017 1.45 1.45 0 0 0 1.039.4c.765.03 1.53.012 2.294-.05a33.2 33.2 0 0 0 18.753-7.836 18.98 18.98 0 0 0 1.648-1.6 1.43 1.43 0 0 0 .05-2.025l-.02-.02q-.845-.85-1.7-1.7-4.514-4.51-9.15-8.942-1.232-1.177-2.472-2.347c-.47-.432-1.157-.524-1.723-.232 0 0-2.213 1.268-3.88 1.967a43.35 43.35 0 0 1-4.126 1.377 1.52 1.52 0 0 0-1.042 1.388q-.04 1.7-.068 3.408-.1 6.41-.067 12.793.014 1.208.024 2.404z"/><path id="G" d="M15.888 54.418c1.058 2.22-.91 4.983-2.26 6.138-1.93 1.74-4.668 2.258-7.1 1.345a6.64 6.64 0 0 1-3.45-5.5c-.77-7.254 4.786-13.99 8.5-15.8 1.788-.882 3.455-1.165 4.635-.3a6.39 6.39 0 0 1 2.035 2.344 3.94 3.94 0 0 1-.045 3.043c-.42 1.107-.785 2.486-1.075 3.513-.078.283-.3.5-.735.27-.833-.444-1.475-1.46-1.1-3.22.4-1.863 1.453-3.925.592-4.678-1.05-.944-6.016 2.287-8.654 7.662-2.578 5.267-1.793 10.31.006 11.533 2.35 1.6 5.78-1.022 7.94-6.357.136-.393.514-.425.723.005z"/><path id="H" d="M34.687 60.394c-2.447.086-3.612-1.948-3.048-4.61.447-2.174 2.236-4.69 3.43-6.355-1.067.863-2.356 1.406-3.72 1.567-.654 1.54-2.05 2.636-3.7 2.906-.4 2.744-2.075 6.173-4.35 7.137a3.46 3.46 0 0 1-4.136-1.009c-1.523-1.748-1.288-4.54-.147-7.16 1.012-2.287 2.85-4.233 4.733-4.557a2.12 2.12 0 0 1 2.213.89c.845.915 1.78 1.024 1.823 3.347.014.158-.035.322-.02.512 1.06-.335 1.908-1.138 2.3-2.178-2.43-.807.306-5.254 1.568-5.4 1.1-.128.737 2.23.25 3.962 1.22-.346 2.343-.967 3.284-1.816.386-.32.663-.44.944-.147.627.615 1.548 2.033.693 3.19a18.82 18.82 0 0 0-3.094 5.817c-.45 1.792.038 2.992 1.056 2.966 1.273-.014 2.7-2.275 3.512-4.673.1-.3.318-.38.47-.1.294.65.324 1.39.085 2.064-.692 1.973-2.4 3.588-4.147 3.646zM23.23 50.75a11.73 11.73 0 0 0-2.176 3.186c-1.15 2.523-1.34 5.44-.456 6.1s2.748-.655 4.078-3.67a13.32 13.32 0 0 0 .88-2.691c-1.218-.52-2.092-1.62-2.326-2.925zm2.5-.25c-.217-1.033-.89-.72-.937.21a2.36 2.36 0 0 0 .973 2.018 7.21 7.21 0 0 0-.04-2.228z"/><path id="I" d="M46.936 46.255a2.3 2.3 0 0 1 1.527 3.244c-.543 1.45-1.888 3.927-2.472 5.635-.662 1.906-.342 3.375.79 3.214 1.29-.177 2.66-2.4 3.667-4.72.133-.3.355-.318.535-.08a2.33 2.33 0 0 1-.11 2.018c-.7 1.845-2.55 3.633-4.386 3.794-2.69.235-3.493-1.672-2.816-4.5.773-3.19 3.263-6.786 2.672-7-.328-.1-2.085.946-3.916 3.338-1.69 2.187-2.816 5.345-3.916 8.438-.1.3-.28.44-.6.18-.688-.578-.97-1.6-.6-3.23a50.27 50.27 0 0 1 4.246-9.773c.19-.368.447-.358.664-.06.533.906.662 1.994.357 3 1.3-1.644 3.29-3.576 4.347-3.51z"/><path id="J" d="M54.785 57.65c2.636-.1 4.724-2.836 5.9-5.042.137-.267.39-.29.54-.015.16.69.027 1.418-.366 2.008a8.05 8.05 0 0 1-5.9 3.958c-4.012.414-5.75-3.418-4.05-7.68s4.782-6.186 6.444-5.407c.768.346 1.453.85 2 1.482.636.71.55 2.662-.636 4.4-1.385 2.033-3.432 3.04-5.8 1.43-.76 3 .172 4.925 1.857 4.874zm1.99-7.506c.9-1.417 1.45-3.123.975-3.432-.71-.48-3.17 1.648-4.395 4.783l-.206.56c1.637.846 2.814-.627 3.626-1.9z"/><path id="K" d="M61.514 44.186c-.352-.384-.116-.6.36-.637l2.528-.253 2.04-4c.28-.438.565-.463.76-.066.426.855.52 1.93-.154 3.71l4.6-.657 1.954-3.9c.28-.44.57-.4.762-.034.454.82.516 1.9-.1 3.642.783-.095 1.56.223 2.05.84.254.36.115.6-.362.606-.54.015-1.363.087-2.373.208l-3.637 8.35c-.84 2.432-.29 4.328 1.012 4.278 1.43-.06 3-2.46 4-4.94.157-.4.5-.5.664-.058.166.6.1 1.26-.16 1.83-.33.952-2.176 3.92-4.747 4.047-1.428.03-2.676-.958-2.978-2.353-.72 1.242-2.14 2.864-4.076 2.97-2.125.122-3.942-2.078-2.773-5.845a72.9 72.9 0 0 1 2.773-6.935c-.795.04-1.572-.25-2.143-.805zm4.793.506l-3.452 7.92c-.842 2.4-.29 4.328 1.043 4.276 1.4-.058 3.05-2.657 3.858-5.086.58-1.772 1.863-4.944 3.112-7.794l-4.56.684z"/><path id="L" d="M84.03 49.072c-.43 2.747-2.143 6.116-4.415 7.11a3.49 3.49 0 0 1-4.107-1.044c-1.552-1.713-1.318-4.506-.115-7.162 1.014-2.256 2.783-4.26 4.67-4.55.86-.188 1.747.163 2.245.888.813.917 1.78 1.055 1.8 3.35v.734c.2-.017.374-.1.627-.12.222-.02.235.14.123.308a1.3 1.3 0 0 1-.818.486zm-2.758-.556c-.91-.61-1.527-1.574-1.7-2.657a11.1 11.1 0 0 0-2.176 3.187c-1.12 2.52-1.34 5.47-.456 6.095.95.65 2.782-.625 4.078-3.67a16.8 16.8 0 0 0 .886-2.627 2.43 2.43 0 0 1-.632-.327zm.83-2.91c-.247-1-.863-.754-.94.177a2.61 2.61 0 0 0 .892 2.185c.17-.777.187-1.58.05-2.362z"/></defs><g clip-path="url(#A)"><g class="B"><path d="M2.3 97.62a8.06 8.06 0 0 0 .008 1.184c.032.344.264.472.48.44a.43.43 0 0 0 .368-.512 10.1 10.1 0 0 1-.064-1.9 4.8 4.8 0 0 1 1.008-.676c1.1-.568 1.936-.456 2.3-.088s.256.992-.592 1.56a4.08 4.08 0 0 1-.848.392.43.43 0 0 0-.187.742.43.43 0 0 0 .443.074 4.9 4.9 0 0 0 1.132-.584c1.208-.872 1.344-1.952.76-2.608s-1.848-.92-3.272-.16a5.42 5.42 0 0 0-.688.44v-.04l.32-.568c.36-.512.144-.9-.168-.9l.152-1.144c.068-.476-.732-.588-.784-.028l-.136 1.432-1.136.512c-.456.216-.192 1.016.384.656a5.15 5.15 0 0 1 .576-.344c.03-.018.066-.024.1-.016l-.016.192c-.293.682-.647 1.335-1.06 1.952-.087.102-.167.2-.24.32-.352.528.408.976.736.4l.376-.648zm12.2-1.968c.5.168.72-.536.184-.728a2.97 2.97 0 0 0-1.92-.04c-.528.184-.28.84.136.688.53-.13 1.086-.1 1.6.08zm0 3.24c.147-.018.274-.113.332-.25s.04-.293-.05-.412-.235-.18-.382-.163c-.936.08-1.424.12-1.832-.3s-.912.208-.568.592a2.86 2.86 0 0 0 2.5.532zM11.5 94.7a5.15 5.15 0 0 0 .8-.316.38.38 0 0 0 .274-.31c.022-.147-.045-.296-.17-.378s-.3-.08-.415.001l-.3.168c.026-.213.023-.428-.008-.64-.08-.44-.832-.416-.8.04a3.57 3.57 0 0 1 .008.864 2.14 2.14 0 0 1-1.1-.048c-.6-.216-.68.512-.272.688a2.33 2.33 0 0 0 1.168.112 24.33 24.33 0 0 1-1.404 3.468c-.336.68.512.912.752.376a31.47 31.47 0 0 0 1.468-4.024zm11 3.45c.193-.152.226-.433.074-.626s-.433-.226-.626-.074c-1.392 1.1-2.816 1.176-2.864.008.006-.786.054-1.57.144-2.352l.112-1.8c-.004-.24-.203-.432-.444-.428s-.432.203-.428.444c.016.5-.04 1.28-.064 1.8l-.1 2.368c.076 2.164 2.636 1.932 4.196.66zm5.872-3.752a2.06 2.06 0 0 1 .992.32c.4.26.657.67.74 1.13a1.73 1.73 0 0 1-.3 1.318 2.48 2.48 0 0 1-1.488.9c-.688.16-.44.968.264.784a3.35 3.35 0 0 0 1.952-1.32 2.37 2.37 0 0 0-.744-3.364 3.34 3.34 0 0 0-3.456.184 2.75 2.75 0 0 0-1.1 3.224c.352.688 1.024 1 1.64.432a6.3 6.3 0 0 0 1.616-3.24.4.4 0 0 0-.116-.368zm-.632.04c-.043.076-.067.16-.072.248-.125.996-.56 1.927-1.24 2.664-.2.176-.408.056-.528-.176-.25-.848.078-1.76.808-2.256a2.65 2.65 0 0 1 1.032-.48zM37.5 98.1c0 .376-.256.5-.576.5-.18-.004-.356-.03-.528-.08a.8.8 0 0 0-.128-.016c-.206.005-.37.174-.368.38 0 .184.08.48 1.04.48 1 0 1.36-.608 1.36-1.1v-.012-1.176V94.1h.88c.1.01.2-.022.274-.1s.118-.162.118-.263a.35.35 0 0 0-.115-.26c-.073-.067-.17-.1-.27-.092H36.16a.78.78 0 0 0-.832-.7l-.864-.016-.864.016a.78.78 0 0 0-.583.213c-.157.15-.244.356-.24.57l-.016 1.776.016 1.776c-.006.218.078.43.232.584s.366.238.584.232l.856.032.88-.032a.85.85 0 0 0 .832-.824l.024-1.824-.008-1.1h1.332zm-2.7-3.3v-1.5c.544 0 .672.032.68.352l.008 1.136zm-.7 0h-.66l.024-1.144c.016-.312.192-.344.64-.344zm1.384.624l-.008 1.456c-.008.32-.272.352-.68.352V95.42zM34.1 97.22c-.1 0-.2-.008-.3-.008-.216-.008-.336-.1-.344-.32l-.024-1.472h.668zm10.28-2.824a2.06 2.06 0 0 1 .992.32c.4.26.657.67.74 1.13a1.73 1.73 0 0 1-.3 1.318 2.48 2.48 0 0 1-1.488.9c-.688.16-.44.968.264.784a3.35 3.35 0 0 0 1.952-1.32 2.37 2.37 0 0 0-.74-3.364 3.34 3.34 0 0 0-3.456.184 2.75 2.75 0 0 0-1.1 3.224c.352.688 1.024 1 1.64.432a6.3 6.3 0 0 0 1.616-3.24.4.4 0 0 0-.116-.368zm-.632.04c-.043.076-.067.16-.072.248-.125.996-.56 1.927-1.24 2.664-.2.176-.408.056-.528-.176-.25-.848.078-1.76.808-2.256a2.65 2.65 0 0 1 1.036-.48zm11.552-.232c-.003-.467-.38-.845-.848-.848a.85.85 0 0 0-.84.848.84.84 0 0 0 .84.84.85.85 0 0 0 .848-.84zm-.24 3.048a6.29 6.29 0 0 0-1.784-2.384c-.48-.424-1.016.152-.632.48a6 6 0 0 1 1.544 2.224c.188.624 1.028.296.868-.32zm-5.8.7a6.11 6.11 0 0 0 2-2.536c.073-.147.057-.323-.042-.455s-.263-.197-.424-.168a.44.44 0 0 0-.342.303 4.49 4.49 0 0 1-1.7 2.136.44.44 0 0 0 .049.782.44.44 0 0 0 .455-.058zm5.604-3.748c-.005.226-.2.408-.416.408a.4.4 0 0 1-.4-.408.4.4 0 0 1 .4-.408c.226 0 .4.182.416.408zm8.064.576c.104-.13.125-.307.054-.458s-.22-.248-.387-.25a.44.44 0 0 0-.396.237 7.28 7.28 0 0 1-4.032 3.632.46.46 0 0 0-.221.805.46.46 0 0 0 .493.059 8.5 8.5 0 0 0 4.488-4.02zm-3.336.648a.47.47 0 0 0-.1-.663 5.06 5.06 0 0 0-1.408-.608c-.608-.168-.808.64-.328.752.434.105.84.308 1.184.592a.42.42 0 0 0 .343.118c.126-.014.24-.084.3-.2zm8.984-1.728a1.5 1.5 0 0 0-.476-.656c-.4-.328-.936.088-.672.36.07.07.138.146.2.224a.83.83 0 0 1 .176.32c.148.512.916.236.772-.248zm-1.216 1.884c.465-.307.954-.575 1.464-.8.664-.264 1.176-.312 1.472-.1.127.094.2.237.224.394a.56.56 0 0 1-.144.43c-.43.518-1.168.653-1.752.32a.4.4 0 0 0-.592.1.39.39 0 0 0 .112.56 2.33 2.33 0 0 0 2.912-.568 1.22 1.22 0 0 0 .29-.976c-.05-.352-.25-.666-.547-.86a2.47 2.47 0 0 0-2.2.024 12.54 12.54 0 0 0-1.592.824l-.1-.184c-.128-.256-.208-.52-.312-.784a.39.39 0 0 0-.752.224c.043.15.1.298.168.44l.216.44.112.224c-.308.16-.63.3-.96.392-.154.02-.283.127-.332.275s-.01.3.103.42a.43.43 0 0 0 .422.1c.396-.125.777-.293 1.136-.5l.576 1.072a10.24 10.24 0 0 1 .852 1.932c.088.352.36.464.568.392a.5.5 0 0 0 .24-.688 14.21 14.21 0 0 0-.944-1.944l-.64-1.148zm9.664-.72c.227-.083.45-.18.664-.288.488-.248.208-1.024-.44-.7a2.7 2.7 0 0 1-.3.16l-.344.12c-.168-.27-.307-.557-.416-.856-.16-.576-1.056-.392-.76.256a8.08 8.08 0 0 0 .464.816 2.1 2.1 0 0 1-1.552-.1c-.576-.28-.824.448-.328.7a3.14 3.14 0 0 0 2.168.136 1.3 1.3 0 0 0 .152-.032l.528.84a1.99 1.99 0 0 1 .2.448c.032.1 0 .144-.12.136a7.77 7.77 0 0 0-2.032.056c-.5.025-.94.4-1.046.9s.138 1.008.594 1.238a4.06 4.06 0 0 0 2 .472c.76.024.808-.864.072-.832a3.16 3.16 0 0 1-1.656-.288c-.424-.248-.288-.656.16-.792a4.85 4.85 0 0 1 1.976.024.9.9 0 0 1 .328.136c.416.288.888.152.824-.416-.12-.46-.32-.896-.592-1.288l-.544-.84zm9.344 3.62a3.88 3.88 0 0 0 1.008-1.328c.3-.6-.536-1.008-.768-.416a2.71 2.71 0 0 1-.728 1.12c-.472.424-1.16.512-1.16-.2 0-.3.064-.568.04-.88-.112-1.352-1.5-.976-1.784-.72-.056.048-.08.064-.024-.016l.544-.816a11.53 11.53 0 0 1 .848-1.064l.232-.272c.07-.088.13-.182.184-.28a.43.43 0 1 0-.744-.432c-.088.16-.3.44-.44.664l-1.272 2.024a14.1 14.1 0 0 0-1.28 2.424.42.42 0 0 0 .476.616c.16-.024.336-.064.48-.68a4.21 4.21 0 0 1 .5-1.088c.224-.4 1.44-1.152 1.48-.264.016.36-.04.584-.04.952-.02 1.512 1.58 1.336 2.448.656zm-40.77-92.58c.33.012.212-.208.26-.248-.556.058-.246.305-.26.248zm-5.36.95l.08-.106-.745.358zM32.5 8.15c.213.074-.506.336.614-.192-.064.008-.084.005-.12.008l-.493.184z"/><path d="M33.003 7.967c.5-.2-.375.015 0 0zM30.73 9.02l.6-.414c-.172-.018-.763.228-.572.073-.645.37-.467.383-.028.34zm-.5.537l.306-.2c-.077-.01-.173.02-.306.2z"/><path d="M31.206 8.916l-.662.428c.12.013.18.12.3-.186-.012.13.083-.03.353-.242zm.427-.126c.394-.094.9-.23.286.16 1.233-.55.95-.738-.286-.16zm3.584-.335l.526-.05.395-.244c-.197.115-.988.184-.92.295zm-8.495 2.52c.005.092.316.052.414.1l.4-.35c-.263.08-.72.32-.814.238z"/><path d="M27.137 11.087l-.587.54c.597-.363.67-.488.587-.54zM30.3 10c.33-.3.686-.533 1.032-.8l-1.25.917zm-6.093 2.686l.255-.413q-.25.342-.474.705zm-1.55 1.277c.154-.336-.515.1-.3-.2a5.7 5.7 0 0 0-.9 1.156 4.07 4.07 0 0 1 1.21-.956z"/><path d="M21.07 15.517a7.17 7.17 0 0 0 .391-.612c-.15.2-.282.395-.4.612zm4.35-3.18a.98.98 0 0 0-.637.172h.384zm-.24.177h-.013l-.55.376z"/><path d="M25.485 12.294l-.064.044c.037.001.056-.003.064-.044zm2.935-1.53c-.336.34-1.082.925-.193.636.204-.296-.307-.125.193-.636zm-2.464 1.542l.72-.408c-.046-.04-.22-.034-.062-.2l-.657.617zm-.29.297l.3-.293-.26.162zm-3.397 2.103a7.91 7.91 0 0 1-.8.9l1.1-.908c-.002-.1.07-.333-.3.008zm1.4-1.086l-.055.06c.05-.015.085-.035.055-.06z"/></g><path d="M18.465 18.775l.077-.027-.02-.038z" class="C"/><path d="M22.663 14.674a1.58 1.58 0 0 0 .532-.568l-.62.59c-.001.042.008.062.088-.02z" class="B"/><path d="M20.265 16.452l.527-.352c-.184.07-.524.262-.527.352z" class="C"/><g class="B"><path d="M23.48 13.704l.036-.04c-.12.034-.096.044-.036.04zm0 0a2.87 2.87 0 0 0-.285.4l.42-.427c-.044.014-.1.023-.135.027zm-4.7 6.994c-.123-.166.264-1.03.963-1.466.385-.684-.457-.766-1.2-.484.058.08.106.123-.3.844.25-.168 1.36-1.206 1.06-.568-.612.874-.606.63-1.023.962.472-.185-.532 1.3-.07 1.348.136-.28.3-.543.448-.813.062.025-.068.345.132.177zm.796-3.114l.214-.262a7.18 7.18 0 0 1-.995.682c-.294.5-.3.633-.282.707l1.12-1.232z"/><path d="M20.854 16.232c-.04.338-.5 1 0 .8.673-.706.355-.613.706-1.1-1.1 1.137.243-.407-.68.294.2-.245.4-.45.583-.64l-.672.5.036-.015.005-.006c.07-.028.1-.03.03.01-.006.01-.013.018-.02.026.012.036.015.074.008.1-.368.287-.095.008-.008-.1 0-.012 0-.028-.01-.038h-.006l-1.03 1.238c.263-.2.54-.534 1.057-1.08zm6.9-3.986c-.05.01-.058-.006-.07-.018-.07.078-.1.115.07.018zm-.61.23a1.07 1.07 0 0 1 .432-.395c.305-.114.056.094.1.148.152-.173.575-.55-.076-.277l-.077.086a3.44 3.44 0 0 1-1.34.391 2.2 2.2 0 0 0 .95.047zm-3.225 1.773l-.933.927.63-.285-.1-.07c.6-.438.4-.445.403-.573zm-5.65 4.57l-.07-.3c-.087.265-.15.548-.223.82z"/></g><g class="C"><path d="M17.224 20.203l-.128-.176-.17.45zM62.76 70.12l.285-.233a2.76 2.76 0 0 0-.285.233zm-2.33 1.246l-.012.122c.084-.107.1-.167.012-.122zM15.5 60.393c.142.584.24 1.3.4 1.108l.1-.275a3.26 3.26 0 0 1-.5-.833zm23.6 14.9l-.145-.1-.408.132.553-.032zm.56-.867l.67.27a4.51 4.51 0 0 0-.67-.27zM73 60.2l.044-.48c-.366.545-.1.37-.044.48zM10.57 36.52a8.17 8.17 0 0 0-.293 1.206c.2-.58.462-1.024.293-1.206zm52.465 36.252c.188-.156.254-.248.222-.288-.194.157-.293.265-.222.288zM10.16 39.15c.03-.085.048-.17.074-.257a6.26 6.26 0 0 1 .045-1.168 2.54 2.54 0 0 0-.12 1.425zm54.22-24.996c-.026-.03-.062-.058-.084-.087-.03.02.016.05.084.087zm-13.8-7.65c.16.006.42.04.666.067a3.39 3.39 0 0 0-.666-.067zm-37.1 19.64c.148-.34 0-.065 0 0zm1.63-1.173c-.012.08-.01.148.033.18-.034-.054-.046-.12-.033-.18zm-3.603 17.8v.03c.04-.107.033-.1 0-.03zm2.33-17.1a4.4 4.4 0 0 0-.276.391 5.34 5.34 0 0 0 .276-.39z"/><path d="M13.722 25.7l.167-.278c-.007-.06-.048-.032-.167.278zm-.408.907a5.61 5.61 0 0 1 .268-.535c-.044.06-.068.082-.067.06zm65.97 10.553c0-.024.005-.05.012-.077-.138-.335-.104-.184-.012.077zM23.196 66.03c-.014-.01-.024-.01-.036-.02l.03.04z"/><path d="M24.23 66.724c-.426-.066-.805-.3-1.04-.67l-.146.77z"/></g><path d="M67.815 66.346l-.784.406c.562-.933 1.186-1.33.4-1.023.19.3-.407.88-1.048 1.405a8.91 8.91 0 0 0-.86.765c-.23.227-.356.432-.275.6l-.55.206c.136-.09.133-.138.268-.225-1.088.357-.376.9-1.643 1.595-.455.216-.814.29-.562.05l-.874.708c-.3.146-.278 0 .007-.148l-1.475.832v-.025a7.12 7.12 0 0 1-.811.771c-.438.085.167-.16.03-.195l-.794.544c-.216-.015-.157-.136.03-.28a3.18 3.18 0 0 1 .792-.457c-.326-.148-.71-.076-.96.18-.462.35-1.012.56-1.59.612l.787-.4c-.666-.16-1.258.194-2.265.264.25.055 2.078-.026 1.18.465a2.72 2.72 0 0 0-1.132.446c-.08-.242-.574-.038-1.214.16l-.044-.34c-.663.292-.573.42-.95.672-.8.15-1-.067-1.238-.256-1.27.172.954.257-.534.587a6.8 6.8 0 0 0-.755.084l-.708.123-1.607.4c-.763-.06.115-.217-.163-.293l-.647.32c-.164.006-.116-.08-.092-.124-.558.134-.027.343-.918.46-.116.185-.583.076-1.15-.06a3.41 3.41 0 0 0-1.792-.1c-.265-.117.143-.2.067-.335l-2.582.327-1.02-.375c.73.39-.3.51-1.23.6l.627.4-1.448-.1c-.158-.094.01-.174.268-.26l-.273.02c-.472-.237-.166-.367.227-.47l.454.32c.388-.14.748-.306.713-.514-.155.023-.312.026-.468.01.1-.04.166-.078.132-.118s-.2.012-.438.04l-.23-.44-.107.13-1.7-.67-1 .034c-.34.013-.684 0-1.055-.017a8.87 8.87 0 0 1-2.576-.5c.587-.04.28-.37.436-.66.28.28.647.453 1.04.488.504.093 1 .222 1.485.386-.518-.214-.348-.32-.2-.328-.638-.09-1.257-.244-1.892-.375.14-.23-.3-.33-.705-.644.13.643-1.447-.256-2.2-.493.04-.18.3-.256 1.112.214-.74-.835-1.5-.045-2.235-.872.2.113.3.2.423.166-.352-.115-.683-.283-.983-.5-.3-.2-.466-.414-.3-.394l.2.122-1.155-.763-1.307-.858c-.84-.558-1.584-.987-1.814-.893.192-.136.406-.237.632-.3l-3.088-.726c.442-.113.412-1.414 1.483-.695a4.95 4.95 0 0 0-1.145-1.093c.13.22.037.844-.23.622-.22-.598-.49-1.176-.806-1.73.183.338-.54.43-.92-.04.13.01.42-.427.6-.306l-1.4-.756c.313.225.433-.266.364-.625 0 .1-.192-.155-.422-.463l-.6-.836.248.588c-.887-1.4-1.64-.873-2.5-2.33.21.117.9.04.544-.723-1.188-.376-2.233-1.106-2.995-2.09l.038-.34-.645-1 1.567 1.258 1.682 1.408c-.165-.614.1-.25-.334-1.063 0-.362.45.333.58.568l-.84-1.957c-.142.117-.392-.218-.637-.562-.23-.35-.448-.7-.572-.617.385.69.843 1.342 1.267 2-.14.12-.507-.077-.915-.495a4.77 4.77 0 0 1-1.092-1.8c-.012-.417.7.05.8-.025-.33-.427-.56-.92-.677-1.448l.387.552c-.09-.377-.26-.73-.5-1.035-.244-.36-.365-.8-.344-1.224-.087-.346.18-1.13-.035-1.138-.267.648-1.454 1.1-1.84.768l-.02-1.1a6.38 6.38 0 0 1 .11-1.329c.2-.638.9.742 1.083.194-.1 0-.274-.3-.336-.427.016-.382.324.1.138-.688-.376-.08-.178-1.644-.35-.337a9.22 9.22 0 0 1-.145-1.779c-.2.323-.873-.777-1-1.6.093.044.208-.144.26-.234l.016-1.126.088-.968.2-2c.095-.136.264-.862.4-.533a2.45 2.45 0 0 1-.082-.91c.425-.866-.085 1.05.375.4-.194-.08-.155-1.245-.143-1.928-.172.075-.274.456-.288.91s.017.97.04 1.3c-.222-.022-.412-.338-.546-.862a6.72 6.72 0 0 1-.143-2.089c.142-1.314.4-.5.377-.736.127-.45.205-.913.232-1.38a5.45 5.45 0 0 0 0-.862c-.066-.66.09-1.322.445-1.883.53-.68.546.152.8.048a5.06 5.06 0 0 1-.458 1.214c-.162.31-.296.635-.4.97l.37-.812a3.8 3.8 0 0 1-.308 1.392 3.8 3.8 0 0 0 .375-.884l.222-.7.28-.795.3-.846.35-.834c.205-.502.45-.986.735-1.447.05-.34.2-.905-.02-.708l-.208.557c-.435.405.175-1.157-.234-.513a11.61 11.61 0 0 1 .353-1.277c.08-.235.174-.466.28-.7a5.61 5.61 0 0 1 .435-.691l.387-.023c-.093-.027-.54.547-.61.873.12-.483 1.224-1.293 1.16-1.937l-.612.56c.236-.938.65-1.82 1.223-2.6-.53.2-.107.21-.836.6.727-.276-1.434 2.21-.473 1.61-.74.427-.824 1-1.6 1.71.11.023.34-.215-.1.53.008.07.008.14 0 .21l-.034.048.033-.036c0 .04 0 .045.012-.014a1.17 1.17 0 0 1 .345-.317 3.7 3.7 0 0 1-.3 1.093c-.136.355-.25.72-.34 1.088-.255.44-.025-.242-.244-.036l-.093.706c-.244-.03-.864 1.114-.55-.06l-.41 1.01a5.68 5.68 0 0 0-.747 1.93c-.19.482-.1 1.32-.16.84l-.278 1.687h-.06a18.9 18.9 0 0 0-.367 2.571 13.39 13.39 0 0 1-.47 2.74l.014.907a9.6 9.6 0 0 1-.045 1.188l-.21.182c.052.725-.174 2.2.062 2.5a4.04 4.04 0 0 0-.078 2.249l.25 1.4a11.35 11.35 0 0 1 .211 1.173h.272c.076.438.184.87.32 1.292a13.7 13.7 0 0 0 .5 1.408l.2-.128c.225.535.392 1.092.5 1.662l.244 1.023a10.41 10.41 0 0 0 .364 1.04c-.12-.06-.238-.42-.284-.687a4.45 4.45 0 0 0 .34 1.328 10.67 10.67 0 0 0 .672 1.214l.723 1.144c.215.365.388.752.516 1.156a2.16 2.16 0 0 1 .482.843c-.017-.03-.037-.056-.06-.08l.08.144a5.39 5.39 0 0 0 .183.541 4.44 4.44 0 0 0-.138-.465 9.23 9.23 0 0 0 .74.994l-.107.3.064.086c.167.433.3.238.326-.07a2.71 2.71 0 0 0 .469.411c-.12.53.79.9.755 1.548a5.3 5.3 0 0 1 .971.884c.422.384.862.74 1.11.68-.034.05.032.17-.13-.012a3.4 3.4 0 0 0 .985 1.051l-.085.38q.534.256 1.088.473c.345.6.473.882-.184.6l1.234.776a6.4 6.4 0 0 0 1.113.611l-.185.12c.392.3 1.175.556 1.3.875.8.847 1.726 1.565 2.745 2.13l4.153 2.372c-.125-.4.142-.193.486.046s.77.51.91.307c.1.2.44.42-.034.368a16.51 16.51 0 0 1 1.655.6 2.7 2.7 0 0 0 1.412.239c.12.186-.358.12-.24.245.12 0 .48 0 .6.13s-.238.06-.478.058c.454.178.953.2 1.42.066.22-.098.39-.277.48-.5.263.155.55.265.85.325.263.023.528-.01.776-.1.227.18.63.4-.277.288l1.733.35c.72.1 1.39.146 1.43-.03.275.08.564.097.847.05.786.093 1.577.132 2.368.116l-.31-.063c.446-.386.93-.09 1.834-.16l-.024.043a3.89 3.89 0 0 0 1.483-.006 5.77 5.77 0 0 1 1.468-.032l-.14-.238c.063-.283.515-.26 1.1-.21a4.99 4.99 0 0 0 1.873-.146l-.45-.065a2.23 2.23 0 0 1 1.269.045c.43.137.88.2 1.333.19.15 0-.2.14-.388.22 1.765-.156.134-.38 1.35-.8.28.1-.163.532.683.3a5.94 5.94 0 0 0 1.434-.693c.6-.397 1.266-.684 1.967-.848-.295-.018-.582-.04-.082-.38.808-.4 2.47-.592 2.983-1.387.12-.025.175-.015.2.012.273-.23.752-.535 1.165-.878.342-.248.646-.545.9-.883.26.1.59-.042.954-.282a7.22 7.22 0 0 0 1.114-.946c.727-.7 1.328-1.39 1.586-1.083l1.557-1.483.017.1c.633-.493 1.113-1.155 1.385-1.91.248-.2.153.022.167.07a9.69 9.69 0 0 0 1.389-1.528c.335-.52.61-1.075.817-1.656l.314.01c.155-.43 1.992-2.176 2.63-4.1.017.03.044.1.005.248a33.2 33.2 0 0 1 1.636-3.212c.538-1.033.857-1.976.534-2.505.092-.48.128-.977.2-1.46-.582 1.777-.322-.38-.684.312.084-.362.227-.708.425-1.023.143-.24.262-.278.17.163l-.085.123c.422.455.718-2.213 1.017-2.1.757-3.54 1.003-7.17.73-10.78-.112.148-.22.293-.34.44-.03-.4-.083-.8-.124-1.2.05-.326.246-.466.34.4a1.89 1.89 0 0 0-.469-1.426c-.143-1.7.562.58.48.068l-.154-.7-.016.166a4.29 4.29 0 0 1-.626-1.578c-.073-.66.156-.384.112-.64.027-.005.02-.094-.08-.393-.12-.5-.256-.994-.383-1.492l-.126.676c-.325-.61-.384-1.38-.516-.608-.05-1.115-.326-2.21-.814-3.213-.252-.64-.56-1.24-.778-1.737a7.69 7.69 0 0 1-.455-1.016 13.5 13.5 0 0 1-.853-1.175c-.268-.417-.51-.878-.82-1.366.1.276-.1.6-.6-.252.4-.038.227-.474-.082-1a5.23 5.23 0 0 1-.768-1.625c.09.388-.368-.16-.806-.655s-.9-.9-.7-.324c-.5-.664.17-.21-.12-.8-1.508-1.307-2.9-3.3-4.94-4.758-.086.05.148.416-.35.2-.24-.4-.508-.76-.77-1.143-.433-.24-.657.164-1.228-.58.063.133.155.332-.135.182a23.04 23.04 0 0 0-6.453-3.416c-2.32-.854-4.684-1.5-7.048-2.317.628.3.186.234-.314.153.318.1-.042.225 0 .362l-1.985-.6a2.47 2.47 0 0 1-1.276.088c-.526-.04-1.035-.03-1.146.128l.646-.043c-.437.188-.143.4.228.66s.82.545.74.793c.258-.087.535-.1.8-.035a8.55 8.55 0 0 1 .931.3 3.99 3.99 0 0 0 2.173.284c.308.16-.31.1-.157.257.57-.138 1.17-.067 1.7.2l-.107.03a13.53 13.53 0 0 1 1.534.416 11.77 11.77 0 0 1 1.273.48c.412.172.83.35 1.288.583s.975.458 1.564.777l-.08-.31a3.65 3.65 0 0 1 .809.558c.767-.07-1.468-.687-.747-.82.216.258.487.465.793.606l1.252.678c.868.47 1.683.98 1.748 1.362.74.48-.066-.387.68.095l.113.26.3-.048c.476.34.59.7.534.8a3.89 3.89 0 0 0-.473-.278 4.89 4.89 0 0 0 1.086.828 5.33 5.33 0 0 1 .819.57l-.608-.6a49.57 49.57 0 0 1 5.767 5.08l-.026-.212c.422.353.78.778 1.057 1.254.298.51.632 1 1 1.463l-.065-.042a4.08 4.08 0 0 1 .943 1.128c-.385-.343.276.93-.205.462a6.71 6.71 0 0 0 .9 1.055c.282.156.54.352.766.582l-.038.357a2.69 2.69 0 0 1 .94 1.176c-.488-.67-.012.7-.587-.03.098.446.248.88.448 1.29.164.36.33.668.484.943a1.94 1.94 0 0 1 .376 1.542c.827.724-.3-1.79-.024-1.322 0-.24.168-.093.36.195a4.3 4.3 0 0 1 .451 1.05 2.48 2.48 0 0 1-.028 1.083c-.066.6-.02 1.206.132 1.8-.034-.16-.077-.162-.112-.322-.008.633.482 1.133.38 1.927.4.36.155.97.6 1.025l-.364-1.485c.13.414.35.8.543 1.27a4.21 4.21 0 0 1 .285 1.753 3.36 3.36 0 0 1-.361-.794c-.076.43.2.787.1 1.232-.206-.043-.282-.5-.366-1.052-.04-.277-.08-.58-.14-.867-.06-.266-.154-.523-.28-.765.006.328.07.652.192.957.08.312.114.517-.14.32a1.51 1.51 0 0 1 .384 1.158 3.31 3.31 0 0 0 .251 1.528l-.257-.06a2.84 2.84 0 0 1 .187.859l-.34-.573c.3.9-.183 1.732-.072 2.584.02-.9.094-1 .192-.97s.228.2.3-.2c.3 2.256-.64 1.277-.714 3.744 0-.335.248-1.243.327-.71-.068.47-.2.925-.422 1.35-.155 1.635.288-.216.353.5-.365.516 0 .82-.03 1.562l-.252-.042c-.527 1.817.423.6-.142 2.233l-.182-.788c-.04.294-.067.592-.117.885l-.233-.25a4.8 4.8 0 0 1-.548 2.128c.242-.152.4.26.138 1.065-.34.487-.106-.38-.506.74-.116-.372-.015-.778.262-1.053-.062-.078-.067-.3-.128-.38a9.65 9.65 0 0 0-.722 1.819 2.06 2.06 0 0 1 .224-.406l-.152.862-.193.855c-.2.207-.18-.02-.162-.245a8.59 8.59 0 0 1-.312 1.068c-.128-.2-.323-.27-.12-.965-.14.527-.33 1.036-.507 1.555-.127.058-.6.62-.572.4a6 6 0 0 0-.673 1.436 5.53 5.53 0 0 1-.9 1.57 1.1 1.1 0 0 1-.166.421 15.37 15.37 0 0 1-.529.636c-.18.206-.377.394-.56.6s-.362.428-.538.667c-.195.25-.37.514-.522.792-.26.106-.508.22-.775.313-.655.81 1.053-.424-.048.933-.772.978-.542.113-.92.342a8.7 8.7 0 0 1-.655 1.062 3.55 3.55 0 0 1-1.238 1.017 8.24 8.24 0 0 1 .743-.685zm-10.973 6.638c.223-.124.632-.45.852-.383-.16.38-.418.33-.852.382zM37.316 74.37a1.37 1.37 0 0 1 .781.24 2.51 2.51 0 0 1-.781-.241zM12.18 29.97c-.001.01-.001.02 0 .03-.284.533-.18.344 0-.035zm.53-1.13c.012-.13-.024-.134-.077-.1a1.53 1.53 0 0 1-.2.655c.09-.062.195-.193.277-.56zm67.56 4.273l-.01.25c-.193-.515-.094-.383.012-.25z" class="B"/><path d="M39.598 74.516c.047.04.076.095.08.156.106-.025.117-.074-.08-.156zM73 60.3l.025-.03a.1.1 0 0 0-.015-.058zM13 47.363a1.42 1.42 0 0 1-.048.48c.064.001.096-.116.048-.48zm2.245-24.64c-.13.235-.24.482-.355.725.108-.22.257-.416.44-.58-.06-.016-.216.068-.084-.146z" class="C"/><path d="M20.636 18.247c.055-.1.162-.175.215-.277l-.107-.06c-.327.354-.488.66-.108.336z" class="B"/><path d="M16.372 22.556c.22.07.4-.4.7-.862l-.056.08c-.162-.308-.423.233-.644.783zm.762-.97c.088-.145.185-.284.3-.417-.06-.12-.14.154-.3.417z" class="C"/><path d="M13.175 27.32c.16-.22-.183-.263-.04-.365-.135-.378-.417 1.754.04.365z" class="B"/><path d="M17.2 22.575l-.326.017.015.372zm-2.307 3.595l.46-.737c-.045-.01-.018-.12.026-.25-.248.47-.562.97-.485.986zm.487-.986a3.23 3.23 0 0 0 .305-.629 5.05 5.05 0 0 0-.305.629zm1.25-1.578l-.183.186-.32.518.503-.704zm-4.77 11.346l-.092.945c.073.1.173-.134.2-.485-.024-.234.003-.586-.108-.46z" class="C"/><path d="M13.224 32.37c-.072.138-.177.255-.307.34l.3.113z" class="B"/><g class="C"><path d="M12.666 35.007c.073.1.023 1.363.207.213-.08-.1.027-1.032-.207-.213zM12.4 48.94l-.058-.23-.52.145zm5.868 10.694c-.465-.97-.422-.033-.8-.94-.247-.147.3.742.08.58.466.477.584.804.72.36z"/><path d="M17.547 59.276l-.25-.238a1.71 1.71 0 0 0 .25.238z"/></g><path d="M47.917 5.954c-.245-.062-.5-.1-.738-.142l.472.193.266-.05zm-1.432.353l-.17-.348-.446.3a1.35 1.35 0 0 1 .615.048z" class="B"/><path d="M54.82 72.898l-.027.094c.125.057.28.02.592-.054zm8.5-3.518l-.138.08.417.1zm5.754-5.155c-.22.223-.44.526-.68.734.462-.504 1.012-.528.68-.734z" class="C"/><g fill="#5d0c14"><use xlink:href="#B"/><use xlink:href="#C"/><use xlink:href="#D"/><use xlink:href="#E"/><use xlink:href="#F"/></g><g fill="#806342"><use xlink:href="#B"/><path d="M69.8 17.366a4.1 4.1 0 0 1-1.2-.179l-.35-.1-9.146-2.712c-1.303-.357-2.333-1.357-2.73-2.65l-.015-.052a4 4 0 0 1-.143-1.485l-.392-.523 1.15-1.467q.074-.1.155-.2l.608-.835.056-.08a13.18 13.18 0 0 0 1.324-2.253l.025-.055A7.8 7.8 0 0 1 64.99.073c1.81-.34 3.677.197 5.03 1.447 1.23 1.412 2.114 3.09 2.588 4.9l.052.167a39.71 39.71 0 0 1 1.2 6.336l.043.36-.012.23a4.01 4.01 0 0 1-1.719 3.1 4.1 4.1 0 0 1-2.372.754zM62.65 9.78l5.567 1.654-.73-3.33c-.252-.96-.663-1.87-1.216-2.692-.336-.08-1.372-.143-2.277 1.7a18.51 18.51 0 0 1-1.435 2.55zm3.458-4.55l.013.014z"/><use xlink:href="#C" y="0.001"/><path d="M65.323 32.103c-1.1.002-2.135-.434-2.9-1.2Q61.3 29.76 60.16 28.618l-8.156-8q-.594-.57-1.195-1.14a4 4 0 0 1-1.242-3.14c.076-1.16.638-2.234 1.547-2.958l2.96-2.375c1.043-.826 2.415-1.1 3.7-.768l1.568.437 9.83 2.9q.894.275 1.783.554a4.01 4.01 0 0 1 2.783 4.491 16.89 16.89 0 0 1-.389 2.04 28.41 28.41 0 0 1-3.566 8.165 14.06 14.06 0 0 1-1.236 1.7 4.09 4.09 0 0 1-2.9 1.569 6.76 6.76 0 0 1-.324.01zm.928-5.006v.005zm-10.6-10.45l.092.088 8.234 8.076 1.2 1.214.043-.07c1.316-2.048 2.3-4.292 2.914-6.648q.05-.194.093-.393l-.64-.2-9.7-2.86-.937-.26q-.66.526-1.312 1.052zm13.7 2.617l.03.01zm-14.85-1.69l-.017.014z"/><use xlink:href="#D" x="0.002"/><path d="M22.446 37.157a4.02 4.02 0 0 1-2.671-1.023l-.154-.14-.243-.295a39.66 39.66 0 0 1-3.667-5.312l-.082-.153a12.18 12.18 0 0 1-1.67-5.306 5.83 5.83 0 0 1 2.5-4.574 7.8 7.8 0 0 1 7.451-.862c.908.296 1.835.53 2.774.7l.27.064c.128.033.26.052.392.055h.1l.1.006c1.36.08 2.583.85 3.245 2.04l.026.048a3.96 3.96 0 0 1-.05 3.837l-4.483 8.385-.16.3c-.593 1.136-1.68 1.932-2.942 2.156a4 4 0 0 1-.715.065zm-2.027-9.384a34 34 0 0 0 1.854 2.86l2.812-5.264a26.48 26.48 0 0 1-2.875-.765c-1.978-.67-2.67.11-2.853.408.2.972.56 1.905 1.064 2.76zm-1.08-3.028z"/><use xlink:href="#E"/><path d="M36.097 44.315c-.162 0-.323-.01-.484-.03a14.62 14.62 0 0 1-2.114-.321 28.2 28.2 0 0 1-8.269-3.187c-.602-.352-1.182-.74-1.736-1.165a4.02 4.02 0 0 1-1.232-5.147l.84-1.63 4.853-9.04.78-1.4c.66-1.166 1.83-1.95 3.16-2.117q1.9-.23 3.8-.44c1.135-.132 2.274.217 3.14.962.9.777 1.406 1.912 1.385 3.1l-.024 1.665-.038 11.426q.01 1.6.03 3.2a4.09 4.09 0 0 1-4.091 4.128zm-8.517-8.412a11.07 11.07 0 0 0 .359.218 22.9 22.9 0 0 0 6.719 2.583l.128.028q-.01-.856-.014-1.715l.04-11.664-1.67.2-.476.858-4.78 8.9zm8.737-10.72h-.023zm-1.482-1.378z"/><use xlink:href="#F"/><path d="M41.523 44.98q-.382 0-.763-.013h-.007a4.11 4.11 0 0 1-2.853-1.141c-.802-.77-1.26-1.83-1.276-2.94l-.02-2.407.068-12.857q.03-1.716.068-3.426c.058-1.77 1.2-3.32 2.89-3.884l.122-.037 3.838-1.28c1.488-.63 3.533-1.8 3.553-1.808l.1-.056c1.572-.806 3.48-.55 4.782.644l2.51 2.38 9.192 8.985q.854.85 1.7 1.708l.05.05c1.55 1.618 1.525 4.176-.055 5.764a21.64 21.64 0 0 1-1.832 1.77 35.7 35.7 0 0 1-20.279 8.475 22.92 22.92 0 0 1-1.786.071zm.583-21.78l-.048 2.51-.067 12.73.01 1.145a15.36 15.36 0 0 0 .864-.048 30.34 30.34 0 0 0 17.227-7.2l.64-.58-.808-.808-9.108-8.9q-.906-.866-1.82-1.73l-3.352 1.655-.062.026a47.74 47.74 0 0 1-3.474 1.197z"/></g><g class="B"><use xlink:href="#B"/><path d="M69.03 14.574l-.085-.08-.077.137z"/><path d="M68.712 13.905l-.193.01c-.03.454-.127.3.05.674.115-.038.37-.122.394-.3-.074 0-.224.13-.3.047.08-.1.186-.062.285-.205-.123-.18-.134.073-.3-.04zm-.336.36a.84.84 0 0 0 .092-.2c-.038.07-.15.137-.092.2z"/><path d="M68.257 14.278c-.1-.048.05-.156.046-.182l-.2.236zm-.45-.153a.38.38 0 0 0-.059.011c.005.052.03.015.06-.01z"/><path d="M67.574 14.1c.016.108.1.07.175.044v-.02c-.04-.1.08-.275.166-.194.12-.012.05.177.182.078l-.078-.195c-.173-.024-.357.23-.445.287zm.233.025a.2.2 0 0 1 .064.005c-.017-.04-.04-.024-.064-.005zm.223.1l.07-.023v-.086zm-.835-.22c.106-.257.26.107.35-.1-.15-.032-.2-.262-.133-.4l-.188.034a.53.53 0 0 0-.029.456zm-.115-.765a.1.1 0 0 1-.051.034c.02-.003.04-.016.05-.034z"/><path d="M66.115 13.438l.462-.155c-.06.075-.072.163-.168.167.158.086.23-.077.362-.01-.032.26-.25-.055-.237.2.146.05.308-.003.393-.132l.1.216.03-.288c-.04-.1-.192.175-.174-.025.015-.122.085-.125.138-.14-.117.024-.212-.294-.428-.32s-.297.4-.478.495z"/><path d="M66.193 13.137l.006-.114-.025.15zm-.525.233l.25-.1c.01.047.014.096.008.144.01-.065.1-.156.1-.2-.02-.273-.267.006-.386.018-.25-.195.052-.128.01-.393.077.03.063.1.167.14-.1-.328-.383-.138-.514-.1.025.034.01.113.078.1l-.14.047c.066.227.152.3.426.357z"/><path d="M66.023 13.472c-.08 0-.1-.03-.1-.067.002.07.013.123.1.067zm-.777-.63c.007.02.03.02.06.01-.01-.014-.027-.02-.06-.01zm.026.325l-.13-.067.02.132c.023-.007.097-.004.1-.065z"/><path d="M60.056 11.2c-.015.1.022.168.135.18-.05.13-.182.063-.268.12.118.128-.046.156-.046.3.155.06.273-.093.433-.007-.023.046-.03.098-.023.15.227-.024.608-.047.774.127a1 1 0 0 0 .566.088c.673.275 1.436.353 2.144.7l.18-.228c0 .14.178.052.108.214-.032-.044-.078-.03-.128-.04.093.276.43.106.6.245-.008-.053.027-.287.1-.3-.1.285.228.062.186.4.167.14.082-.25.267-.145.07-.164-.167-.14-.165-.278.1-.12.164.112.208-.07-.3-.18-.994 0-1.5-.05l.1-.145a.77.77 0 0 1-.816-.394c0 .166-.346-.192-.408.165-.04-.1-.064-.1-.145-.147l-.056.1c-.128-.04-.06-.2-.2-.236.054.177-.065.2-.143.3-.122-.216-.277-.42-.388-.6-.005.065.005.13.03.2-.087-.083-.1.065-.15.108-.1-.022-.036-.212 0-.307-.164-.113-.347.23-.447.068v.168c-.2-.018-.3-.233-.524-.242-.04-.24.22-.132.33-.2-.03-.057-.114-.094-.123-.172a5.88 5.88 0 0 1-.443.253c.165-.215-.102-.28-.168-.315zm.6.063c.03-.02.057-.043.083-.067-.023.013-.05.013-.073 0-.01.02-.012.044-.01.067z"/><path d="M60.056 11.2v-.026c-.02.008-.013.016 0 .026zm1.028.9c-.007-.008-.015-.015-.023-.02l-.032-.015zm.35-.653a.89.89 0 0 0 .11.2.2.2 0 0 0-.111-.21zm1.204.543c.046-.015.037-.068.078-.1-.077-.03-.118.01-.078.1zm-2.194-.824h-.17l-.07.025z"/><path d="M59.324 9.433c-.054-.002-.107.013-.152.042-.02.013-.038.03-.055.046l-.024.027-.012.014-.005.007c0 .01.008-.022-.03.05-.017.043-.017.092 0 .135.025.065.084.1.153.12.03.004.06 0 .09-.01l-.21-.294c-.063.077-.11.17-.17.24a.21.21 0 0 0 .141.278c.086.042.157.078.134.2l-.363-.155c-.055.183-.066.377-.032.565a.45.45 0 0 0 .387.377c-.033.04-.056.117-.145.076.126.172.51-.215.53 0-.31.024-.122.2-.324.347l-.05-.01c.15.126.417.132.507.183.04-.094.032-.262.145-.23-.037-.035.025-.133.064-.227-.133.066-.146-.025-.275.046.035-.142.055-.01.09-.15a.89.89 0 0 1-.139.04c-.02-.063.13-.055.092-.134-.06.05-.176.047-.2-.03l.05-.007c-.076-.015-.055-.12-.237 0 .052-.056.108-.108.167-.156l-.132.068c-.007-.2.34-.267.164-.425-.05.038-.125-.006-.15-.04-.113.08.1.116.126.178-.148.037-.33-.128-.416 0 .167-.135 0-.283.37-.25.05-.1-.09-.23.06-.306l.043.034c-.12-.1-.02-.088.026-.114l-.33-.3c-.055-.125-.09-.257-.11-.392.147-.044.305-.006.416.1a.43.43 0 0 1 .126.376.4.4 0 0 1-.077.186h.006l.01-.014a.1.1 0 0 0 .015-.036c.005-.04-.002-.078-.018-.114l-.11.05c-.076-.066-.047-.11-.017-.177.026.03.026.03.078.04-.126-.125-.014-.322-.04-.376-.08.057-.033.238-.066.354-.057-.104-.185-.18-.105-.237z"/><path d="M59.6 10.963l-.1.02c.032.005.064-.002.1-.02zm.498-2.07c.1-.078.106.113.235.065-.03-.174-.287-.027-.37-.232.13 0 .054-.2.08-.253a.64.64 0 0 0 .316.226c-.026-.08.133-.1.187-.168-.238.086.026-.193-.2-.13-.107-.092-.085-.3.047-.3.08.06.028.1 0 .146.135.142.157-.05.318.02-.108-.3.23-.826-.228-.9-.1.013-.044.113-.066.183.176-.124.192.117.248.172-.1.036-.068.233-.18.123l-.063-.2a6.7 6.7 0 0 0-.846 1.262l.13-.17c.08.086.03.174.028.27l.3.075c-.053.04-.055.113-.134.05.052.132.13.146.237.164-.057.164-.16.12-.1.332.35-.1-.016-.3.33-.444z"/><path d="M59.877 9.47l-.076-.137v.123zm-.437-.445c.052.034.05.082.1.116.1-.082.03-.116-.1-.116zm1.37-.903l.047-.166-.1.06c.036.022.056.063.053.105zm-.05-1.352c-.08.205-.014.355-.264.5.095.2.325.126.44.258.1-.1-.176-.233-.164-.375.162.037.064-.182.155-.272-.067-.017-.126-.057-.168-.1z"/><path d="M61.65 6.364c.048-.093-.02-.24.084-.28.085.053.093.125.042.17.22.063.015-.122.2-.15-.026 0-.08.014-.1-.033.174-.206-.093-.215.188-.458-.03-.075 0-.117-.138-.186.263-.076.2 0 .475-.1-.154-.05-.304-.112-.45-.186.417-.138.173-.313.458-.38-.006.025.016.08-.038.1.23.135.06-.18.182-.24l.167.148c.04-.1.057-.34.266-.33l.063.1c.043-.332.358-.463.472-.688l.185.04c.16-.318-.308.117-.318-.28.278.3.063-.207.32-.185.162.087-.1.18.076.28-.085-.2.047-.106.094-.214.084.175.2-.077.25.147q.053-.236.132-.487c.077.055.182.04.242-.032-.182.066-.06-.3-.3-.3a4.31 4.31 0 0 1-.5.387 3.41 3.41 0 0 1-.576.363c.143.24-.2.175-.1.383-.067-.058-.142-.092-.2-.148-.157.22.15.066.17.182-.06.1-.24.048-.3-.026-.136.133.04.07.084.24l-.3-.1c-.307.612-.652 1.204-1.033 1.773l.194.038c-.223.216.16.635-.323.688l.1.155c-.058-.087-.273-.086-.352-.214.02.1-.083.142-.07.242l.15-.088c.093.167-.05.222-.2.184.06.285.348.042.512.07-.16-.44.452-.128.46-.473-.014-.216-.165-.055-.25-.1zm-.63.114a.18.18 0 0 0 .024.063.2.2 0 0 0-.024-.063zm3.477-3.348c.027-.01.052-.024.075-.04.01-.055-.022-.008-.075.04zM60.93 6.88z"/><path d="M61.26 7.234l.046-.07-.082-.03zm4.1-4.114l-.016-.1a.19.19 0 0 0 .016.1zm2.053.308l-.037-.022c.005.016.02.025.037.022z"/><path d="M70.016 8.01c.1.164.224.3.387.39l-.1.013c.066.07.282.294.414.084l-.094-.02c-.188-.158.127-.178.15-.344-.1-.172-.478-.182-.434-.363-.028-.067.07-.082.15-.08-.015-.167-.31-.158-.375-.255.715-.267-.353-.423.017-.8-.11-.125-.12-.342-.327-.475.213.03-.052-.18.16-.215-.424.108-.03-.607-.554-.428.035-.305-.035 0-.043-.33.056-.025.078.023.1.037.05-.16-.29-.075-.106-.273-.073-.242-.153.026-.348-.04-.06-.255.042-.226.17-.46-.24.107-.2-.092-.39-.128.006.033.05.206-.093.16-.116-.27-.267-.107-.47-.277.156-.278.16.21.21-.113.21.062.27.182.5.153a1.32 1.32 0 0 0-.582-.559c-.065-.135.154-.03.1-.134-.077-.29-.48-.1-.544-.32l.128-.086c-.212.06-.383-.3-.664-.3 0 .082 0 .137-.047.17.073-.176-.028-.16-.154-.132s-.272.06-.358-.088c-.042.186-.2.323-.392.337a.4.4 0 0 1-.011-.229c.2.158.25-.226.467-.3-.18.08-.425-.076-.578.087l.07-.18c-.228-.05-.21.407-.428.23l.02-.137c-.23 0-.484-.012-.73 0-.236.004-.455.122-.6.315.01.116.256.3.286.39.158-.137.228-.362.37-.493l.036.21c.007-.148.192-.26.067-.36.123-.125.124.174.264.035.006.224-.078.26-.06.444l.11-.124c-.03.09.08.066.048.158.214-.266.31.086.535-.008l-.125-.052c.007-.124.082-.1.142-.135.05.18.087.16.194.247.1-.08.2-.286.355-.256-.08.217.2.185.157.385.106-.222.27.005.338-.106.088-.014.173.05.106.164-.01 0-.038.01-.064.012a.3.3 0 0 1 .055.039c-.02.02-.026.04-.035.04.042.033.134-.112.135.025-.035.05-.068.03-.106.036.1.1.413-.147.38.122.1-.055.255.1.412-.1-.03.1-.192.215-.067.314.222-.06.047.184.224.2-.272 0-.052.034-.3.05-.012.132.31.092.38.273-.033.042-.087.076-.12.118.1.017.3 0 .17.144l.127-.083c0 .148.122.283.036.478l.326.02c-.18.324.182.476.49.545.02.08.017.215-.042.237l-.13-.043c.036.115-.064.31.18.286.112.09-.12.142-.124.24.4.117.02.77.522.67-.008-.167-.038-.332-.087-.49.075.028.156-.044.19.02.088.178-.055.335.1.494l-.315.08c-.203.4.592.485.217.86z"/><path d="M69.22 5.67l-.1.2.124-.066c-.04-.028-.05-.084-.024-.125zm.025.126c.028.022.06.04.092.05-.007-.03-.03-.057-.06-.068zm.958 2.744c-.014.052-.002.108.033.15.03-.048.022-.13-.033-.15z"/><path d="M70.337 8.677l.033-.08h-.04zm.998 4.043l.222.2c-.095.05.053.294-.127.23a.22.22 0 0 1 .12.113.45.45 0 0 1 .034.188c0 .118.018.184.2.133v-.224l-.034-.186-.042-.277-.072-.6a3.18 3.18 0 0 0-.356-1.2l.154.1c-.33-.356.2-.6-.384-.83l.277-.006c.042-.2-.453-.276-.207-.522l-.105.04c-.01-.05.035-.08.026-.132l-.045.03a.26.26 0 0 1-.092-.341c.084-.027.05.053.08.1.075-.078-.13-.143-.15-.245.057-.1.122-.025.16-.022-.184-.28.065-.483-.383-.606-.078 0-.117.1-.177.008-.08.228.114.352.262.5l-.01-.05c.42.06-.064.13.154.327-.17-.03-.192-.13-.285-.152-.238.33.307.337-.038.592l-.015-.018c-.03.047.057.1.1.157.046-.03.06-.094.1-.14.048.053.225.05.3.058-.158.1.1.076.038.2-.152.07-.164-.065-.258-.088l.135.1c.033.12-.152.152-.227.228.14.08.075-.076.26-.025-.172.167-.022.7.176.954-.038-.1-.177-.005-.17-.12-.03.046.077.175.2.157.115.183.117.415.006.6l.117-.067c.228.117-.1.388.05.628v-.006c.037.08.347.114.3.275-.142-.012-.14-.096-.287-.07z"/><path d="M71.643 13.765l-.146-.144c-.055.1.1.3.222.32-.006-.095.1-.193 0-.23-.026.01-.085-.005-.076.055zm-1.7 1.43c-.043.043-.028.107-.047.157a2.27 2.27 0 0 0 .787-.236 3.07 3.07 0 0 1 .534-.257c.176-.094.016-.3.1-.5l.2.017c-.02-.15.3-.4-.024-.4-.027 0 .087.146-.007.212l-.08-.06c-.023.068-.05.135-.083.2l-.066-.125c-.3.107.188.405-.194.6l-.155-.2c-.182.123-.254.262-.493.2 0 0 .044.117.06.056.07.017.123.075.134.147-.278.323-.008-.153-.272-.163-.136.152-.32.252-.52.284-.2.036-.4-.022-.464-.14.12.187-.182.277-.284.226-.032-.1.085-.13.127-.194-.05-.044-.08-.12-.15-.1a.3.3 0 0 1-.233.356.31.31 0 0 0 .213.085c.07 0 .153-.016.283-.03a4.2 4.2 0 0 1 .646-.133z"/><path d="M69.826 15.412c.036-.002.068-.025.08-.06-.062.006-.125.008-.187.006z"/><use xlink:href="#C" y="0.001"/><path d="M53.827 18.722l-.07-.14-.14.078z"/><path d="M53.7 17.845l-.23-.13c-.2.42-.254.193-.185.7.148.047.477.148.568-.006-.086-.056-.3-.035-.38-.177.134-.048.24.073.4 0-.08-.265-.184-.026-.332-.253zm-.524.1c.066-.03.127-.074.18-.125-.07.04-.224.022-.18.125z"/><path d="M53.033 17.877c-.1-.123.114-.116.12-.146l-.33.08zm-.463-.475l-.067-.042c-.02.05.025.042.067.042z"/><path d="M52.366 17.144c-.06.1.038.16.137.216l.01-.02c.02-.12.228-.165.262-.047.115.056-.014.2.17.2l-.02-.246c-.13-.093-.44-.045-.557-.104zm.204.26a.4.4 0 0 1 .067.055c-.001-.05-.032-.055-.067-.055zm.22.253l.1.027.045-.076zm-.568-1.05c.138.017.135.1.138.2s.013.194.12.173a.25.25 0 0 1 .274-.326.83.83 0 0 1-.086-.154.4.4 0 0 0-.447.107zm.738-.248c-.016-.01-.028-.025-.034-.043.004.02.017.034.034.043zm.256-.968a2.5 2.5 0 0 0-.216.539c-.035-.088-.1-.142-.05-.233-.183.1-.062.25-.166.353-.254-.1.155-.238-.08-.3-.063.058-.1.14-.102.226a.31.31 0 0 0 .094.23c-.08.032-.154.073-.224.122a2.64 2.64 0 0 1 .29.014c.1-.026-.163-.206.036-.163.07.014.12.073.126.143-.015-.116.286-.088.346-.18.184-.186-.12-.512-.054-.74z"/><path d="M53.428 15.62l.1.063-.113-.1zm.242-.668l-.115.32c-.05-.01-.098-.032-.14-.063.05.044.058.18.1.214.265.116.226-.286.32-.42.393-.167.07.12.347.208-.094.067-.136.022-.27.108.376.068.458-.337.54-.494-.053.01-.112-.045-.167.03l.078-.17c-.26-.052-.4-.002-.693.266z"/><path d="M53.265 15.278c.073-.083.115-.093.146-.07-.062-.036-.122-.053-.146.07zm1.253-.512c-.024 0-.043.022-.064.06.022-.007.044-.018.064-.06zm-.318-.134l.176-.106-.138-.044c-.015.027-.08.104-.038.15z"/><path d="M60.966 14.586c.01-.105-.046-.176-.2-.2.056-.128.244-.045.357-.094-.175-.145.048-.156.035-.3-.22-.08-.367.066-.6-.04.026-.045.032-.1.017-.15a1.99 1.99 0 0 1-1.077-.215 1.93 1.93 0 0 0-.786-.152c-.477-.175-.982-.294-1.492-.427a1.66 1.66 0 0 0-1.441.178l.048.308c-.125-.072-.2.163-.287.006.068-.01.094-.068.148-.116-.33-.04-.47.4-.742.5.055.018.237.173.2.258-.17-.25-.255.2-.534-.008-.272.1.156.213-.1.357.087.158.272-.108.4-.036.018.17-.244.118-.118.255a2.45 2.45 0 0 0 .653-.678l.346-.466.176-.225a.82.82 0 0 1 .16-.159 1.62 1.62 0 0 0 .03.174.53.53 0 0 1 .431-.213c.174 0 .33.104.4.263-.025-.17.5.227.54-.135.067.1.1.1.216.164l.065-.1c.18.053.1.214.313.26-.094-.186.068-.2.164-.3l.6.657a.36.36 0 0 0-.06-.2c.128.094.143-.056.2-.095.14.033.07.222.037.317.236.133.453-.2.606-.022l-.022-.173c.27.04.443.273.744.305.08.25-.288.112-.432.167.046.06.166.1.186.2a5.27 5.27 0 0 1 .582-.212c-.225.206.144.3.238.345zm-.83-.128a.72.72 0 0 0-.107.06c.033-.01.07-.006.1.01a.1.1 0 0 0 .007-.07z"/><path d="M60.967 14.586v.026c.03-.005.024-.014 0-.026zm-1.5-1.024c.01.01.022.017.033.024l.046.02zm-.412.635c-.05-.082-.108-.158-.173-.23.005.076.01.136.173.23zm-1.706-.674c-.06.012-.043.067-.095.107.1.038.16-.002.095-.107zm3.1 1.067l.232.017.092-.018zm4.66.5c-.14-.24-.455-.2-.682-.318-.465-.033-.173.383-.593.283l.182-.355c-.42-.1-.985-.35-1.432-.124-.017-.055-.074-.133.05-.155-.28-.067-.3.493-.63.26.4-.133-.048-.256.114-.46l.06-.01-.735-.073c-.034.1.058.283-.152.233.078.044.013.143-.022.238.244-.044.34.056.508-.033.082.162-.093.018-.01.177l.2-.066c.118.067-.167.088.022.173a.36.36 0 0 1 .376-.038l-.057.03c.132-.015.28.1.284-.13l.078.25.017-.15c.306.15.327.527.795.472-.086-.072.028-.122.1-.133-.145-.15-.246.044-.416.015.017-.15.346-.238.172-.382.17.234.42.1.4.483.258.1.408-.044.652.117l-.023.05c.12-.22.186.17.456-.012l-.126-.095c.035-.094.105-.077.206-.066-.022.034-.022.034 0 .1.08-.16.4-.1.444-.138-.118-.067-.316.027-.478.027.104-.075.123-.224.24-.158zm-2.908-.182l.1-.057c-.043.003-.083.024-.1.057zm4.014.832c.157.088-.1.132.046.254.207-.067-.123-.3.1-.427.073.133.294.006.365.023a.43.43 0 0 0-.114.37c.084-.044.2.1.3.15-.23-.22.255-.016.056-.24a.27.27 0 0 1 .418-.017c-.037.094-.115.05-.185.033-.112.166.142.15.13.327.337-.177 1.162.086 1.05-.4-.065-.1-.17-.028-.272-.04.245.16-.065.215-.1.282-.1-.1-.333-.03-.243-.16l.23-.1c-.668-.268-1.36-.47-2.067-.6l.3.094c-.067.1-.208.067-.33.088l.062.3c-.078-.044-.17-.028-.135-.122-.137.083-.1.166-.077.277-.23-.017-.236-.133-.456-.006.295.327.36-.093.716.222z"/><path d="M65.37 15.663l.128-.1-.153.028zm.316-.553c-.014.06-.075.07-.088.13.157.1.16.001.088-.13zm1.856 1.187l.232.018-.125-.094c-.015.06-.075.07-.107.076zm1.74-.24c-.3-.066-.477.02-.776-.222-.22.125-.023.352-.143.5.156.1.227-.212.42-.215.018.172.267.046.423.133-.005-.07.024-.14.077-.186z"/><path d="M70.128 16.96c.1.038.278-.01.313.116-.072.07-.142.065-.186.01-.083.213.126.03.116.223.01-.023 0-.08.06-.1a.33.33 0 0 0 .206.144c.057.022.137.072.143.286.08.035.088.1.233.057a.48.48 0 0 1-.158.217 1.5 1.5 0 0 0-.178.2l.485-.066c-.327.45-.05.5-.3.77 0-.035-.043-.085 0-.162-.265-.008 0 .262-.083.42l-.216-.06c.006.16.1.46-.1.615l-.1-.07c.1.434-.12.86-.13 1.214l-.186.135c.024.5.212-.426.43 0-.4-.07.055.274-.183.485-.195.07 0-.287-.22-.2.183.12.016.156.028.3-.18-.092-.12.275-.306.12l.183.6c-.133.04-.165.183-.177.293.1-.255.252.176.446-.083a6.38 6.38 0 0 1 .5-1.7c-.245-.134.1-.348-.1-.493.087.01.172-.01.26 0 .04-.366-.167.043-.24-.068.007-.067.042-.128.096-.167a.24.24 0 0 1 .19-.04c.063-.253-.067-.048-.186-.213l.324-.1.1-1.378a1.87 1.87 0 0 0-.465-1.437l-.07.188c-.284-.384-.723.1-.952-.416l-.168.117c.094-.067.015-.3.157-.38-.127.028-.22-.077-.35-.056l.173.147a.2.2 0 0 1-.316-.181c-.352.088.08.366.1.537.508-.205.347.463.737.436.195-.037.05-.17.083-.262zm-.353-.652c-.027.004-.053.014-.076.03.027-.005.052-.015.076-.03zm.033 6.192a.7.7 0 0 0-.033.118c.03.056.022-.018.033-.118zm-.603-6.256z"/><path d="M68.87 16.623l.1.04.006-.088zm.264 6.927l.1.04c-.024-.025-.057-.04-.1-.04zm-1.542 2.887l.04-.058a.08.08 0 0 0-.041.058z"/><path d="M62.438 26.77a1.51 1.51 0 0 0-.671-.271l.082-.06c-.118-.047-.5-.2-.45.1l.1-.02c.3.09.026.256.135.452.218.15.585-.008.685.217.08.064 0 .123-.077.155.143.182.4.044.548.13-.487.573.644.358.546.935.2.1.352.36.65.45-.237.03.172.195-.02.3.18-.134.276.06.455.22s.4.253.5-.006c.165.124.18.107.19.1s.028-.014.26.05c0 .062-.08.063-.113.072.212.116.26-.242.457-.03.384-.082.026-.16.158-.37.33-.11.28 0 .6.026-.144-.213.08-.293.09-.515-.034.022-.238.184-.207-.008.3-.3.08-.362.25-.7.348.02-.222.308.162.178-.04.276-.17.412-.092.65a2.51 2.51 0 0 0 .546-.972c.145-.146.055.163.166.045.312-.235.05-.626.312-.8l.1.13c-.075-.25.372-.52.44-.866-.085 0-.143 0-.164-.065.324.19.06-.5.445-.656-.22-.09-.193-.43-.123-.618.08-.016.163.004.227.055-.277.225.083.4.057.685-.006-.25.276-.51.2-.76l.133.15c.16-.262-.258-.422.036-.63l.11.087c.257-.578.777-1.18.676-1.77-.088-.08-.428.058-.515.037-.02.313.1.55.094.8l-.2-.087c.116.106.082.4.25.3.022.217-.23.053-.208.3-.2-.108-.166-.236-.335-.314l.024.215c-.055-.09-.115.07-.17-.017.1.426-.3.388-.347.758l.123-.16c.11.057.05.153.043.246-.2.008-.2.07-.357.2.014.183.174.368.068.555-.186-.154-.283.25-.477.187.183.155-.13.4-.03.493-.017.123-.12.245-.227.178a.72.72 0 0 1 .009-.094l-.065.093c-.017-.023-.037-.03-.034-.044-.057.084.09.174-.077.224-.052-.033-.015-.093-.007-.155-.172.208.052.59-.247.67.07.1-.09.362.157.444-.122.022-.27-.114-.367.092.1.228-.21.16-.2.377-.042-.315-.048-.04-.1-.322-.158.068-.066.42-.266.605-.056-.012-.1-.052-.16-.063.004.067.004.133 0 .2-.006.033-.024.063-.05.085-.02.015-.048.015-.094 0l.12.09c-.146.065-.293.23-.493.137a1.18 1.18 0 0 1-.078.328.45.45 0 0 0-.437-.066l-.5.184c-.105-.063-.215-.21-.172-.26l.152-.017c-.122-.088-.124-.335-.368-.242-.174-.072.026-.205-.038-.324-.483-.014-.555-.907-.99-.624.127.194.27.377.428.547-.095-.008-.126.1-.2.038-.2-.178-.176-.41-.43-.546l.253-.2c-.103-.572-.95-.328-.883-.92z"/><path d="M64.9 29.117a1.04 1.04 0 0 1-.072-.214l-.052.13a.13.13 0 0 1 .124.084zm-.122-.083a.57.57 0 0 0-.119.007.12.12 0 0 0 .105.026zm-2.95-2.782a.31.31 0 0 0-.153-.154c.013.067.087.157.153.154z"/><path d="M61.604 26.158l.036.106.037-.016zm-4.357-3.876l-.366-.083c.03-.1-.312-.277-.1-.32-.3.034-.436-.418-.562-.068a21.01 21.01 0 0 0 2.518 2.163l-.22-.026c.6.2.344.75 1.042.7l-.236.153c.13.235.63.065.62.46l.06-.1c.05.05.036.105.087.157l.015-.056a.47.47 0 0 1 .364.328c-.052.07-.088-.034-.146-.058 0 .123.234.093.336.2.028.133-.1.087-.126.1.395.218.332.56.84.486.074-.032.017-.177.156-.092-.113-.3-.393-.34-.657-.445l.05.05c-.428.136-.05-.174-.408-.285.176-.053.28.05.382.03-.06-.484-.556-.22-.463-.676l.028.012c-.014-.067-.14-.085-.226-.12-.015.055.027.133.042.2-.088-.035-.243.057-.317.1.053-.193-.154-.03-.2-.2.074-.154.2-.014.3-.035l-.213-.053c-.13-.113 0-.245 0-.367-.192-.014 0 .122-.208.164.01-.273-.6-.788-.975-.94.1.075.154-.092.25.038-.07-.1-.205-.125-.307-.06a1.08 1.08 0 0 1-.538-.643l-.038.14c-.292.006-.26-.473-.6-.638v.007c-.1-.062-.385.085-.493-.1.152-.066.225.024.318-.092zm-1.107-.684l.2-.042c-.065-.118-.336-.07-.394.03.087.034.116.17.2.1.008-.03.052-.072-.006-.096z"/><path d="M54.395 19.926c-.06 0-.1.05-.146.072.38.343.88.736.93.976.088.157.292-.008.49.1l-.052.194c.16 0 .283.4.394.1.007-.028-.168.025-.2-.082l.08-.06-.19-.137.14-.038c-.1-.348-.418.113-.613-.24l.176-.178c-.175-.192-.328-.22-.386-.5 0 0-.088.088-.022.083.018.073-.016.148-.082.184-.415-.133.147-.066.023-.33-.357-.11-.9-.452-.9-.726.007.218-.27.17-.393.03 0-.123.145-.066.218-.1-.043-.08-.05-.175-.138-.21-.014.178-.2.26-.4.18.204.42.772.33 1.07.67z"/><path d="M54.155 19.985c.026.022.064.028.095.013l-.13-.12z"/><use xlink:href="#D" y="0.001"/><path d="M17.975 29.074v-.12l-.152.038z"/><path d="M18.256 28.385l-.136-.134c-.355.284-.3.1-.463.5.105.06.34.2.483.086-.048-.056-.246-.075-.243-.194.134-.015.17.094.343.068.05-.213-.145-.05-.17-.243zm-.5-.001a.92.92 0 0 0 .207-.065c-.076.018-.2-.02-.207.065z"/><path d="M17.678 28.304c-.033-.1.148-.068.165-.1h-.313zm-.182-.44a.32.32 0 0 0-.047-.038c-.034.036.008.033.047.038zm-.126-.2c-.073.083.006.113.08.162l.014-.014c.05-.094.26-.12.255 0 .086.08-.1.156.06.186l.095-.186c-.092-.15-.402-.118-.503-.148zm.125.2c.016.014.03.032.038.05.02-.043-.007-.043-.038-.05z"/><path d="M17.573 28.1l.063.036.072-.05zm-.373-.78c.265-.08.08.27.292.2-.073-.135.068-.326.222-.354l-.142-.12c-.118-.01-.285.13-.372.263zm.533-.56c-.02 0-.04-.006-.057-.018a.07.07 0 0 0 .057.018z"/><path d="M17.024 26.12l.377.284c-.1-.006-.174.034-.23-.04.017.174.19.14.212.278-.23.127-.1-.228-.292-.077a.32.32 0 0 0 .335.23l-.108.21.246-.153c.053-.087-.255-.04-.083-.147.06-.044.144-.035.193.022-.09-.075.113-.328.022-.5s-.5-.01-.67-.11z"/><path d="M17.322 26.03l.1-.052-.14.054zm-.452-.33l.214.16a.46.46 0 0 1-.121.077c.062-.022.183 0 .233-.017.227-.143-.13-.2-.195-.3.07-.3.138-.01.36-.154.006.073-.056.086-.054.2.253-.208-.033-.354-.115-.457-.023.033-.1.05-.07.1l-.1-.1c-.088.048-.153.13-.182.225a.37.37 0 0 0 .032.287z"/><path d="M16.952 26.062c-.037-.068-.025-.1.01-.115-.063.03-.105.072-.01.115zm.228-.922c-.015.013-.008.032.012.056.01-.014.01-.03-.012-.056zm-.292.14l.015-.14-.116.065c.014.02.04.1.1.076z"/><path d="M20.236 22.284c-.024-.1-.078-.142-.175-.1-.01-.137.124-.142.18-.224-.15-.07-.018-.165-.07-.293-.167.017-.207.21-.383.2-.002-.05-.02-.1-.05-.142-.2.117-.48.362-.715.32-.187.046-.35.157-.464.313-.633.37-1.167.886-1.555 1.507q.1.1.195.213c-.142-.028-.07.15-.222.064.043-.025.033-.07.053-.114-.3.05-.14.4-.253.552.053-.014.29.007.32.06-.305-.05-.01.16-.36.215-.077.2.263 0 .225.2.178.01.075-.2.21-.23.143.045-.054.174.13.154.014-.072.01-.146-.008-.216-.03-.084-.052-.17-.066-.257a1.6 1.6 0 0 1 .048-.73l.116.126c.014-.256.26-.6.585-.526-.14-.08.29-.17.03-.414.1.024.107 0 .193-.025l-.053-.1c.1-.075.19.076.3-.016-.16-.07-.11-.17-.143-.3.223.036.443.088.66.154a.42.42 0 0 0-.145-.125c.112.01.03-.116.03-.175.084-.048.16.14.2.23.17-.007.1-.4.264-.32l-.1-.137c.166-.088.358.02.537-.074.14.192-.113.214-.156.337.05.032.127.02.168.082a2.2 2.2 0 0 1 .234-.419c-.047.264.186.208.25.208z"/><path d="M19.755 22.5l-.026.1c.012-.018.024-.038.05-.036-.004-.023-.012-.045-.025-.064zm.48-.204l.007.025c.02-.017.012-.023-.007-.025zm-1.24-.243a.15.15 0 0 0 .03 0l.034-.01zm.16.724a1.01 1.01 0 0 0-.2-.1.2.2 0 0 0 .2.1zm-1.005.45c0 .045.042.066.06.12.05-.044.034-.1-.06-.12zm1.808-.723l.126-.073.043-.052z"/><path d="M23.07 21.973c-.08-.22-.324-.168-.485-.255-.34.01-.143.387-.44.337l.138-.373c-.3-.022-.747-.2-1.034.137-.018-.05-.07-.1.015-.162-.208 0-.137.55-.385.406.247-.228-.076-.236-.008-.475l.04-.025c-.178.012-.4.172-.514.157 0 .1.1.25-.033.27.06.016.046.13.05.232.134-.12.216-.056.3-.194.083.127-.053.047.03.17.036-.043.074-.084.115-.122.086.036-.088.126.043.162a.2.2 0 0 1 .233-.129l-.033.043c.083-.048.193.023.17-.2l.077.222v-.15c.224.07.246.456.555.315-.06-.055.017-.123.06-.144-.1-.122-.168.084-.28.085 0-.15.23-.3.1-.4.125.2.3.03.3.4.173.06.284-.086.446.046l-.02.052c.1-.226.115.148.324-.054l-.082-.08c.034-.094.083-.084.156-.082-.02.035-.02.035-.013.087.074-.165.3-.124.34-.165-.08-.058-.237.044-.355.06.084-.078.113-.224.196-.172zm-2.03.263l.062-.08c-.03.018-.053.047-.062.08z"/><path d="M23.83 22.534c.11.074-.075.136.018.245.158-.083-.073-.284.1-.426.046.124.216-.02.266-.01-.07.11-.106.242-.1.374.065-.05.14.1.22.118-.16-.194.19-.04.05-.242.05-.132.258-.183.307-.06-.03.1-.086.06-.137.052-.088.175.1.13.087.307.254-.207.852-.056.772-.5-.046-.094-.122-.005-.2 0 .175.127-.048.22-.083.3-.068-.086-.242.012-.175-.13l.168-.124a7.05 7.05 0 0 0-1.471-.378l.2.07c-.056.1-.156.082-.248.112l.022.3c-.055-.037-.124-.015-.1-.1-.083.065-.115.177-.08.276-.173 0-.165-.113-.34.023.2.3.277-.113.522.17z"/><path d="M23.215 22.5l.105-.116-.117.037zm.282-.56c-.015.06-.06.075-.076.134.107.077.118-.01.076-.134zm1.3 1l.17-.01-.1-.077c-.008.042-.04.075-.08.087zm1.265-.474c-.222-.014-.343.1-.558-.1-.16.154-.016.35-.1.5.115.066.165-.24.3-.274.016.166.194 0 .308.063a.31.31 0 0 1 .05-.189z"/><path d="M26.715 23.22c.1.02.23-.093.307-.012-.02.1-.1.13-.152.1.02.23.124-.022.236.135-.01-.025-.052-.066-.015-.113.3.074.186-.2.457-.016.056-.05.1-.033.14-.176.1.245.027.206.093.44.048-.074.1-.28.2-.442.083.2.135.25.2.287.084.032.128.125.1.2-.02-.014-.075-.007-.088-.064-.192.18.137.1.142.232l-.206.087c.065.044.258.18.1.3l-.113-.01a.35.35 0 0 1 .1.32c-.015.12-.056.2-.08.33l-.183.05c-.012.383.228-.26.4.123-.378-.168.034.22-.2.3-.187 0 .017-.214-.194-.217.164.14 0 .12.01.24-.164-.116-.125.177-.292.012l.152.5c-.126 0-.16.1-.17.18.094-.17.234.2.42.042a2.64 2.64 0 0 1 .544-1.142c-.225-.152.112-.27-.1-.393.088.01.167-.008.255-.005-.02-.3-.156.047-.246-.044-.017-.1.146-.194.246-.185.01-.2-.074-.026-.226-.117a1.9 1.9 0 0 0 .283-.167c-.118-.363-.368-.668-.7-.854a2.1 2.1 0 0 0-.516-.214c-.18-.055-.37-.06-.516-.113l.038.2c-.272-.117-.574.364-.76-.093l-.13.134c.07-.076.023-.285.13-.4-.045.017-.096.014-.138-.01-.04-.016-.087-.016-.128 0l.107.092.027.026-.04.03c-.114.082-.2-.026-.2-.157-.253.143.067.344.1.508.016-.015.024-.03.036-.04.3-.162.2.447.548.363.232-.087.013-.182.042-.28zm-.28-.578c-.02.01-.038.023-.053.04.02-.01.038-.023.053-.04z"/><path d="M27.655 26.032a.36.36 0 0 0-.031.083c.027.048.02-.014.03-.083zM26 22.66zm-.234.42l.08.022v-.087zm1.26 3.6l.086.05c-.024-.024-.053-.04-.086-.05zm-1.172 2.065l.03-.043c-.018.007-.03.024-.03.043z"/><path d="M23.367 33.814a3.09 3.09 0 0 0-.16.5l-.042-.09c-.026.084-.25.344 0 .43l.01-.1c.132-.234.227.067.436 0 .178-.2-.027-.543.142-.627.033-.072.113-.01.162.05.134-.17-.112-.337-.087-.46.684.3.056-.54.593-.534.02-.164.173-.313.134-.555.117.18.1-.156.268-.02-.36-.25.437-.406-.032-.69.26-.163-.027-.027.23-.237.055.03.03.075.03.1.157-.055-.12-.274.15-.246.15-.2-.112-.106-.174-.3.177-.2.2-.1.476-.115-.22-.143-.037-.22-.1-.392-.025.02-.153.15-.187 0 .177-.242-.04-.29.03-.57.32.012-.123.25.193.14.036.22-.04.33.1.512.14-.23.22-.492.235-.76.1-.108.086.13.16.042.233-.165-.074-.485.134-.605l.11.108c-.115-.2.25-.377.266-.638-.08-.01-.134-.015-.163-.067.328.182-.016-.383.327-.464-.176-.1-.253-.312-.18-.5a.36.36 0 0 1 .218.074c-.235.14.12.324.128.54-.035-.2.2-.36.1-.562l.14.135c.125-.176-.282-.367-.02-.48l.1.085c.2-.408.66-.758.562-1.226-.084-.082-.4-.05-.483-.083a4.39 4.39 0 0 0 .107.636l-.187-.1c.11.1.094.32.246.28.033.17-.213 0-.178.194-.19-.118-.168-.21-.33-.3l.033.17c-.056-.078-.1.036-.16-.042.12.35-.257.256-.272.543l.1-.108c.11.06.06.127.06.2-.187-.022-.185.026-.315.106.033.148.2.31.125.446-.193-.142-.234.164-.423.095.192.14-.067.3.043.387 0 .1-.072.184-.183.123a.42.42 0 0 1-.006-.074l-.046.07c-.02-.02-.04-.027-.04-.038-.04.062.11.144-.036.172-.055-.03-.03-.075-.032-.123-.128.154.153.472-.112.513.083.08-.015.285.23.36-.107.012-.272-.1-.32.06.14.183-.155.126-.094.3-.118-.252-.055-.03-.172-.258-.13.058.042.34-.085.493-.053-.006-.11-.037-.163-.042.03.1.145.254-.043.233l.137.063c-.13.08-.176.267-.39.315l.173.28c-.372.056-.274.448-.128.724-.05.066-.154.15-.2.12l-.05-.127c-.066.1-.28.156-.1.326.006.143-.188 0-.265.068.177.374-.566.537-.15.84.05-.09.232-.214.3-.4.03.074.138.085.114.154-.072.183-.286.185-.3.4l-.277-.17c-.442.113.104.802-.432.716z"/><path d="M24.548 31.665l-.212.05.13.05c-.005-.05.03-.094.08-.1zm-.08.1a.31.31 0 0 0 .02.1.1.1 0 0 0 .014-.09zm-1.447 2.39c-.048-.005-.095.015-.125.052.047.025.123.005.125-.052z"/><path d="M22.92 34.306l.083.022-.006-.04zm-3.153-2.182l-.294-.074c.06-.1-.2-.235 0-.264-.27.02-.25-.355-.468-.073.475.494.864 1.374 1.586 1.806l-.184-.017c.46.156.114.626.735.545l-.24.14c.03.1.162.1.274.128.124.05.26.1.278.288l.042-.106c.052.036.047.092.1.127v-.057a.45.45 0 0 1 .406.151c-.012.087-.086.014-.142.018.048.113.23-.027.346-.01.088.1-.018.124-.04.158a3.64 3.64 0 0 1 .486 0c.13-.01.25-.066.308-.3 0-.078-.123-.106-.024-.176-.23-.058-.34.122-.564.227h.058c-.2.384-.12-.085-.4.023.114-.135.217-.115.27-.2-.052-.114-.184-.167-.3-.12-.092.016-.2.01-.162-.2h.022c-.01-.048-.1-.022-.17-.028-.018.05.016.107.03.16-.073 0-.2.118-.273.157.044-.187-.168-.022-.2-.194.1-.14.178-.008.278-.042a1.22 1.22 0 0 1-.18-.036c-.086-.1.06-.207.1-.3-.16 0-.03.1-.218.147.07-.23-.322-.634-.6-.753.075.06.158-.08.206.025 0-.055-.15-.116-.25-.042-.2-.106-.303-.3-.294-.526l-.07.115c-.256.007-.095-.4-.345-.527v.006c-.07-.052-.36.066-.4-.1.162-.047.2.027.316-.067zm-.76-.587l.192-.028c-.02-.1-.27-.07-.352.01.065.03.048.143.138.1.014-.03.066-.06.022-.08z"/><path d="M18.042 30.08c-.052-.008-.1.033-.152.046.2.308.515.656.48.854.024.134.257.01.393.11l-.108.156c.14.01.124.33.313.1.015-.022-.154.014-.152-.075l.09-.045-.12-.12.133-.024c.025-.286-.4.072-.455-.227l.212-.133c-.088-.165-.212-.2-.17-.418 0 0-.106.065-.047.065.005.034-.058.122-.133.143-.316-.136.15-.043.132-.263-.273-.112-.633-.432-.527-.65-.073.174-.3.11-.353-.014.046-.1.15-.038.226-.057-.008-.068.02-.143-.043-.18a.3.3 0 0 1-.414.1c.03.354.556.342.695.63z"/><path d="M17.812 30.107c.02.02.05.028.078.018l-.07-.107z"/><use xlink:href="#E"/><path d="M24.6 35.677l.116-.107-.115-.112z"/><path d="M25.4 35.305l.06-.256c-.46-.073-.257-.2-.72.02 0 .156-.006.5.167.542.03-.1-.054-.305.062-.412.084.115 0 .25.1.392.23-.15-.027-.183.148-.4zm-.254-.47a.72.72 0 0 0 .17.137c-.057-.056-.084-.2-.17-.137z"/><path d="M25.176 34.676c.088-.135.144.077.173.074l-.17-.293zm.322-.584c0-.027.01-.052.01-.078-.053.002-.028.038-.01.078z"/><path d="M25.623 33.788c-.12.012-.106.112-.113.226h.02c.118-.043.256.127.14.233-.03.16-.2.054-.147.235l.23-.088c.1-.23-.105-.5-.133-.606zm-.123.305c-.006.03-.016.057-.03.083.048-.018.042-.05.03-.083zm-.176.287v.093l.086.022zm.544-1.082c.228.162-.2.33-.04.468.037-.086.1-.152.2-.18a.31.31 0 0 1 .266.038l.037-.25c-.055-.12-.288-.126-.463-.077zm.832-.088c-.013-.02-.018-.046-.016-.07-.005.025 0 .05.016.07zm.16-1.283l-.016.62c-.055-.087-.14-.1-.1-.236-.15.2-.008.3-.13.476-.258-.066.153-.324-.107-.33-.106.16-.1.364-.013.528l-.264.12.3.064c.116-.044-.1-.267.093-.226.12.03.1.123.093.194.02-.156.386-.25.494-.532.124-.3-.3-.433-.33-.68z"/><path d="M27.145 32.054l.116.02-.145-.047zm-.04-.7l.02.34c-.05.01-.103.01-.153 0 .064.02.125.14.178.156.3 0 .1-.352.13-.5.3-.3.113.08.4.053-.06.1-.116.074-.208.206.374-.087.3-.5.3-.665-.045.03-.12 0-.142.092v-.187c-.252.054-.37.16-.525.515z"/><path d="M26.863 31.803c.034-.1.07-.13.106-.122-.073-.007-.135-.001-.106.122zm.95-.963c-.023.008-.032.037-.035.08.025-.02.038-.05.035-.08zm-.346.004l.12-.167-.145.014c-.005.03-.032.128.025.153z"/><path d="M31.506 24.2c-.1-.035-.18.005-.24.152-.112-.084.01-.25-.013-.37-.18.138-.14-.083-.283-.1-.124.2-.017.374-.17.573a.2.2 0 0 0-.142-.05 2.05 2.05 0 0 1-.442 1.007 1.92 1.92 0 0 0-.31.74c-.543.86-.918 1.86-1.548 2.757l.165.264c-.144-.017-.122.23-.263.12.058-.036.06-.1.1-.164-.32.093-.276.554-.483.76.058-.005.286.066.284.16-.255-.162-.15.293-.495.2-.2.207.227.133.047.367.142.1.208-.206.352-.2.083.148-.18.2-.008.28.278-.64.5-1.304.633-1.986l.1.146a1.4 1.4 0 0 1 .719-1.031c-.172-.015.33-.433-.012-.56.115-.04.117-.073.206-.174l-.083-.086c.092-.164.23-.053.322-.248-.2.05-.17-.1-.25-.227.268-.134.537-.314.764-.438a.35.35 0 0 0-.205.015c.118-.1-.023-.154-.05-.214.06-.13.23-.02.314.034.178-.2-.1-.5.105-.6l-.172-.017c.095-.257.36-.37.458-.66.26-.02.046.307.068.46.07-.03.142-.137.226-.138a5.24 5.24 0 0 1-.078-.618c.146.257.32-.082.383-.164zm-.306.772c.008.04.02.08.034.118a.13.13 0 0 1 .032-.1.1.1 0 0 0-.066-.018z"/><path d="M31.506 24.2l.025.007c.002-.033-.008-.028-.025-.007zm-1.318 1.225a.38.38 0 0 0 .031-.028l.03-.04zm.526.548a1.25 1.25 0 0 0-.257.12c.075.012.134.02.257-.12zm-1.02 1.523c0 .063.056.057.083.117.06-.1.033-.16-.083-.117zm1.702-2.8l.068-.223v-.094z"/><path d="M34.674 22.588c-.222-.165-.5-.016-.752-.026-.44.15-.008.42-.434.493l.028-.4c-.422.073-1.052.06-1.356.448-.035-.042-.124-.083-.025-.16-.284.088.01.556-.286.554.057-.17.028-.214-.05-.242s-.183-.028-.2-.156l.038-.053a1.91 1.91 0 0 0-.445.592c.085.056.27.053.19.2.052-.048.133.04.217.095-.01-.185.1-.2.087-.362.152.048-.017.068.13.116a.92.92 0 0 1 .03-.168c.09-.02-.006.157.12.115-.01-.05.002-.102.033-.144s.076-.068.127-.074l-.018.052c.065-.078.2-.03.126-.238.043.066.1.132.164.2l-.043-.144c.34.02.508.357.917.123-.108-.032-.023-.123.03-.157-.192-.08-.21.136-.376.176-.043-.145.224-.354.007-.418.25.15.426-.072.567.284.277-.01.358-.2.646-.148v.056c.023-.25.24.084.414-.19l-.153-.038c0-.1.067-.112.163-.14-.007.04-.007.04.03.084.01-.18.32-.244.353-.3-.134-.015-.28.15-.428.212.056-.11.016-.256.15-.242z"/><path d="M32.073 23.57l.027-.1c-.023.028-.033.064-.027.1zm3.877-.816c.174.02-.016.154.13.218.057-.066.023-.128-.028-.194s-.118-.137-.04-.24c.107.093.274-.086.358-.075-.094.094-.07.333-.056.384.065-.06.156.08.225.12-.157-.217.213-.01.077-.236.058-.136.367-.1.4.063-.067.075-.12.01-.18-.02-.14.137.085.173-.006.33.158-.05.375.1.52.258s.268.326.456.144c.056-.13-.073-.2-.135-.3.034.337-.2.074-.285.1.015-.144-.217-.234-.067-.285a1.35 1.35 0 0 1 .246.092 1.37 1.37 0 0 0-.889-.785 1.52 1.52 0 0 0-.652-.05l-.544.1.3-.026c-.022.12-.164.142-.268.2l.18.26c-.1-.01-.168.04-.173-.06-.093.13-.036.2.04.285-.22.075-.27-.03-.42.173.4.185.294-.227.746-.076z"/><path d="M35.148 23l.074-.152-.13.086zm.072-.63c.012.06-.04.095-.03.155.18.02.15-.06.03-.155zm1.705.857a.85.85 0 0 1 .134.105c-.003-.042-.01-.083-.017-.124-.033.026-.077.033-.117.02zm.94 1.277c-.012-.158-.05-.27-.067-.4-.016-.154.002-.3.05-.455-.206-.177-.332.126-.508.056-.032.147.273.14.332.322-.16.066.03.27-.008.444.066-.024.14-.016.2.022z"/><path d="M37.244 25.58c0 .144.12.3.044.4-.043-.006-.08-.03-.1-.068s-.024-.082-.008-.122c-.226.052.034.16-.116.314.024-.013.063-.07.112-.025-.055.387.185.22.054.722.062.074.06.146.2.135-.2.283-.2.14-.356.48a1.94 1.94 0 0 1 .476-.119c-.265.483.035.5-.163.8-.01-.034-.058-.077-.032-.16-.263.038.047.26-.006.43l-.223-.018c.034.16.18.436.016.634l-.112-.046a6.69 6.69 0 0 1 .172 1.229l-.14.185c.17.48.08-.474.413-.122-.413.05.133.247-.032.518-.165.127-.085-.275-.273-.134.2.06.06.145.12.3-.2-.032-.028.3-.253.212l.368.5a.3.3 0 0 0-.067.337c0-.274.3.076.4-.23a5.07 5.07 0 0 1-.052-1.757c-.274-.063 0-.36-.22-.45.087-.012.164-.055.25-.067-.057-.36-.15.084-.25 0-.01-.067.008-.136.052-.187s.1-.082.177-.082c.015-.258-.075-.03-.222-.163l.3-.166a9.74 9.74 0 0 1-.115-2.8l-.188.067c.1-.414-.417-.7-.006-1.066l-.16-.13c.1.07.283-.068.4.043-.063-.114.01-.234-.046-.352l-.093.206a.2.2 0 0 1 .084-.354c-.184-.313-.328.18-.486.247.34.443-.348.436-.207.858.108.268.177-.018.277-.001zm.522-.534c-.012-.024-.03-.047-.05-.065a.24.24 0 0 0 .049.065zm-.416 6.924a.74.74 0 0 0 .011.123c.047.042.014-.025-.01-.123zm.316-7.5z"/><path d="M37.207 24.266l-.008.116.086-.02zM37.1 33.2h.1c-.032-.013-.068-.013-.1 0zm-.062 3.333l.005-.07c-.013.022-.014.048-.005.07z"/><path d="M34.084 41.106a1.65 1.65 0 0 0-.711.124l.04-.093c-.123.02-.53.083-.336.313l.08-.07c.3-.077.157.207.356.32.267.012.494-.32.7-.184.1.01.067.106.022.172.227.075.37-.19.532-.2-.05.756.73-.093 1.02.4.182-.028.608.044.842-.213-.09.24.278-.1.308.11-.058-.215.152-.277.338-.42s.322-.344.087-.488c.152-.14.14-.158.133-.17s-.007-.03.1-.244c.06.01.047.09.05.124.156-.182-.19-.31.06-.445.037-.345-.15-.057-.3-.26.06-.36.137-.26.36-.46-.262-.03-.137-.246-.274-.42-.012.043-.06.288-.162.13.038-.418-.175-.332-.25-.722.287-.2.013.4.237.045.137.246.125.432.337.563.012-.373-.043-.746-.162-1.1.037-.2.138.1.162-.057.124-.36-.3-.55-.175-.836l.15.06c-.2-.174.045-.634-.064-.965-.075.042-.125.07-.175.027.375 0-.193-.462.072-.79-.237.027-.37-.29-.393-.493.064-.052.147-.072.228-.056-.143.33.256.32.366.58-.123-.217.006-.576-.166-.765l.186.074c.028-.3-.42-.263-.24-.58l.136.03c-.016-.634.23-1.38-.075-1.888-.112-.044-.377.21-.466.224.115.245.246.482.392.7h-.214c.147.053.233.33.348.177.11.188-.188.142-.067.36-.224-.017-.247-.147-.434-.15l.11.188c-.086-.06-.076.114-.163.057.27.35-.107.49.014.85l.04-.2c.124 0 .11.117.147.2-.176.1-.152.157-.23.344.1.16.32.248.32.464-.237-.046-.13.36-.33.4.236.044.083.418.22.448.048.116.022.275-.1.274a.82.82 0 0 1-.04-.087l-.008.116c-.028-.01-.048-.007-.052-.02-.006.1.166.1.048.236-.062 0-.06-.073-.086-.13-.042.274.358.48.147.707.11.044.124.36.374.3-.088.086-.287.056-.25.287.212.13-.075.26.062.432-.224-.232-.062 0-.276-.2-.086.158.2.4.164.664-.05.027-.113.027-.163.057.075.1.25.216.074.317l.15-.014c-.075.187-.025.446-.187.648l.286.23a.47.47 0 0 0-.148.426l.086.528c-.082.092-.248.172-.287.12l.01-.154c-.12.1-.337.057-.3.3-.117.135-.172-.1-.277-.105-.04.092-.13.152-.23.153a.98.98 0 0 1-.317-.06c-.22-.056-.408-.1-.5.15a3.32 3.32 0 0 0 .68.146c-.078.057-.024.163-.14.163-.263 0-.4-.2-.68-.15l.073-.318c-.41-.377-.963.3-1.23-.24z"/><path d="M37.106 40.842c-.073.018-.148.03-.224.03l.118.076a.13.13 0 0 1 .106-.107zM37 40.95c-.01.038-.014.078-.015.117a.12.12 0 0 0 .046-.1zm-3.7.03c-.06-.042-.134-.06-.208-.055.05.06.134.082.208.055z"/><path d="M33.056 41.02l.084.074.023-.033zm-5.54-1.825l-.378.023c0-.115-.383-.183-.2-.277-.283.112-.537-.3-.57.075a12 12 0 0 0 3.128 1.292l-.215.056c.628-.028.627.573 1.246.235l-.152.236c.223.164.6-.2.77.158l.01-.115c.07.023.08.08.15.1l-.012-.057a.49.49 0 0 1 .479.131c-.013.087-.1.01-.158.015.057.1.254-.024.392.02.088.107-.037.12-.063.15.455.007.575.34.98.023.048-.065-.074-.164.088-.157-.244-.2-.5-.1-.792-.07l.07.02c-.312.323-.128-.13-.5-.063.132-.128.27-.084.35-.15-.278-.4-.6.06-.718-.392h.03c-.042-.053-.16-.015-.255-.007.01.056.083.107.126.162-.094.007-.193.158-.246.22-.038-.2-.152.038-.274-.1 0-.172.174-.1.258-.16l-.215.042c-.167-.048-.1-.223-.152-.335-.178.066.05.112-.12.234-.107-.252-.863-.48-1.273-.5.13.03.1-.142.246-.057a.23.23 0 0 0-.309.058 1.06 1.06 0 0 1-.733-.42l.01.143c-.278.1-.4-.363-.783-.416l.006.006c-.116-.03-.345.194-.5.04.13-.096.227-.032.285-.175zm-1.266-.37l.188-.085c-.1-.1-.34-.006-.375.107.093.018.152.15.217.073-.001-.03.03-.08-.03-.095zm-2.098-1.695c-.066-.042-.116 0-.173-.01.085.182.196.35.33.5a2.33 2.33 0 0 0 .42.355 1.23 1.23 0 0 1 .434.39c.12.143.292-.056.5.017l-.01.2c.16-.026.366.342.408.024 0-.03-.158.057-.217-.044l.066-.075-.214-.1.13-.063c-.17-.328-.4.187-.658-.133l.143-.205c-.213-.164-.365-.152-.48-.428 0 0-.08.1-.008.086.036.07.017.154-.046.2-.516-.162.148-.06-.043-.358a1.13 1.13 0 0 1-.594-.56.68.68 0 0 1-.017-.682c-.153.2-.328-.12-.238-.4.118-.1.12.122.2.17.048-.1.132-.177.137-.295-.173.1-.347-.05-.276-.385-.208.273-.267.632-.158.957.105.286.228.565.366.837zm-.272-.095c.033.064.066.084.1.1-.038-.08-.07-.165-.094-.25-.005.052-.008.107-.006.162z"/><use xlink:href="#F"/><path d="M39.247 40.858l.052-.22-.154-.068z"/><path d="M39.8 39.813l-.067-.377c-.442.22-.315-.072-.627.52.07.206.228.66.4.6-.02-.148-.2-.364-.138-.585.128.094.115.33.282.44.134-.356-.1-.222-.05-.614zm-.446-.443a.47.47 0 0 0 .215.062c-.076-.037-.17-.216-.215-.062z"/><path d="M39.298 39.14c.014-.238.163 0 .187-.022l-.287-.268zm.017-.987l-.026-.1c-.05.04-.01.07.026.1z"/><path d="M39.28 37.667c-.1.1-.042.22 0 .375l.02-.015c.083-.137.287-.01.232.2.044.23-.157.2-.023.408l.163-.274c-.023-.36-.3-.564-.4-.704zm.033.486a.72.72 0 0 1 .012.129.1.1 0 0 0-.012-.129zm-.023.497l.043.123.086-.03zm-.02-1.794c.277.056-.032.58.183.642-.01-.32.194-.576.346-.507l-.084-.354c-.102-.117-.313.034-.445.22zm.705-.7a.17.17 0 0 1-.047-.081c.01.035.025.067.047.08z"/><path d="M39.507 34.373l.275.827c-.088-.077-.176-.046-.206-.234-.04.366.138.413.108.715-.26.092-.016-.532-.248-.358a.89.89 0 0 0 .234.7l-.178.338.285-.115c.082-.138-.22-.276-.023-.36.122-.043.144.094.172.19-.056-.218.224-.6.2-1.04-.027-.465-.474-.352-.61-.663z"/><path d="M39.82 34.342l.1-.055-.15.038zm-.366-.902l.176.43c-.036.044-.084.08-.137.1.066-.016.176.1.23.08.257-.2-.08-.527-.123-.758.12-.6.137.028.38-.208-.007.17-.068.177-.087.413.3-.373.028-.842-.042-1.083-.026.07-.105.087-.083.22l-.083-.25a1.31 1.31 0 0 0-.231 1.054z"/><path d="M39.453 34.2c-.018-.16 0-.22.038-.234-.07.042-.12.096-.038.234zm.392-1.92c-.015.042-.012.088.006.13a.2.2 0 0 0-.006-.13zm-.305.243l.03-.3-.122.118c.013.037.03.2.093.182z"/><path d="M40.357 21.613c-.075-.068-.18-.06-.26.086-.106-.1.065-.26.113-.386-.258.1-.1-.13-.236-.192-.275.232-.215.462-.363.754-.044-.035-.105-.038-.153-.01a4.37 4.37 0 0 0 .053.822 2.4 2.4 0 0 1-.045.807 4.2 4.2 0 0 0 .052 1.183l-.1 4.685.27.23c-.135.077 0 .385-.177.338a.7.7 0 0 0 0-.279c-.24.344.015.917-.073 1.332.05-.047.284-.113.325.012-.3-.035 0 .5-.344.6-.088.415.263.018.213.45.177.047.088-.414.222-.5.143.137-.064.4.123.373a21.91 21.91 0 0 0-.366-3.04l.166.113a2.96 2.96 0 0 1 .156-1.85c-.158.1.1-.8-.27-.723a.76.76 0 0 0 .1-.372l-.114-.055c.005-.278.177-.23.173-.55-.158.205-.2-.025-.327-.12l.5-1.1a.37.37 0 0 0-.177.161c.06-.22-.1-.185-.14-.245 0-.213.2-.186.3-.173.07-.388-.3-.572-.175-.86l-.16.1c-.007-.193.013-.386.058-.574a3.16 3.16 0 0 0 .064-.557c.127-.06.152.023.173.118a.65.65 0 0 1 .016.077l.018.118a.75.75 0 0 0 .049.195c.048-.084.063-.3.137-.326a.77.77 0 0 1-.2-.559c.144.246.322-.07.414-.1zm-.21.653c.032.032.06.1.084.118-.012-.032-.028-.108-.014-.123-.023-.005-.048-.003-.07.005z"/><path d="M40.357 21.613l.02.016c.01-.027.001-.028-.02-.016zm-.907 1.937c.007-.017.01-.038.015-.057l.007-.074zm.72.346a2.31 2.31 0 0 0-.177.335c.072-.035.128-.063.177-.335zm-.22 2.706c.028.084.076.036.128.095.007-.17-.044-.23-.128-.095zm.292-4.568a.69.69 0 0 1 .038-.178.58.58 0 0 1 .005-.08c-.03.083-.043.17-.043.258zm5.378-3.087c-.35-.043-.694.247-1.042.35-.584.336.074.42-.518.67l-.034-.406a5.04 5.04 0 0 0-1.878.957c-.06-.03-.185-.052-.044-.157-.4.143-.042.6-.63.645.44-.388-.235-.17-.164-.446l.07-.05-.987.44c.04.1.236.177.014.287.1-.025.107.1.145.192.043-.085.193-.133.286-.174a.66.66 0 0 0 .27-.178c.215.075-.1.077.107.15l.222-.193c.2-.028-.157.185.146.122.012-.083.225-.236.46-.292l-.052.064c.16-.1.427-.124.275-.3l.274.14-.083-.13c.494-.1.8.172 1.344-.223-.16.01-.054-.112.015-.167-.3 0-.277.218-.513.322-.084-.127.266-.438-.057-.42.38.053.6-.237.862.058.394-.127.476-.338.9-.434l.01.056c-.024-.256.363-.04.54-.4l-.224.044c-.032-.095.064-.144.2-.223 0 .043 0 .043.065.066-.033-.18.375-.4.4-.482-.188.06-.34.3-.532.436.07-.15-.026-.27.162-.324z"/><path d="M41.9 21.048l.1-.12a.22.22 0 0 0-.1.121zm5.513-2.665c.25-.088.01.167.263.122.177-.235-.388-.078-.247-.363.193.018.332-.27.424-.323-.053.15.12.322.185.342.057-.106.3-.114.466-.193-.442.08.268-.25-.144-.2-.02-.068.04-.174.134-.258.088-.083.2-.118.33-.094.01.1-.1.112-.2.155 0 .2.263.01.344.184a.9.9 0 0 1 .815-.162c.3.052.562.185.545-.12-.08-.17-.264-.164-.426-.216.382.3-.1.2-.152.263-.14-.143-.467-.05-.377-.2a1.53 1.53 0 0 1 .332-.088c-.262-.107-.548-.14-.828-.1a2.2 2.2 0 0 0-.818.339l-1.413.828.4-.2c.008.126-.176.232-.3.357l.326.146c-.125.043-.218.137-.254.043-.087.178.01.2.14.25-.28.2-.38.126-.53.4.6-.05.34-.385 1.007-.507z"/><path d="M46.4 19.088l.057-.188-.154.156zm-.1-.65c.034.052-.027.114.006.166.256-.08.185-.143-.006-.166zm2.923-.696a1.09 1.09 0 0 1 .26-.01 1.17 1.17 0 0 0-.16-.087c-.004.065-.07.082-.1.097zm2.157.653c-.36-.3-.594-.344-.88-.8-.313-.044-.147.335-.34.38.162.2.35-.04.6.1-.035.185.312.25.476.454.018-.07.082-.122.156-.123z"/><path d="M52.13 19.942c.152.15.4.206.464.38-.086.055-.2-.006-.278-.114-.1.22.2.137.256.408 0-.032-.032-.12.05-.1.374.44.36.092.8.706.12.03.2.106.286-.015.17.432.02.282.268.758.046-.077.067-.338.2-.47.33.692.55.486.742.95a.41.41 0 0 1-.192-.142c-.14.23.308.234.454.45l-.173.143c.193.14.587.32.684.643l-.126.033a14.4 14.4 0 0 1 1.422 1.144l.1.292c.625.372-.448-.547.157-.425-.233.35.355.16.528.557.02.25-.35-.223-.332.058.212-.088.2.106.392.213-.173.1.3.332.05.4l.8.263c.007.165.177.3.312.4-.288-.286.288-.133.027-.518a11.08 11.08 0 0 1-1.905-1.78c-.256.133-.38-.375-.63-.307.047-.076.055-.175.1-.25-.424-.332-.015.2-.178.176-.193-.14-.213-.4-.13-.444-.264-.278-.084.023-.326-.007l.03-.4c-1.106-.834-2.127-1.774-3.05-2.807l-.057.207c-.37-.506-1.035-.4-1.152-1.08l-.247-.012c.138 0 .116-.278.322-.26-.167-.07-.247-.245-.413-.32l.163.277c-.102-.006-.196-.055-.26-.136s-.088-.184-.07-.284c-.463-.18-.024.425-.06.6.708.193.238.7.8 1.018.357.183.095-.157.18-.214zm-.226-.925a.35.35 0 0 0-.1-.03c.032.014.065.024.1.03z"/><path d="M58.992 26.46a1.57 1.57 0 0 0 .138.119c.077.01-.017-.036-.138-.12zm-7.768-7.94h.006zm-.54.124l.12.122.037-.083zm9.444 9.256l.07-.07c-.035.008-.062.034-.07.07zm3.3 3.444a.43.43 0 0 0-.028-.069c.001.026.01.05.028.07z"/><path d="M55.295 38.5a3 3 0 0 0-.761.683l-.022-.1c-.13.124-.577.495-.173.51l.043-.115c.307-.313.338.018.658-.067.33-.215.364-.638.7-.724.128-.08.154.02.15.105.317-.14.3-.454.488-.6.457.618.808-.7 1.486-.552.324-.22.625-.47.9-.747-.077.278.33-.2.372.02-.156-.427 1.087-.513.817-1.01.533-.21 0-.043.583-.326.037.05-.05.115-.077.15.273-.065.168-.42.5-.35.423-.293-.024-.173.116-.48.452-.287.383-.134.757-.148-.132-.23.2-.336.3-.612-.056.034-.362.232-.25 0 .486-.377.252-.454.6-.9.4.006-.4.4.117.217-.167.35-.38.526-.387.814a5.05 5.05 0 0 0 1.066-1.246c.232-.19-.006.205.175.05.202-.13.337-.343.372-.58.007-.2.04-.4.1-.593a1.67 1.67 0 0 1 .133.113c-.052-.22-.085-.446-.1-.673a1.07 1.07 0 0 0-.435-.717c-.01.1-.015.16-.1.15.272-.258-.622-.348-.778-.878-.14.194-.57-.045-.8-.24-.028-.12.058-.174.1-.218.245.446.517.154.87.35-.316-.14-.6-.608-.92-.684l.2-.055c-.3-.336-.576.024-.784-.43l.13-.065c-.685-.644-1.3-1.6-2.06-1.9-.126.034-.04.487-.088.564.335.17.68.32 1.03.455l-.153.15c.16-.05.516.177.433-.065.277.117.018.28.334.42-.176.14-.33.024-.464.154l.277.118c-.123 0 .068.172-.055.174.56.17.444.578.91.87l-.184-.238c.1-.087.2.042.32.108-.02.227.057.27.2.52.236.1.488.033.713.26-.216.12.284.467.185.65.107-.06.232.036.346.138s.16.174.23.157c.124.085.176.285.05.32-.01-.016-.047-.04-.07-.07.014.037.026.075.034.114-.03 0-.048.007-.056 0 .022.09.194.068.1.22-.065 0-.065-.067-.1-.114.03.128.08.252.14.37.047.13.04.286-.116.343.036.05.008.15-.02.255s-.05.218.075.268c-.15.03-.266-.134-.47.133.017.287-.318.216-.4.49.087-.4-.04-.046.02-.4-.22.1-.265.54-.588.78-.063-.01-.1-.058-.17-.067-.06.153-.074.4-.3.356l.112.1c-.262.115-.526.394-.855.452l-.087.44c-.555.04-.873.63-1.025 1.054-.147.087-.387.19-.422.138l.092-.2c-.21.134-.55.174-.533.45-.17.208-.246-.03-.426.042-.252.565-1.41.6-1.288 1.112a5.96 5.96 0 0 0 .916-.462c-.058.1.066.15-.055.24-.33.245-.616.177-.923.46l-.12-.3c-.744.072-.944 1.027-1.638.88z"/><path d="M59.7 35.8l-.335.035.107.1c.055-.073.137-.122.228-.135zm-.228.13a.8.8 0 0 0-.1.152c.054-.03.098-.074.13-.127zm-5.202 3.13c-.106.022-.205.066-.292.13.112.001.218-.046.292-.13z"/><path d="M54 39.3l.157-.014v-.043zm-8.162 2.793c-.145.1-.293.18-.44.27-.1-.087-.616.1-.467-.086-.25.28-.9.125-.626.432a20.01 20.01 0 0 0 4.846-1.175l-.22.2c.746-.467 1.206-.04 1.7-.744v.287c.4-.04.575-.615 1.054-.473l-.077-.092c.1-.035.158 0 .26-.038l-.058-.033a1.07 1.07 0 0 1 .678-.282c.05.074-.108.083-.18.137.15.036.288-.22.5-.3.187.008.045.116.037.16.56-.344.94-.22 1.2-.772.01-.086-.2-.06-.01-.186a2 2 0 0 0-1.006.593l.1-.04c-.137.48-.252 0-.65.345.064-.2.263-.276.3-.388-.64-.076-.673.525-1.166.28l.036-.024c-.092-.007-.208.112-.317.188a.89.89 0 0 0 .277.023c-.1.077-.114.264-.13.348-.2-.116-.156.146-.407.14-.13-.126.137-.206.2-.317l-.228.2c-.24.094-.295-.082-.443-.128-.167.182.15.046.035.263a4.22 4.22 0 0 0-1.934.575c.182-.072.02-.186.255-.22-.092-.014-.36.145-.33.266a2.15 2.15 0 0 1-1.229.207l.13.1c-.254.277-.785.013-1.3.227h.012c-.165.056-.26.388-.588.376.06-.156.23-.182.2-.32zM44 42.63l.155-.192c-.2-.018-.412.23-.36.337.125-.05.307.007.32-.094-.024-.023-.03-.084-.113-.05zm-3.77.096c-.1.01-.1.08-.157.112a2.06 2.06 0 0 0 .418.088 2.8 2.8 0 0 0 .373.008h.6c.288-.02.577.004.86.066.268.04.3-.223.627-.306l.163.164c.168-.127.722.006.505-.26-.023-.023-.14.15-.3.116l.015-.1-.344.067.1-.133c-.484-.143-.308.4-.906.3v-.25a1.89 1.89 0 0 1-.931-.071s0 .124.06.075c.066.014.15.114.1.2-.6.187.092-.147-.318-.256a2.83 2.83 0 0 1-.458.1 1.5 1.5 0 0 1-.639-.08c-.338-.092-.606-.35-.7-.684.026.162-.05.2-.176.117a.86.86 0 0 1-.329-.452c.024-.2.18.072.276.086a3.32 3.32 0 0 0-.091-.461c-.078.237-.33.174-.44-.3a1.45 1.45 0 0 0 .53 1.28 3.27 3.27 0 0 0 1.18.576z"/><path d="M39.883 42.83a.22.22 0 0 0 .179.008 1.97 1.97 0 0 1-.355-.152l.176.144z"/><path d="M21.997 72.358a1.42 1.42 0 0 1 .402 2.168 2.18 2.18 0 0 1-.577.601c-.18.1-.344.207-.5.344-.065.098-.08.153-.1.573a2.05 2.05 0 0 1-.335.947c-.2.454-.623.782-1.113.882s-1-.037-1.37-.372l-.757-.504a1.12 1.12 0 0 1-.315-1.745l2.65-3.978c.07-.105.2-.273.377-.16s.072.328.012.42l-2.56 3.835c-.435.652-.26.984.237 1.315l.592.394a1.15 1.15 0 0 0 1.832-.328 1.13 1.13 0 0 0-.176-1.674l-.894-.595c-.072-.048-.26-.216-.146-.398s.35-.058.416-.015l.958.64c.462.307.895.25 1.325-.394a1.01 1.01 0 0 0-.253-1.542l-.873-.58c-.13-.086-.282-.264-.177-.42.12-.18.337-.068.452.01zm3.973 2.522a.4.4 0 0 1 .502-.088c.173.07.27.254.232.436l-.7 6.043a.6.6 0 0 1-.043.169c-.05.114-.182.167-.296.118-.113-.064-.167-.197-.133-.322l.657-5.555c.014-.1-.02-.18-.067-.202-.085-.04-.156.026-.207.072l-4.003 3.918c-.125.12-.242.168-.367.103a.2.2 0 0 1-.071-.293.61.61 0 0 1 .124-.16zm-.878 3.87c.242.117.204.297.172.362-.038.063-.1.107-.17.124a.27.27 0 0 1-.208-.036l-.937-.45c-.095-.046-.265-.188-.18-.366.07-.147.238-.155.387-.085zm4.63-2.235c.04-.13.138-.315.328-.257.132.043.2.202.126.4l-1.794 5.577c-.037.1-.136.305-.325.246s-.172-.255-.13-.393zm3.148.902c.08-.056.178-.076.272-.054a.2.2 0 0 1 .123.267c-.026.1-.087.165-.168.2l-2.264 1.35a.67.67 0 0 0-.37 1.035l1.115 2.846a.47.47 0 0 1 .018.28.19.19 0 0 1-.245.138.39.39 0 0 1-.228-.253l-1.1-2.9a1.4 1.4 0 0 1-.104-.865 1.29 1.29 0 0 1 .667-.684zm5.346 1.063c.137.025.304.12.27.306-.026.143-.164.217-.36.18l-1.66-.3c-.7-.13-.943.043-1.08.777l-.62 3.3c-.15.805.026.984.733 1.113l1.643.3c.145.027.322.116.3.293s-.232.213-.378.185l-1.805-.34c-.792-.15-1.17-.485-.98-1.494l.68-3.626c.175-.93.64-1.2 1.46-1.037zm-.856 2.68c.213.04.35.157.32.307-.032.168-.226.215-.413.178l-1.397-.263c-.136-.025-.338-.127-.302-.313.04-.213.258-.2.394-.173zM40.467 79c.01-.144.068-.347.258-.333.156.01.23.18.217.368l-.187 2.593c-.03.422.096.467.4.488l1.132.082c.907.065 1.245-.416 1.3-1.304.087-1.22-.6-1.432-1.106-1.468l-.83-.06c-.1-.007-.36-.062-.345-.268.017-.234.277-.233.38-.225l.846.06c1.4.1 1.63 1.12 1.56 2.088-.084 1.176-.64 1.677-1.502 1.697-.217.002-.3.042-.295.114a.23.23 0 0 0 .061.13l1.268 1.914a.51.51 0 0 1 .109.297c.002.053-.018.105-.055.143s-.1.06-.142.058c-.124-.026-.232-.102-.298-.2l-1.44-2.153c-.18-.266-.286-.372-.57-.392-.406-.03-.536-.04-.56.302l-.14 1.94c-.013.188-.12.334-.267.324-.113-.01-.226-.126-.208-.358zm4.953.408a.52.52 0 0 1-.068-.233.2.2 0 0 1 .196-.218c.125.012.235.1.3.203l1.615 2.877a.61.61 0 0 1 .073.252.2.2 0 0 1-.197.228c-.148.001-.253-.168-.3-.23zm4.526-.32c.046-.105.144-.178.257-.192.06.001.118.027.16.073s.06.106.052.167c.001.066-.016.132-.05.2l-2.13 3.8c-.13.194-.2.427-.172.66l.017 1.315c.003.207-.1.344-.23.344-.165.002-.236-.186-.238-.336l-.018-1.416a1.43 1.43 0 0 1 .231-.848zm7.546 4.53a.94.94 0 0 0 .723-.446c.156-.256.183-.57.07-.847-.14-.625-.476-1.137-1.27-.96l-.634.14c-.428.092-.875-.01-1.22-.28a1.48 1.48 0 0 1-.566-1.117c-.24-1.08.1-1.775 1.114-2l1.47-.328c.195-.043.362.03.393.17.037.166-.133.278-.285.313l-1.403.313c-.473.105-1.055.365-.823 1.4.07.307.282 1.25 1.268 1.034l.643-.144c.373-.1.766-.03 1.094.17a1.64 1.64 0 0 1 .697 1.17 1.36 1.36 0 0 1-1.132 1.885l-1.63.364c-.118.027-.343.012-.38-.172-.047-.2.167-.287.277-.3zm1.793-6.184c-.055-.143-.1-.332.096-.403.162-.062.3.093.34.237l2.092 5.47c.045.117.08.326-.098.4-.113.044-.257-.018-.337-.227zm3.695 1.295c.113-.044.35-.104.423.1.058.15-.07.293-.254.368l-1.625.622c-.138.052-.354.068-.422-.1s.095-.3.25-.345zm-.123-2.67c-.055-.143-.078-.326.098-.4s.298.098.346.224l2.093 5.472c.038.1.1.332-.096.403-.146.056-.285-.064-.35-.233zm3.617-2.098a1.58 1.58 0 0 1 1.341-.201 4.34 4.34 0 0 1 1.828 1.873 4.89 4.89 0 0 1 .795 2.665 1.53 1.53 0 0 1-.84 1.094l-.776.44c-.98.556-2.022.246-3.176-1.8-1.333-2.35-.67-3.233.107-3.672zm-.448.824c-.5.278-1.228.8.033 3.024.94 1.66 1.758 1.994 2.52 1.566l.73-.414a1.01 1.01 0 0 0 .654-1.062 5.47 5.47 0 0 0-.701-1.973c-1.253-2.208-2.118-1.77-2.563-1.516zm4.846-3.83c.37-.333.868-.48 1.358-.403a1.64 1.64 0 0 1 1.167.803 1.7 1.7 0 0 1-.229 2.602l-.874.685c-.26.204-.258.4-.05.67l1.098 1.404c.094.12.16.306.027.414-.114.1-.275.043-.402-.12l-3.6-4.6c-.1-.14-.2-.297-.043-.416.17-.134.347.037.414.122l1.598 2.042c.256.332.375.323.697.073l.894-.698a1.27 1.27 0 0 0 .066-1.909 1.18 1.18 0 0 0-1.874-.263l-.696.544c-.157.122-.32.112-.397.013a.28.28 0 0 1 .102-.39z" stroke="#fff" stroke-width=".5"/></g><g fill="#806342" stroke="#806342" stroke-width="6"><use xlink:href="#G"/><use xlink:href="#H"/><use xlink:href="#I"/><use xlink:href="#J"/><use xlink:href="#K"/><use xlink:href="#L"/></g><g class="B"><use xlink:href="#G" y="-0.001"/><use xlink:href="#H"/><use xlink:href="#I"/><use xlink:href="#J"/><use xlink:href="#K"/><use xlink:href="#L"/></g></g></svg>