<svg xmlns="http://www.w3.org/2000/svg" xmlns:xlink="http://www.w3.org/1999/xlink" width="107" height="107" viewBox="0 0 106.298 106.002"><style><![CDATA[.B{fill:#806342}.C{fill:#6c4f32}]]></style><g class="B"><path d="M55.164 7.23c.405.014.26-.254.32-.3-.682.072-.305.37-.32.3zM48.6 8.393l.1-.13-.912.438zM39.128 9.98c.26.1-.62.4.75-.235-.078.01-.1.006-.148.01l-.603.225zm.602-.226c.614-.256-.46.018 0 0zm-2.783 1.29l.732-.508c-.2-.022-.934.28-.7.1-.787.453-.57.47-.032.42zm-.597.655l.375-.257c-.094-.01-.2.025-.375.257z"/><path d="M37.532 10.916l-.8.524c.147.016.222.146.378-.227-.014.158.102-.038.433-.297zm.522-.156c.483-.115 1.1-.28.35.2 1.508-.676 1.16-.906-.35-.2zm4.386-.408l.644-.062.483-.3c-.24.142-1.208.23-1.127.362zm-10.398 3.086c.006.113.387.064.507.136l.494-.428c-.327.098-.885.393-1 .292z"/><path d="M32.55 13.574l-.72.66c.73-.445.82-.597.72-.66zm3.886-1.342c.4-.354.84-.652 1.264-.982l-1.53 1.123zm-7.46 3.286l.312-.506q-.3.42-.58.863zm-1.897 1.565c.188-.4-.63.123-.378-.25a6.98 6.98 0 0 0-1.1 1.415c.414-.48.916-.875 1.478-1.166zM25.12 19l.48-.75a4.27 4.27 0 0 0-.479.75zm5.328-3.894a1.2 1.2 0 0 0-.78.211l.47.005z"/><path d="M30.154 15.32h-.016l-.673.46z"/><path d="M30.526 15.052l-.078.054c.045.001.068-.004.078-.054zm3.594-1.874c-.4.415-1.325 1.132-.237.778.25-.362-.375-.157.237-.778zm-3.017 1.89l.88-.5c-.056-.05-.268-.04-.076-.256l-.805.756z"/><path d="M30.75 15.426l.353-.36-.32.2zm-4.15 2.58a9.69 9.69 0 0 1-.985 1.1l1.36-1.112c.004-.123.093-.406-.374.012zm1.704-1.33l-.067.073c.062-.02.104-.043.067-.073z"/></g><path d="M21.933 22.985l.095-.032-.023-.046z" class="C"/><g class="B"><path d="M27.072 17.968a1.93 1.93 0 0 0 .651-.7l-.76.72c-.001.054.01.08.108-.02zm-2.935 2.174l.645-.43c-.227.086-.642.32-.645.43zm3.94-3.364l.044-.05c-.154.043-.122.054-.044.05z"/><path d="M28.072 16.778c-.13.153-.247.318-.35.5l.514-.522c-.054.017-.1.027-.165.03zm-5.744 8.562c-.15-.2.323-1.26 1.18-1.794.47-.837-.56-.938-1.482-.592.07.1.13.15-.364 1.033.308-.206 1.667-1.476 1.3-.695-.75 1.07-.742.77-1.253 1.178.577-.226-.65 1.6-.084 1.65l.55-1c.07.032-.1.423.154.22zm.977-3.8l.262-.32a8.84 8.84 0 0 1-1.218.835c-.36.607-.38.775-.345.866l1.37-1.508z"/><path d="M24.857 19.872c-.048.414-.625 1.22 0 .993.824-.865.434-.75.865-1.34-1.36 1.392.3-.5-.832.36a11.48 11.48 0 0 1 .714-.784l-.823.6.045-.02.006-.007c.086-.034.12-.038.038.014a.21.21 0 0 1-.025.032c.015.044.018.1.01.136-.45.35-.116.01-.01-.136-.005-.014 0-.034-.012-.046h-.008l-1.26 1.515c.324-.26.658-.656 1.292-1.326zm8.46-4.88c-.062.01-.07-.007-.086-.022-.085.095-.112.145.086.022zm-.748.28a1.3 1.3 0 0 1 .53-.483c.374-.14.07.115.134.18.187-.2.7-.674-.093-.34l-.094.1a4.21 4.21 0 0 1-1.64.478 2.7 2.7 0 0 0 1.164.063zm-3.95 2.17l-1.143 1.135.772-.35-.124-.084c.74-.537.48-.54.495-.702zm-6.916 5.596l-.084-.354c-.107.325-.184.67-.273 1z"/></g><path d="M20.414 24.73l-.156-.216-.207.55zM76.16 85.847l.35-.286a3.31 3.31 0 0 0-.349.286zM73.3 87.37l-.015.15c.103-.13.135-.205.015-.15zm-55-13.433c.174.715.293 1.6.487 1.357l.117-.337a4.01 4.01 0 0 1-.604-1.02zm28.9 18.23l-.178-.12-.5.16.678-.042zm.682-1.06l.82.33a5.62 5.62 0 0 0-.82-.33zm40.82-17.403l.054-.587c-.454.667-.137.453-.054.587z" class="C"/><path d="M12.268 44.71c-.157.483-.276.976-.358 1.477.252-.71.566-1.254.358-1.477z" class="B"/><path d="M76.5 89.094c.23-.19.3-.3.272-.353-.238.192-.36.324-.272.353z" class="C"/><path d="M11.764 47.93c.036-.1.058-.208.1-.314a7.66 7.66 0 0 1 .055-1.43c-.215.555-.266 1.16-.145 1.744z" class="B"/><g class="C"><path d="M78.147 17.33c-.032-.036-.076-.07-.1-.106-.035.025.017.06.1.106zM61.262 7.962c.2.008.515.047.815.082a4.11 4.11 0 0 0-.815-.082zM15.867 32.005c.18-.416 0-.08 0 0zm1.983-1.433c-.015.1-.012.18.04.222a.3.3 0 0 1-.04-.222zm-4.4 21.802v.038c.05-.13.04-.1 0-.038zm2.853-20.92c-.12.153-.234.313-.338.48.06-.075.168-.22.338-.48zm-.166.022l.2-.34c-.006-.072-.056-.04-.2.34zm-.5 1.112a6.87 6.87 0 0 1 .329-.655c-.054.073-.084.1-.082.074zm80.77 12.92l.015-.094c-.174-.4-.132-.227-.015.094zM27.725 80.84c-.017-.01-.03-.013-.044-.023l.038.05z"/><path d="M28.992 81.688c-.522-.08-.985-.38-1.273-.82l-.18.944z"/></g><path d="M82.35 81.226l-.96.5c.688-1.142 1.452-1.627.486-1.252.232.366-.5 1.076-1.283 1.72a10.91 10.91 0 0 0-1.053.936c-.28.277-.435.53-.337.728l-.673.252c.167-.108.163-.17.328-.275-1.332.437-.46 1.1-2.01 1.953-.557.264-1 .354-.688.06l-1.07.866c-.355.178-.34 0 .008-.18l-1.806 1.02v-.03c-.306.34-.638.656-.993.944-.536.1.2-.2.036-.24l-.972.666c-.264-.02-.192-.166.036-.344a3.9 3.9 0 0 1 .97-.56c-.4-.18-.87-.094-1.176.22-.565.428-1.24.688-1.946.75l.964-.493c-.816-.2-1.54.237-2.773.323.3.067 2.544-.032 1.445.57a3.33 3.33 0 0 0-1.386.546c-.1-.3-.7-.046-1.487.2l-.054-.415c-.81.358-.7.514-1.164.823-.974.183-1.237-.082-1.515-.314-1.553.2 1.168.315-.653.72-.3.016-.618.05-.924.1l-.866.15-1.968.494c-.934-.073.14-.265-.2-.358l-.793.392c-.2.008-.142-.1-.112-.152-.683.165-.033.42-1.124.564-.142.226-.714.093-1.406-.075-.707-.236-1.465-.28-2.194-.123-.325-.143.175-.242.082-.4l-3.16.4-1.248-.46c.892.476-.364.625-1.5.73l.767.487-1.773-.127c-.193-.115.012-.213.33-.318l-.334.025c-.578-.3-.2-.45.278-.576l.556.4c.475-.17.916-.375.873-.63a2.22 2.22 0 0 1-.574.011c.122-.047.2-.1.16-.145s-.243.014-.537.05l-.28-.54-.13.158-2.08-.822-1.237.04c-.412 0-.837 0-1.292-.02a10.86 10.86 0 0 1-3.154-.612c.72-.047.342-.453.534-.807.34.344.792.556 1.274.6.617.113 1.224.27 1.818.472-.634-.262-.426-.393-.242-.4-.78-.11-1.54-.3-2.317-.46.172-.282-.37-.4-.863-.788.158.787-1.772-.313-2.7-.6.05-.22.355-.313 1.362.262-.905-1.023-1.84-.055-2.737-1.067.25.138.367.244.518.2-.43-.14-.834-.347-1.2-.612-.362-.257-.57-.507-.362-.482l.24.15-1.413-.935-1.6-1.05c-1.027-.684-1.94-1.208-2.22-1.094a2.5 2.5 0 0 1 .773-.368l-3.78-.89c.54-.138.5-1.732 1.816-.85-.392-.518-.865-.97-1.4-1.338.157.268.045 1.033-.28.762a14.42 14.42 0 0 0-.986-2.119c.224.413-.66.526-1.126-.05.16.014.516-.523.747-.375l-1.717-.925c.384.276.53-.325.446-.765 0 .117-.235-.2-.517-.567l-.74-1.024.3.72c-1.086-1.7-2.01-1.07-3.065-2.854.256.143 1.1.05.666-.885a7.5 7.5 0 0 1-3.666-2.56l.047-.415-.8-1.22 1.92 1.54 2.06 1.723c-.2-.75.124-.305-.41-1.3 0-.443.55.408.7.7l-1.028-2.4c-.174.143-.48-.267-.78-.688-.28-.428-.55-.87-.7-.755.472.846 1.032 1.643 1.55 2.446-.172.147-.62-.095-1.12-.606a5.84 5.84 0 0 1-1.337-2.207c-.015-.5.858.062.978-.03-.404-.522-.687-1.128-.828-1.773l.474.676c-.112-.46-.32-.894-.614-1.267-.3-.44-.447-.968-.42-1.5-.106-.424.22-1.383-.043-1.393-.327.793-1.78 1.334-2.254.94l-.023-1.345a7.81 7.81 0 0 1 .134-1.627c.257-.782 1.106.91 1.326.237-.12 0-.335-.367-.41-.523.02-.468.4.124.168-.842-.46-.1-.218-2.012-.43-.412a11.29 11.29 0 0 1-.178-2.178c-.246.4-1.07-.95-1.226-1.958.113.054.254-.176.318-.286l.02-1.378c.014-.418.072-.8.108-1.185l.242-2.443c.116-.167.323-1.056.477-.653a3 3 0 0 1-.1-1.114c.52-1.06-.1 1.284.46.494-.237-.1-.19-1.524-.175-2.36-.21.09-.336.56-.353 1.113s.02 1.186.05 1.6c-.272-.027-.5-.414-.67-1.056-.192-.838-.25-1.7-.176-2.557.174-1.61.487-.6.46-.9a7.93 7.93 0 0 0 .285-1.689 6.68 6.68 0 0 0 0-1.055c-.08-.807.11-1.62.544-2.305.65-.832.67.186.977.058a6.2 6.2 0 0 1-.561 1.486c-.198.38-.363.778-.49 1.187l.454-.994c-.018.585-.146 1.162-.377 1.7a4.65 4.65 0 0 0 .459-1.082l.272-.86.342-.973.367-1.036.427-1.02a12.1 12.1 0 0 1 .9-1.771c.06-.416.24-1.108-.023-.867l-.255.682c-.533.5.214-1.417-.286-.63a14.2 14.2 0 0 1 .432-1.564 7.93 7.93 0 0 1 .343-.844c.157-.295.335-.577.533-.846l.474-.028c-.114-.033-.66.67-.746 1.07.146-.59 1.5-1.583 1.42-2.372l-.75.686c.29-1.15.8-2.23 1.5-3.186-.65.24-.132.256-1.023.732.9-.338-1.756 2.705-.58 1.97-.906.522-1.008 1.237-1.957 2.095.133.028.416-.263-.124.65a1.16 1.16 0 0 1 0 .259l-.04.06.04-.045c0 .05 0 .055.015-.017a1.43 1.43 0 0 1 .423-.388 4.53 4.53 0 0 1-.362 1.338 11.33 11.33 0 0 0-.417 1.332c-.312.54-.03-.3-.3-.044l-.113.864c-.3-.038-1.058 1.364-.675-.073l-.5 1.235a6.95 6.95 0 0 0-.914 2.363c-.233.6-.124 1.617-.194 1.03l-.34 2.065h-.075a23.14 23.14 0 0 0-.45 3.148 16.39 16.39 0 0 1-.575 3.354l.017 1.11a11.74 11.74 0 0 1-.055 1.455l-.258.222c.064.887-.213 2.69.076 3.063a4.95 4.95 0 0 0-.1 2.753l.307 1.717a13.9 13.9 0 0 1 .259 1.436h.333a11.53 11.53 0 0 0 .393 1.582 16.78 16.78 0 0 0 .607 1.723l.257-.156a10.06 10.06 0 0 1 .607 2.034l.3 1.252a12.75 12.75 0 0 0 .445 1.273c-.148-.073-.29-.514-.347-.84a5.45 5.45 0 0 0 .416 1.626c.242.513.516 1.01.822 1.486l.885 1.4c.263.446.475.92.63 1.415a2.64 2.64 0 0 1 .59 1.032c-.02-.036-.045-.07-.074-.1l.1.176a6.6 6.6 0 0 0 .224.662c-.046-.193-.102-.383-.17-.57a11.3 11.3 0 0 0 .905 1.216l-.132.373.078.1c.2.53.363.29.4-.086.17.188.364.356.574.5-.145.65.966 1.1.925 1.9a6.49 6.49 0 0 1 1.189 1.082c.517.47 1.056.9 1.358.832-.042.062.04.208-.16-.015a4.16 4.16 0 0 0 1.231 1.3l-.1.465q.654.313 1.332.58c.422.736.58 1.08-.226.734l1.51.95c.428.294.884.544 1.362.748l-.227.148c.48.365 1.438.68 1.592 1.07a13.82 13.82 0 0 0 3.36 2.607l5.084 2.9c-.153-.487.174-.236.6.056s.944.623 1.113.375c.122.24.54.513-.04.45a20.22 20.22 0 0 1 2.027.736c.54.25 1.137.352 1.73.292.147.228-.438.148-.293.3.148 0 .587.005.737.158s-.29.074-.585.07a2.71 2.71 0 0 0 1.74.081 1.13 1.13 0 0 0 .588-.615 3.35 3.35 0 0 0 1.039.4c.32.03.645-.01.95-.118.277.222.77.49-.34.353a21.46 21.46 0 0 0 2.121.428c.882.12 1.7.18 1.752-.038a2.37 2.37 0 0 0 1.037.062c.962.114 1.93.162 2.9.143l-.38-.077c.546-.473 1.138-.11 2.245-.2l-.03.052c.6.114 1.216.112 1.815-.007a7.06 7.06 0 0 1 1.8-.039l-.172-.292c.077-.347.63-.318 1.35-.258.77.087 1.548.026 2.294-.178l-.55-.08a2.73 2.73 0 0 1 1.553.055c.527.168 1.08.246 1.632.23.185.006-.244.172-.475.27 2.16-.19.164-.466 1.654-.985.343.124-.2.65.837.37a7.27 7.27 0 0 0 1.755-.848c.735-.486 1.55-.837 2.408-1.038-.36-.023-.712-.05-.1-.465.99-.487 3.025-.725 3.653-1.7.146-.03.214-.02.24.015.334-.28.92-.655 1.426-1.075.42-.303.79-.668 1.1-1.08.32.124.72-.052 1.168-.345a8.85 8.85 0 0 0 1.364-1.158c.9-.853 1.626-1.7 1.942-1.326l1.906-1.815.02.12a5.2 5.2 0 0 0 1.7-2.337c.3-.247.187.027.2.087.632-.56 1.202-1.188 1.7-1.87.4-.636.745-1.316 1-2.028l.385.013c.19-.526 2.44-2.664 3.22-5.007.02.038.054.11.006.3a40.64 40.64 0 0 1 2-3.932c.658-1.264 1.05-2.42.653-3.067.112-.59.156-1.2.233-1.787-.712 2.176-.395-.467-.838.382.102-.444.278-.867.52-1.253.176-.292.32-.34.208.2l-.1.15c.517.557.88-2.7 1.246-2.57a46.37 46.37 0 0 0 .894-13.2l-.417.537-.152-1.472c.06-.4.3-.57.416.49.058-.636-.15-1.268-.574-1.746-.176-2.078.688.7.588.083l-.19-.854-.02.2a5.25 5.25 0 0 1-.766-1.931c-.09-.807.19-.47.137-.785.033-.006.024-.115-.1-.48l-.47-1.827-.154.828c-.4-.75-.47-1.69-.63-.744-.06-1.366-.4-2.704-1-3.933l-.953-2.127c-.215-.4-.402-.816-.557-1.244a16.54 16.54 0 0 1-1.044-1.439l-1-1.672c.124.338-.123.733-.73-.308.477-.046.277-.58-.1-1.22-.426-.604-.744-1.277-.94-1.99.11.475-.45-.2-.987-.8s-1.1-1.1-.863-.4c-.61-.813.208-.256-.146-.977-1.846-1.6-3.563-4.052-6.047-5.825-.106.062.18.51-.428.246-.292-.485-.62-.932-.944-1.4-.53-.293-.8.2-1.5-.708.077.163.19.407-.165.223a28.21 28.21 0 0 0-7.9-4.183l-8.628-2.837c.77.362.228.286-.384.187.4.122-.052.276 0 .443l-2.43-.73c-.502.173-1.04.2-1.562.108-.644-.05-1.268-.036-1.4.157l.79-.053c-.535.23-.175.5.28.81s1 .667.9.97a1.77 1.77 0 0 1 .98-.043c.387.1.767.22 1.14.362.837.362 1.758.483 2.66.348.377.2-.38.135-.192.314.697-.17 1.43-.082 2.07.245l-.13.038a16.58 16.58 0 0 1 1.877.509c.53.166 1.05.362 1.558.588l1.577.714s1.194.56 1.914.95l-.1-.38c.36.182.693.412.99.683.94-.086-1.8-.84-.914-1.005.265.316.597.57.97.74l1.533.83c1.062.577 2.06 1.2 2.14 1.667.907.587-.08-.474.83.116l.138.317.367-.06c.583.415.72.844.654.985-.185-.127-.378-.24-.58-.34a5.99 5.99 0 0 0 1.329 1.014 6.52 6.52 0 0 1 1 .7l-.744-.73c2.5 1.614 4.934 4.282 7.06 6.22l-.032-.26a5.81 5.81 0 0 1 1.294 1.535 15.08 15.08 0 0 0 1.223 1.791l-.08-.052a5 5 0 0 1 1.154 1.381c-.47-.42.338 1.137-.25.566a8.21 8.21 0 0 0 1.1 1.292c.345.192.66.432.938.713l-.05.452a3.29 3.29 0 0 1 1.15 1.44c-.6-.82-.014.858-.718-.038a7.05 7.05 0 0 0 .548 1.578l.593 1.154c.416.535.583 1.222.46 1.888 1.013.886-.363-2.2-.03-1.618 0-.293.205-.114.44.24a5.26 5.26 0 0 1 .552 1.286c.086.44.075.89-.034 1.325-.08.734-.025 1.477.162 2.192-.042-.2-.095-.2-.137-.394-.01.775.6 1.388.464 2.36.487.44.19 1.187.722 1.255l-.445-1.818c.16.507.43.98.665 1.553.268.682.387 1.414.35 2.146a4.11 4.11 0 0 1-.442-.972c-.093.526.24.964.12 1.51-.252-.053-.345-.61-.448-1.288l-.17-1.06c-.074-.326-.19-.64-.342-.937a3.36 3.36 0 0 0 .235 1.171c.1.382.14.633-.17.392.35.385.52.9.47 1.418a4.05 4.05 0 0 0 .307 1.871l-.314-.073c.13.337.208.692.23 1.052l-.416-.7c.364 1.1-.224 2.12-.088 3.164.026-1.1.115-1.222.235-1.187s.28.232.38-.24c.362 2.76-.782 1.563-.874 4.583 0-.4.3-1.522.4-.868a5.44 5.44 0 0 1-.517 1.653c-.19 2 .353-.265.432.61-.447.632 0 1-.036 1.912l-.308-.05c-.646 2.224.518.737-.174 2.734l-.222-.964-.143 1.083-.286-.3c-.02.907-.25 1.797-.67 2.6.3-.186.49.318.168 1.3-.415.6-.13-.465-.62.907a1.28 1.28 0 0 1 .321-1.29c-.076-.1-.082-.37-.156-.465a11.82 11.82 0 0 0-.883 2.227 2.52 2.52 0 0 1 .274-.5l-.187 1.055-.236 1.047c-.244.254-.22-.026-.2-.3a10.52 10.52 0 0 1-.382 1.307c-.157-.257-.4-.332-.148-1.18-.173.646-.4 1.27-.62 1.9-.156.07-.737.76-.7.487-.35.547-.628 1.138-.824 1.758a6.77 6.77 0 0 1-1.1 1.922 1.35 1.35 0 0 1-.2.515l-.647.78s-.462.483-.687.737-.443.524-.66.817a7.25 7.25 0 0 0-.639.97l-.95.384c-.8.99 1.29-.52-.058 1.142-.945 1.2-.664.14-1.128.42-.235.452-.503.886-.8 1.3-.404.525-.922.95-1.515 1.245a10.09 10.09 0 0 1 .903-.849zm-13.434 8.126c.273-.152.773-.552 1.043-.47-.196.465-.513.405-1.043.47zm-23.9 1.7c.34-.002.675.1.956.294a3.07 3.07 0 0 1-.961-.299zM14.243 36.69c-.001.013-.001.025 0 .038-.35.652-.225.42-.006-.043zm.65-1.384c.015-.157-.03-.164-.094-.12a1.87 1.87 0 0 1-.246.8c.107-.077.234-.238.334-.686zm82.714 5.23l-.013.306c-.243-.63-.123-.47.007-.31z" class="B"/><path d="M47.806 91.228a.28.28 0 0 1 .1.191c.13-.03.142-.1-.1-.2zM88.7 73.8l.03-.037c.001-.025-.006-.05-.02-.07z" class="C"/><path d="M15.256 57.986a1.74 1.74 0 0 1-.059.588c.078.001.118-.143.06-.588z" class="B"/><path d="M18.002 27.82l-.434.887c.133-.268.315-.508.538-.708-.074-.02-.265.083-.104-.18z" class="C"/><path d="M24.59 22.337c.067-.126.2-.214.264-.34l-.132-.073c-.4.437-.596.812-.132.412z" class="B"/><path d="M19.37 27.615c.27.084.492-.487.853-1.055a1.05 1.05 0 0 1-.069.1c-.193-.377-.513.28-.784.955zm.933-1.187a5.3 5.3 0 0 1 .355-.51c-.074-.15-.172.188-.355.5z" class="C"/><path d="M15.46 33.454c.2-.268-.224-.322-.05-.447-.17-.47-.514 2.14.05.447z" class="B"/><path d="M20.384 27.638l-.4.02.02.456zm-2.82 4.402l.563-.9c-.055-.012-.022-.146.032-.305-.308.575-.693 1.185-.595 1.205zm.594-1.208a3.96 3.96 0 0 0 .374-.77c-.142.248-.267.505-.374.77zm1.53-1.932l-.224.228-.4.634.615-.862z" class="C"/><path d="M13.845 42.8l-.112 1.157c.1.133.2-.164.243-.594-.028-.286.006-.717-.13-.563zm1.67-3.162a1.12 1.12 0 0 1-.375.417l.38.138zm-.682 3.232c.1.135.028 1.67.253.26-.098-.133.033-1.263-.253-.26zm-.326 17.055l-.07-.283-.636.178z" class="B"/><g class="C"><path d="M21.692 73.01c-.57-1.187-.517-.04-.98-1.15-.3-.18.38.91.1.71.57.585.713.984.88.44z"/><path d="M20.8 72.57l-.306-.29a2.09 2.09 0 0 0 .306.291z"/></g><path d="M57.987 7.3c-.3-.076-.6-.117-.9-.174l.578.237.322-.063zm-1.75.43l-.207-.426-.546.367a1.65 1.65 0 0 1 .753.059z" class="B"/><path d="M66.44 89.247l-.033.115c.154.07.344.025.725-.066zm10.407-4.307l-.17.1.5.124zm7.043-6.3l-.83.9c.566-.62 1.238-.647.83-.9z" class="C"/><path d="M26.914 89.422a1.74 1.74 0 0 1 .487 2.655 2.67 2.67 0 0 1-.709.735 2.58 2.58 0 0 0-.6.42c-.08.12-.1.188-.123.7a2.51 2.51 0 0 1-.404 1.155 1.93 1.93 0 0 1-3.04.625l-.923-.617a1.37 1.37 0 0 1-.388-2.132l3.245-4.87c.086-.128.258-.33.462-.196s.088.402.015.513l-3.13 4.696c-.532.8-.32 1.205.3 1.6l.724.482a1.41 1.41 0 0 0 2.242-.402c.263-.292.4-.682.35-1.073s-.247-.746-.566-.977l-1.095-.726c-.092-.06-.32-.265-.173-.487s.43-.07.508-.02l1.174.782c.565.376 1.096.306 1.62-.48a1.23 1.23 0 0 0-.31-1.887l-1.063-.715c-.16-.105-.345-.323-.216-.515.146-.22.415-.082.554.01zm4.864 3.1a.49.49 0 0 1 .615-.108.47.47 0 0 1 .283.54l-.858 7.4a.73.73 0 0 1-.052.206c-.06.14-.223.204-.364.144-.14-.08-.206-.242-.163-.395l.807-6.8c.018-.127-.024-.22-.08-.247-.105-.05-.2.03-.252.086l-4.9 4.797c-.153.147-.296.2-.45.126a.24.24 0 0 1-.123-.16.25.25 0 0 1 .036-.198c.04-.073.1-.14.153-.196zm-1.076 4.738c.297.143.252.364.2.444s-.122.13-.2.152-.18.004-.255-.044l-1.145-.55c-.114-.055-.325-.23-.22-.447.086-.18.3-.2.473-.103zm5.67-2.737c.05-.157.17-.385.4-.3.16.052.232.248.154.5l-2.2 6.826c-.044.136-.166.374-.4.3s-.212-.312-.157-.48zm3.855 1.104a.41.41 0 0 1 .332-.065.25.25 0 0 1 .15.128c.03.06.032.133.007.197-.033.1-.108.204-.2.26l-2.773 1.65a1.18 1.18 0 0 0-.56.527 1.17 1.17 0 0 0 .107.741l1.357 3.483a.57.57 0 0 1 .023.342c-.014.064-.055.12-.112.15s-.125.04-.187.018a.48.48 0 0 1-.279-.31L36.73 99.2a1.71 1.71 0 0 1-.127-1.059 1.58 1.58 0 0 1 .816-.837zm6.543 1.3c.167.03.372.148.33.374-.033.174-.2.267-.44.22l-2.032-.38c-.845-.16-1.154.052-1.323.95l-.757 4.04c-.2.984.033 1.205.894 1.367l2.012.38c.177.034.394.142.354.36s-.287.263-.464.227l-2.2-.412c-.97-.187-1.43-.598-1.204-1.833l.84-4.44c.214-1.138.782-1.457 1.782-1.273zm-1.047 3.277c.26.048.427.192.393.376-.04.206-.276.264-.505.22l-1.7-.32c-.166-.03-.412-.16-.37-.383.05-.26.316-.243.482-.212zm3.802-2.632c.015-.176.085-.424.318-.408.2.015.28.22.265.45l-.227 3.175c-.037.517.122.572.477.597l1.385.1c1.1.08 1.524-.5 1.602-1.593.104-1.5-.723-1.758-1.358-1.803l-1.015-.074c-.117-.005-.442-.075-.422-.328.02-.286.343-.285.466-.276l1.036.074c1.702.124 1.995 1.37 1.9 2.557-.1 1.44-.785 2.053-1.84 2.077-.266.002-.354.05-.36.14a.28.28 0 0 0 .079.159l1.553 2.34a.62.62 0 0 1 .134.364.23.23 0 0 1-.066.174c-.046.047-.106.073-.17.073a.56.56 0 0 1-.368-.254l-1.77-2.637c-.22-.325-.35-.453-.7-.48-.5-.037-.656-.047-.685.37l-.17 2.374c-.016.23-.146.4-.326.396-.138-.01-.276-.154-.255-.44zm6.065.5a.65.65 0 0 1-.093-.287c-.007-.068.015-.136.06-.187s.1-.08.18-.082a.44.44 0 0 1 .352.251l1.982 3.522c.052.095.082.2.1.307a.24.24 0 0 1-.241.279c-.18.002-.3-.206-.353-.283zm5.54-.392a.4.4 0 0 1 .315-.237c.075 0 .147.032.197.088s.074.13.065.206c.002.084-.02.167-.064.238l-2.6 4.636c-.16.237-.235.522-.214.807l.02 1.608c.004.254-.122.42-.28.422-.202.003-.3-.227-.292-.415l-.02-1.73a1.75 1.75 0 0 1 .282-1.039zm9.24 5.547c.364-.032.692-.234.883-.546s.224-.695.088-1.034c-.17-.763-.583-1.395-1.552-1.174l-.777.173a1.81 1.81 0 0 1-2.19-1.718c-.295-1.32.133-2.17 1.364-2.446l1.802-.402c.24-.053.443.036.482.208.044.208-.163.34-.35.383l-1.718.384c-.58.13-1.293.446-1.008 1.715.084.375.343 1.537 1.554 1.266l.787-.176a1.82 1.82 0 0 1 1.34.21 2 2 0 0 1 .853 1.433c.207.5.167 1.05-.106 1.506a1.67 1.67 0 0 1-1.28.802l-1.998.446c-.145.032-.42.016-.475-.2-.058-.258.205-.35.34-.38zm2.194-7.574c-.066-.175-.1-.406.118-.495.198-.073.35.113.418.3l2.56 6.7c.054.144.097.4-.122.488-.14.053-.314-.02-.412-.28zm4.523 1.585c.14-.053.427-.128.518.1.075.185-.087.363-.306.447l-2 .762c-.17.064-.433.084-.516-.133s.116-.35.304-.422zm-.15-3.27c-.066-.176-.095-.4.122-.488s.365.12.425.28l2.56 6.698c.047.124.1.406-.117.488-.178.07-.348-.08-.427-.285zm4.43-2.57c.482-.324 1.084-.414 1.64-.246a5.31 5.31 0 0 1 2.239 2.293 5.99 5.99 0 0 1 .973 3.267c-.1.584-.493 1.08-1.03 1.34l-.95.538c-1.2.68-2.475.3-3.888-2.2-1.63-2.877-.82-3.96.13-4.496zm-.546 1c-.603.336-1.508.98.037 3.702 1.152 2.036 2.152 2.442 3.084 1.913l.894-.507a1.24 1.24 0 0 0 .798-1.302c-.128-.852-.42-1.672-.858-2.414-1.534-2.704-2.594-2.166-3.138-1.858zm5.928-4.686a2.01 2.01 0 0 1 3.092.49 2.08 2.08 0 0 1-.28 3.186l-1.07.836c-.317.25-.32.487-.06.82l1.344 1.716c.116.148.2.375.03.5-.143.1-.336.054-.492-.148L84.9 89.48c-.136-.173-.23-.365-.047-.512.207-.16.42.047.507.152l1.957 2.497c.32.407.458.397.85.088l1.094-.856c.346-.283.553-.7.57-1.147s-.16-.878-.484-1.186c-.22-.4-.616-.672-1.068-.735s-.907.093-1.227.418l-.85.666c-.192.15-.4.137-.486.016a.35.35 0 0 1-.037-.264c.023-.09.082-.166.163-.212z" stroke="#806342" stroke-width=".5" class="B"/><g fill="#fff"><use xlink:href="#B" stroke="#fff" stroke-width="6"/><use xlink:href="#C"/><path d="M84.78 21.26a5.02 5.02 0 0 1-1.47-.219l-.428-.134-11.2-3.32a4.83 4.83 0 0 1-3.344-3.243l-.02-.063a4.9 4.9 0 0 1-.175-1.818l-.48-.64 1.407-1.8q.1-.123.19-.242l.744-1.022.07-.1c.63-.864 1.173-1.788 1.62-2.76l.03-.067c2.137-4.38 5.4-5.48 7.158-5.745 2.217-.415 4.5.24 6.16 1.77 1.45 1.516 2.18 3.146 3.168 6l.064.2c.698 2.542 1.19 5.136 1.467 7.757l.053.44-.014.28a4.91 4.91 0 0 1-2.1 3.8c-.848.6-1.86.923-2.9.923zm-8.754-9.29l6.815 2.025a41.62 41.62 0 0 0-.894-4.075c-.308-1.176-.812-2.29-1.49-3.3-.412-.1-1.68-.176-2.788 2.076-.502 1.085-1.1 2.13-1.757 3.122zM80.26 6.4l.016.017z"/><use xlink:href="#D"/><path d="M79.3 39.302c-1.332.001-2.61-.533-3.545-1.48q-1.376-1.386-2.77-2.785L63 25.242q-.727-.7-1.463-1.4a4.89 4.89 0 0 1-1.52-3.844c.093-1.42.78-2.735 1.894-3.622l3.623-2.907a5.16 5.16 0 0 1 4.535-.94l1.92.535L84.024 16.6q1.095.337 2.183.678a4.91 4.91 0 0 1 3.408 5.5 20.68 20.68 0 0 1-.476 2.5 34.78 34.78 0 0 1-4.366 10 17.22 17.22 0 0 1-1.513 2.082c-.865 1.1-2.157 1.805-3.56 1.915l-.4.017zm1.136-6.128l.006.006zM67.456 20.38l.113.108 10.08 9.888 1.48 1.487.053-.084c1.61-2.508 2.815-5.255 3.567-8.14q.06-.237.113-.482l-.783-.24-11.877-3.5-1.148-.32q-.8.638-1.6 1.28zm16.774 3.2l.035.01zm-18.178-2.072l-.02.017z"/><use xlink:href="#E"/><path d="M26.806 45.49a4.92 4.92 0 0 1-3.27-1.252l-.194-.172-.3-.36c-1.67-2.04-3.172-4.215-4.5-6.5l-.1-.187c-1.336-2.708-1.982-4.37-2.045-6.5.083-2.245 1.22-4.32 3.066-5.6 1.423-1.064 4.5-2.615 9.122-1.055 1.113.363 2.25.65 3.4.857l.33.078c.157.04.318.063.48.067h.1l.1.007a4.88 4.88 0 0 1 3.973 2.5l.032.06c.79 1.473.768 3.25-.062 4.7l-5.69 10.645a5.06 5.06 0 0 1-3.6 2.64 4.9 4.9 0 0 1-.873.074zm-2.482-11.488c.698 1.204 1.455 2.372 2.27 3.5l3.443-6.444a32.42 32.42 0 0 1-3.52-.937c-2.42-.818-3.268.136-3.492.5.245 1.19.684 2.333 1.3 3.38zm-1.32-3.708z"/><use xlink:href="#F"/><path d="M43.52 54.254a4.94 4.94 0 0 1-.593-.036 17.9 17.9 0 0 1-2.588-.393 34.52 34.52 0 0 1-10.124-3.9 20.43 20.43 0 0 1-2.125-1.426 4.92 4.92 0 0 1-1.509-6.3l1.028-2L33.55 29.13l.955-1.718a5.18 5.18 0 0 1 3.867-2.592q2.332-.282 4.654-.54a5.01 5.01 0 0 1 3.846 1.178 4.9 4.9 0 0 1 1.7 3.791l-.03 2.04-.047 13.99q.013 1.963.036 3.923a5.01 5.01 0 0 1-5.008 5.054zm-10.427-10.3q.218.137.44.267c2.56 1.48 5.336 2.546 8.228 3.16l.156.034q-.01-1.048-.017-2.1l.047-14.122v-.157l-2.045.24-.583 1.05-5.85 10.9zm10.7-13.124h-.03zm-1.815-1.688z"/><use xlink:href="#G"/><path d="M50.16 55.067q-.468 0-.935-.016h-.008c-1.3.002-2.553-.5-3.492-1.4a5.09 5.09 0 0 1-1.562-3.6l-.023-2.947.083-15.74q.035-2.1.084-4.194a5.2 5.2 0 0 1 3.537-4.755l.15-.045 4.7-1.566c1.822-.77 4.325-2.2 4.35-2.214l.126-.07a5.17 5.17 0 0 1 5.855.788l3.07 2.914 11.253 11q1.045 1.042 2.086 2.09l.06.062a5.05 5.05 0 0 1-.067 7.056 26.5 26.5 0 0 1-2.243 2.167A43.71 43.71 0 0 1 52.36 54.974a25.63 25.63 0 0 1-2.199.093zm.714-26.666l-.06 3.074-.082 15.586.01 1.4a19.45 19.45 0 0 0 1.058-.059c7.782-.648 15.162-3.733 21.09-8.815a19.9 19.9 0 0 0 .782-.708l-1-1-11.15-10.9q-1.11-1.06-2.227-2.117c-1.037.565-2.69 1.434-4.1 2.026l-.076.03a55.28 55.28 0 0 1-4.257 1.473z"/><g stroke="#fff" stroke-width="6"><use xlink:href="#H"/><use xlink:href="#I"/><use xlink:href="#J"/><use xlink:href="#K"/><use xlink:href="#L"/></g></g><use xlink:href="#I" class="B"/><g fill="#5d0c14"><use xlink:href="#C" x="0.001"/><use xlink:href="#D" x="0.001"/><use xlink:href="#E" y="-0.001"/><use xlink:href="#F" x="0.001" y="0.001"/><use xlink:href="#G"/></g><g class="B"><use xlink:href="#C"/><path d="M83.838 17.842l-.1-.1-.095.168z"/><path d="M83.45 17.023l-.237.012c-.037.556-.155.356.063.825.14-.046.454-.15.482-.363-.1 0-.274.158-.38.058.1-.133.228-.076.35-.25-.15-.22-.165.1-.364-.05zm-.412.442a1.07 1.07 0 0 0 .113-.24c-.047.083-.184.167-.113.24z"/><path d="M82.892 17.48c-.128-.06.06-.2.056-.223l-.255.3zm-.552-.188c-.024.002-.048.007-.072.013.006.06.037.02.072-.013zm-.285-.042c.02.132.1.084.214.054v-.024c-.047-.12.1-.337.2-.238.146-.014.062.217.222.1l-.1-.238c-.207-.036-.428.274-.536.346zm.285.042c.026-.003.053-.001.078.006-.02-.048-.047-.03-.078-.006z"/><path d="M82.613 17.404l.085-.03.014-.106zm-1.02-.27c.13-.315.317.132.43-.1-.185-.04-.257-.32-.163-.487l-.23.04c-.095.17-.108.375-.035.556zm-.142-.938c-.016.02-.038.035-.062.042a.09.09 0 0 0 .062-.042z"/><path d="M80.27 16.455l.565-.19c-.075.092-.088.2-.206.2.194.1.283-.095.443-.01-.04.318-.307-.067-.3.232a.41.41 0 0 0 .481-.161l.128.264.036-.353c-.05-.118-.235.214-.213-.03.02-.15.1-.154.17-.17-.143.03-.26-.36-.524-.39s-.367.5-.59.6z"/><path d="M80.36 16.087l.008-.14-.03.182zm-.638.28l.305-.136a.52.52 0 0 1 .01.176c.014-.08.118-.2.126-.257-.023-.334-.327.008-.472.022-.3-.238.064-.157.014-.48.095.036.077.1.2.17-.1-.4-.47-.17-.63-.125.03.042.014.138.1.133l-.17.057c.076.282.18.383.516.44z"/><path d="M80.157 16.493c-.1 0-.124-.037-.12-.082-.001.087.013.156.12.082zm-.95-.77c.01.023.036.024.075.014-.012-.018-.034-.025-.075-.014zm.032.398l-.16-.082.025.162c.028-.008.118-.006.136-.08z"/><path d="M72.85 13.726c-.018.127.027.206.165.222-.06.16-.223.077-.33.147.145.157-.056.2-.056.363.2.073.334-.114.53-.01a.31.31 0 0 0-.028.182c.278-.03.744-.058.948.156.216.103.456.14.693.108.824.337 1.758.432 2.625.855l.222-.28c0 .172.218.064.132.263-.04-.054-.1-.036-.157-.05.114.338.525.13.73.3-.01-.065.033-.352.118-.38-.123.35.28.076.228.5.2.17.1-.307.327-.178.087-.2-.2-.17-.2-.34.126-.146.2.137.254-.085-.362-.22-1.217 0-1.85-.06l.12-.178a.94.94 0 0 1-1-.482c0 .2-.423-.235-.5.2-.05-.12-.078-.1-.178-.18l-.068.126c-.156-.05-.072-.25-.256-.3.066.216-.08.233-.175.368-.15-.265-.34-.515-.475-.737a.5.5 0 0 0 .036.233c-.106-.1-.135.08-.185.132-.123-.026-.044-.26 0-.376-.2-.138-.425.283-.548.083v.205c-.24-.022-.373-.285-.642-.3-.05-.294.268-.16.4-.242-.036-.07-.14-.115-.15-.2a5.26 5.26 0 0 1-.542.309c.216-.254-.1-.333-.2-.377zm.737.07a.85.85 0 0 0 .1-.082.09.09 0 0 1-.09 0c-.01.026-.014.054-.01.082z"/><path d="M72.85 13.725v-.032c-.026.01-.016.016 0 .032zm1.25 1.087l-.028-.026-.04-.02zm.438-.798a1.5 1.5 0 0 0 .135.257c.016-.106-.04-.2-.135-.257zm1.474.666c.056-.02.045-.084.1-.135-.1-.037-.15.015-.1.135zm-2.686-1h-.207l-.084.03z"/><path d="M71.955 11.55c-.066-.002-.13.016-.186.05-.024.016-.047.035-.067.056l-.03.033-.014.017-.007.01c0 .01.01-.027-.036.062-.02.053-.02.112 0 .165a.23.23 0 0 0 .187.146.22.22 0 0 0 .109-.014l-.258-.36c-.077.095-.133.207-.21.295-.026.068-.022.143.01.208s.09.113.16.132c.106.052.192.1.165.244l-.445-.19a1.5 1.5 0 0 0-.039.692.55.55 0 0 0 .474.461c-.04.047-.068.143-.177.093.154.21.625-.263.65 0-.38.03-.15.257-.4.425l-.06-.014c.185.155.51.162.62.224.047-.115.04-.32.177-.282-.045-.043.03-.163.078-.277-.163.08-.178-.03-.336.056.043-.174.067-.014.11-.183-.055.02-.112.037-.17.05-.023-.077.16-.067.112-.164-.073.06-.216.057-.25-.036l.06-.01c-.093-.02-.067-.148-.3 0a1.9 1.9 0 0 1 .2-.19l-.16.084c-.01-.243.416-.327.2-.52-.06.046-.154-.008-.182-.047-.138.1.124.142.154.218-.18.045-.406-.157-.51 0 .2-.165 0-.347.452-.307.062-.125-.11-.28.072-.375l.053.042c-.147-.123-.026-.108.032-.14l-.4-.37a1.76 1.76 0 0 1-.133-.48.52.52 0 0 1 .509.124c.124.12.18.29.155.46a.49.49 0 0 1-.095.227c-.015.02 0 0-.006.008l.007-.007.013-.017c.01-.013.015-.028.018-.044a.26.26 0 0 0-.022-.139l-.134.063c-.093-.08-.057-.134-.02-.216.032.038.032.038.1.05-.154-.154-.017-.395-.048-.46-.1.07-.04.29-.08.434-.058-.128-.215-.222-.117-.3z"/><path d="M72.3 13.422l-.1.024c.04.006.078-.003.1-.024zm.604-2.536c.125-.1.13.14.288.08-.037-.213-.352-.033-.453-.284.16 0 .066-.255.1-.3.097.13.232.227.387.277-.032-.1.163-.124.23-.205-.292.106.032-.236-.26-.16-.13-.112-.1-.373.058-.38.1.074.034.124 0 .18.165.174.192-.062.4.025-.132-.378.28-1.012-.28-1.1-.126.016-.054.14-.08.224.216-.152.235.143.3.2-.127.044-.084.285-.22.15l-.077-.244a8.2 8.2 0 0 0-1.036 1.545l.16-.2c.1.106.035.213.034.332l.356.1c-.065.05-.067.14-.164.062.064.16.16.178.3.2-.07.2-.2.148-.1.407.428-.1-.02-.367.405-.543z"/><path d="M72.633 11.593l-.092-.168v.15zm-.537-.545c.064.042.062.1.125.142.132-.1.035-.142-.125-.142zm1.676-1.105l.058-.2-.126.075c.044.026.07.074.068.125zm-.06-1.653c-.1.25-.018.435-.323.6.116.244.4.155.54.316.123-.1-.215-.286-.2-.46.2.045.078-.223.2-.333-.082-.02-.155-.067-.207-.133z"/><path d="M74.806 7.792c.06-.114-.023-.294.1-.344.1.065.113.153.05.207.27.077.02-.15.247-.184-.032 0-.1.018-.134-.04.213-.252-.113-.264.23-.56-.037-.1-.006-.144-.17-.227.32-.093.246 0 .58-.122a3.84 3.84 0 0 1-.55-.227c.5-.17.2-.384.56-.463-.008.03.02.1-.046.136.282.165.072-.222.222-.294l.2.18c.05-.12.07-.416.326-.405l.077.12c.052-.406.44-.567.577-.842l.226.05c.2-.4-.376.144-.4-.344.34.38.077-.253.4-.227.2.107-.134.22.093.342-.1-.242.057-.13.115-.262.1.214.233-.094.308.18q.065-.3.162-.6a.22.22 0 0 0 .3-.039c-.222.08-.073-.363-.378-.365-.192.173-.397.33-.612.474-.22.17-.456.32-.706.444.176.294-.244.214-.118.47-.082-.07-.174-.113-.256-.18-.193.27.185.08.2.223-.074.12-.294.06-.37-.032-.167.163.048.084.1.3l-.37-.136c-.376.75-.798 1.474-1.265 2.17l.237.047c-.273.265.2.777-.4.842l.124.2c-.07-.106-.334-.105-.43-.262.025.124-.1.174-.087.3l.182-.108c.113.2-.06.272-.23.226.072.35.426.052.627.086-.2-.54.553-.156.563-.58-.008-.273-.192-.073-.296-.145zm-.776.138a.22.22 0 0 0 .029.077.24.24 0 0 0-.029-.077zm4.258-4.1c.033-.013.063-.03.092-.05.013-.067-.027-.01-.092.05zm-4.368 4.6z"/><path d="M74.326 8.855l.057-.086-.1-.035zm5.007-5.035l-.02-.12c-.004.04.003.082.02.12zm2.513.376L81.8 4.17c.006.02.025.03.045.027z"/><path d="M85.044 9.805a1.22 1.22 0 0 0 .474.479l-.12.016c.08.084.345.36.507.1l-.115-.025c-.23-.193.155-.218.185-.42-.1-.2-.585-.223-.53-.444-.034-.082.087-.1.182-.1-.018-.2-.38-.194-.46-.312.875-.327-.432-.518.02-.98-.134-.154-.146-.42-.4-.58.26.038-.064-.22.2-.263-.52.132-.037-.743-.678-.524.043-.374-.043.005-.052-.4.07-.03.1.028.118.045.062-.2-.353-.092-.13-.334-.09-.3-.187.032-.426-.048-.074-.312.05-.276.208-.565-.3.132-.25-.113-.476-.157.008.04.062.253-.114.2-.142-.33-.327-.13-.577-.34.19-.34.2.255.258-.138.256.076.33.223.61.188-.16-.297-.41-.537-.712-.685-.08-.165.188-.036.12-.164-.095-.354-.586-.127-.666-.393l.157-.106c-.26.074-.47-.37-.813-.367 0 .1 0 .167-.057.21.09-.216-.034-.194-.19-.162s-.333.073-.44-.108a.53.53 0 0 1-.48.412c-.032-.1-.037-.188-.014-.28.25.193.305-.277.572-.366-.22.1-.52-.093-.707.106l.084-.22c-.28-.063-.258.5-.524.28l.025-.168c-.282 0-.593-.014-.895 0a.9.9 0 0 0-.723.386c.013.143.313.373.35.476.194-.167.28-.443.453-.6l.044.26c.008-.182.235-.317.082-.44.15-.154.152.213.323.042.007.275-.1.317-.072.544l.136-.152c-.038.11.1.08.06.193.262-.326.38.106.655-.01l-.153-.064c.008-.152.1-.128.174-.165.06.222.107.2.237.3.135-.1.257-.35.435-.313-.1.266.24.227.193.472.13-.272.332.007.414-.13.108-.017.21.063.13.2-.014 0-.047.013-.078.015.024.013.046.03.067.047-.023.025-.032.05-.043.05.052.04.165-.137.166.03-.043.063-.083.038-.13.045.12.122.506-.18.465.15.126-.067.312.124.5-.12-.036.128-.235.263-.082.384.272-.073.058.226.275.244-.333 0-.064.042-.368.063-.014.16.38.113.465.334-.04.052-.106.093-.146.144.12.02.355 0 .207.176l.155-.1c0 .18.15.347.044.585l.4.025c-.22.4.222.583.6.668.023.1.02.263-.052.3-.033-.012-.1-.028-.158-.053.044.14-.078.378.222.35.137.11-.146.174-.152.295.5.143.023.942.64.82-.01-.204-.047-.405-.107-.6.092.034.2-.054.233.025.108.218-.067.4.1.6l-.386.1c-.247.484.727.588.267 1.048z"/><path d="M84.07 6.943l-.12.234.152-.08c-.05-.034-.064-.102-.03-.153zm.03.153a.44.44 0 0 0 .112.062c-.01-.038-.036-.07-.073-.083zm1.175 3.36a.2.2 0 0 0 .041.184c.035-.06.027-.16-.04-.184z"/><path d="M85.438 10.624l.04-.1h-.048zm1.222 4.946l.272.25c-.116.063.065.36-.156.282.065.025.117.075.146.138.03.073.044.15.042.23 0 .144.022.226.242.163.006-.1 0-.182 0-.275l-.04-.228-.05-.34-.088-.74a3.9 3.9 0 0 0-.435-1.465l.188.126c-.4-.436.244-.74-.47-1.017l.34-.008c.05-.244-.555-.338-.254-.64l-.13.05c-.012-.062.043-.1.032-.16l-.055.037c-.14-.088-.2-.27-.112-.417.1-.034.06.065.1.1.092-.1-.157-.176-.182-.3.07-.118.15-.03.2-.027-.225-.342.08-.6-.47-.742-.1 0-.143.135-.216.01-.1.28.14.43.32.626l-.012-.062c.513.074-.078.158.2.4-.2-.035-.235-.16-.35-.186-.3.4.376.413-.047.725l-.018-.02c-.035.058.07.126.128.192.056-.036.073-.115.1-.173.058.065.275.063.37.07-.194.126.125.093.046.25-.186.086-.2-.08-.316-.108l.165.136c.04.147-.186.187-.278.28.172.1.092-.093.32-.03-.2.2-.027.87.215 1.168-.046-.1-.216-.007-.207-.148-.036.056.094.214.244.192a.7.7 0 0 1 .007.738l.144-.082c.28.143-.127.475.062.77v-.007c.045.1.425.14.37.336-.2-.032-.2-.135-.367-.103zm.378 1.283a2.3 2.3 0 0 0-.179-.177c-.067.12.134.373.272.392-.008-.116.118-.236 0-.283-.033.013-.104-.006-.093.068zm-2.068 1.75c-.053.053-.034.132-.057.193a2.78 2.78 0 0 0 .963-.288 3.76 3.76 0 0 1 .654-.314c.216-.115.02-.372.1-.612l.245.02c-.025-.184.356-.5-.03-.492-.034 0 .107.178-.008.26l-.1-.074a2.04 2.04 0 0 1-.1.248l-.08-.153c-.366.13.23.5-.237.732l-.2-.24c-.222.15-.3.32-.6.242 0 0 .054.143.074.068a.22.22 0 0 1 .165.18c-.34.4-.01-.187-.332-.2a1.09 1.09 0 0 1-.638.347c-.26.044-.5-.027-.568-.172.148.23-.223.34-.347.276-.04-.125.1-.158.156-.238-.063-.054-.1-.146-.185-.125a.37.37 0 0 1-.286.436.38.38 0 0 0 .261.1c.088 0 .187-.02.347-.038a5.12 5.12 0 0 1 .785-.157z"/><path d="M84.813 18.87c.045-.003.084-.03.1-.073a1.98 1.98 0 0 1-.229.008z"/><use xlink:href="#D" x="0.001"/><path d="M65.226 22.926l-.086-.173-.17.1z"/><path d="M65.07 21.845l-.28-.16c-.246.516-.3.237-.227.852.18.057.584.18.7-.007-.1-.068-.378-.043-.464-.217.165-.06.294.1.5.006-.1-.324-.225-.032-.407-.3zm-.64.137a.8.8 0 0 0 .22-.154c-.086.047-.275.027-.22.154z"/><path d="M64.254 21.9c-.128-.15.14-.143.146-.178l-.4.1zm-.566-.586l-.082-.052c-.026.06.03.052.082.052z"/><path d="M63.438 20.988c-.075.127.046.2.168.264l.01-.023c.023-.147.28-.2.32-.058.14.068-.017.25.207.242l-.025-.3c-.16-.112-.536-.052-.682-.125zm.25.317a.49.49 0 0 1 .082.067c-.001-.062-.04-.067-.082-.067zm.27.3l.1.033.055-.094zm-.697-1.283c.17.02.165.127.17.242s.016.237.148.2a.3.3 0 0 1 .336-.4c-.042-.06-.077-.122-.105-.2a.49.49 0 0 0-.548.136zm.906-.306c-.02-.013-.034-.03-.042-.053.005.023.02.043.042.053zm.312-1.186a3.07 3.07 0 0 0-.265.66c-.043-.108-.136-.174-.06-.286-.224.136-.076.307-.2.432-.3-.126.2-.292-.1-.378-.078.07-.123.172-.125.277a.39.39 0 0 0 .115.282 1.37 1.37 0 0 0-.274.15 3.23 3.23 0 0 1 .355.018c.1-.032-.2-.252.044-.2a.2.2 0 0 1 .155.176c-.02-.143.35-.108.424-.222.222-.23-.15-.628-.068-.908z"/><path d="M64.737 19.123l.12.077-.14-.123zm.303-.82l-.14.393a.44.44 0 0 1-.17-.077c.06.054.07.22.124.262.324.142.277-.35.4-.513.482-.2.087.146.424.255-.115.082-.166.027-.332.132.46.083.56-.413.66-.605-.065.012-.137-.055-.2.035l.1-.2c-.332-.062-.516-.001-.857.327z"/><path d="M64.54 18.703c.1-.1.14-.113.18-.086-.08-.044-.15-.065-.18.086zm1.53-.627c-.03 0-.053.026-.078.074.027-.005.057-.02.078-.074zm-.388-.164l.215-.13-.17-.055c-.017.034-.1.13-.046.185z"/><path d="M73.967 17.857c.014-.13-.056-.215-.248-.246.07-.157.3-.055.437-.115-.214-.177.06-.2.043-.367-.268-.1-.45.08-.728-.05a.23.23 0 0 0 .021-.184 2.44 2.44 0 0 1-1.319-.263 2.36 2.36 0 0 0-.962-.187c-.585-.214-1.2-.36-1.827-.522a2.03 2.03 0 0 0-1.764.218l.06.377c-.154-.1-.248.2-.352.008.083-.014.115-.084.18-.142-.405-.05-.577.493-.9.626.067.022.3.212.242.316-.2-.306-.312.26-.654-.01-.333.133.2.26-.124.438.106.194.332-.132.485-.044.022.207-.3.144-.144.312a3 3 0 0 0 .8-.83l.424-.57.216-.275a1 1 0 0 1 .2-.2c.008.072.02.143.036.213a.65.65 0 0 1 .528-.261c.214-.001.408.125.494.32-.03-.2.607.277.66-.165.082.128.12.12.264.2l.08-.123c.22.065.127.262.384.32-.115-.228.084-.232.2-.362l.73.8a.44.44 0 0 0-.074-.244c.156.115.176-.068.24-.116.17.04.086.27.045.388.288.163.554-.246.742-.027l-.027-.212c.33.048.542.334.9.374.1.307-.353.137-.53.2.056.075.2.134.227.233.232-.1.47-.187.713-.26-.267.26.185.375.3.43zM72.95 17.7c-.046.02-.1.045-.13.073.04-.012.085-.007.123.013.013-.027.015-.057.008-.086z"/><path d="M73.967 17.856v.032c.038-.007.03-.017 0-.032zm-1.835-1.253l.04.03.056.024zm-.504.777a1.86 1.86 0 0 0-.212-.28c.006.093.012.167.212.28zm-2.1-.826c-.075.015-.053.082-.116.13.134.046.198-.002.116-.13zm3.784 1.308l.284.02.112-.022zm5.705.622c-.17-.292-.557-.26-.835-.4-.57-.04-.212.47-.727.347l.223-.434c-.515-.122-1.205-.43-1.753-.152-.02-.067-.1-.163.06-.2-.343-.082-.366.6-.772.32.5-.163-.058-.313.14-.564l.075-.013a8.89 8.89 0 0 1-.9-.089c-.042.117.07.346-.187.286.1.054.016.176-.027.292.3-.054.417.07.62-.04.1.2-.113.02-.01.217l.25-.08c.145.082-.2.108.027.2a.44.44 0 0 1 .46-.047l-.07.037c.16-.02.343.117.348-.16l.1.3.02-.183c.375.185.4.645.973.577-.106-.088.034-.15.1-.163-.177-.183-.3.054-.5.018.02-.183.424-.3.2-.467.208.286.514.123.5.592.316.122.5-.054.8.143l-.028.062c.146-.27.228.2.56-.014l-.154-.116c.043-.115.13-.094.252-.08-.027.042-.027.042-.006.1.1-.2.478-.122.543-.17-.145-.082-.387.034-.585.033.12-.1.146-.273.3-.2z"/><path d="M75.467 18.265l.134-.07c-.052.004-.1.03-.134.07zm4.915 1.015c.192.108-.1.16.056.3.253-.082-.15-.367.12-.522.1.163.36.007.446.028a.57.57 0 0 0-.14.454c.1-.054.24.135.373.183-.28-.27.312-.02.068-.3.06-.08.152-.127.25-.13s.194.036.26.1c-.045.115-.14.06-.226.04-.137.2.174.182.16.4.412-.216 1.423.1 1.287-.48-.08-.127-.2-.034-.333-.047.3.2-.08.264-.134.345-.117-.122-.408-.035-.3-.2l.282-.12a13.41 13.41 0 0 0-2.53-.73l.354.115c-.082.123-.254.082-.4.108l.076.38c-.1-.054-.2-.034-.165-.15-.167.1-.135.2-.095.34-.283-.02-.288-.163-.558-.008.36.4.44-.114.877.272z"/><path d="M79.357 19.175l.157-.135-.188.035zm.385-.675c-.017.074-.092.087-.108.16.195.1.2.001.108-.16zm2.275 1.45l.284.02-.154-.115c-.017.075-.092.086-.13.094zm2.13-.3c-.378-.08-.584.024-.95-.272-.27.153-.028.43-.176.6.2.112.278-.26.513-.264.023.2.327.056.518.163a.28.28 0 0 1 .094-.227z"/><path d="M85.183 20.76c.126.046.34-.01.384.142-.088.087-.174.08-.227.013-.1.26.154.036.142.273.012-.03 0-.1.073-.118a.41.41 0 0 0 .253.177c.07.027.167.088.175.35.1.043.108.12.286.07-.038.105-.105.198-.194.266-.08.074-.153.155-.218.242a5.65 5.65 0 0 1 .594-.08c-.4.55-.06.6-.362.943 0-.043-.053-.1 0-.2-.325-.01 0 .32-.1.515l-.264-.075c.007.194.12.563-.12.753l-.123-.086c.134.53-.148 1.054-.157 1.486l-.228.165c.03.613.26-.52.528 0-.5-.086.067.335-.224.594-.238.087 0-.35-.27-.256.224.148.02.2.034.38-.22-.113-.148.336-.375.146l.224.73c-.163.047-.2.224-.217.358.12-.312.3.216.546-.1a7.79 7.79 0 0 1 .607-2.086c-.3-.164.126-.426-.1-.6.107.013.2-.014.318 0 .047-.448-.2.053-.295-.083a.29.29 0 0 1 .349-.253c.077-.3-.082-.058-.227-.26l.4-.12.117-1.687a2.29 2.29 0 0 0-.57-1.759c-.025.08-.054.156-.086.23-.347-.47-.885.1-1.166-.5l-.206.143c.115-.082.018-.356.192-.466-.156.034-.27-.094-.43-.068l.2.18c-.078.057-.182.063-.265.015s-.13-.14-.122-.236c-.43.108.1.448.122.658.622-.25.424.566.9.534.237-.047.06-.2.1-.322zm-.433-.796a.25.25 0 0 0-.093.036.3.3 0 0 0 .093-.036zm.042 7.593c-.018.047-.032.096-.04.145.036.068.027-.022.04-.145zm-.74-7.67z"/><path d="M83.642 20.35l.133.05.007-.108zm.324 8.48l.1.05a.17.17 0 0 0-.11-.05zm-1.888 3.535l.05-.07a.1.1 0 0 0-.05.071z"/><path d="M75.77 32.772c-.243-.176-.525-.29-.822-.33l.1-.073c-.144-.058-.61-.242-.55.12l.126-.025c.367.11.032.313.165.553.266.182.717-.01.84.265.1.078 0 .15-.094.2.175.223.5.054.67.16-.6.7.788.438.668 1.145.24.135.43.44.8.552-.3.035.2.24-.026.37.22-.164.338.073.557.27s.488.31.607-.007c.2.152.222.13.234.122s.034-.017.317.062c0 .076-.1.077-.138.09.26.142.318-.3.56-.037.47-.1.032-.2.193-.452.4-.134.342 0 .738.032-.176-.26.1-.358.11-.63-.042.027-.29.225-.253-.01.362-.354.1-.443.307-.86.426.024-.272.377.2.218-.05.338-.207.5-.113.8.31-.342.538-.748.67-1.2.178-.178.067.2.2.055.382-.287.063-.767.382-.98l.117.158c-.09-.308.455-.635.54-1.06-.1 0-.176 0-.2-.08.4.233.073-.607.544-.8-.27-.11-.237-.528-.15-.756a.34.34 0 0 1 .278.067c-.34.275.1.5.07.84-.008-.307.338-.626.25-.93l.163.184c.2-.32-.316-.517.044-.77l.135.106c.314-.707.95-1.444.828-2.165-.108-.1-.524.07-.63.045-.023.384.117.672.115.98l-.24-.106c.142.13.1.484.306.37.027.266-.282.065-.255.368-.24-.132-.2-.288-.4-.384l.03.263c-.067-.11-.14.087-.21-.02.12.52-.365.476-.425.93l.15-.2c.136.07.06.187.053.3-.245.01-.25.086-.437.24.017.224.213.45.084.68-.228-.188-.346.307-.584.23.224.2-.16.488-.035.6-.02.15-.146.3-.278.218a.88.88 0 0 1 .011-.115l-.08.114c-.02-.028-.045-.037-.04-.054-.07.1.1.213-.095.275-.064-.04-.02-.113-.01-.19-.21.255.064.723-.3.82.087.12-.11.443.192.544-.15.027-.33-.14-.45.112.12.28-.255.2-.246.462-.052-.386-.06-.047-.125-.395-.193.084-.08.515-.326.74-.07-.014-.128-.064-.2-.077a2.09 2.09 0 0 1 0 .247c-.01.04-.03.075-.062.1-.026.02-.058.018-.115 0l.148.1c-.178.08-.36.283-.6.168-.014.137-.048.272-.1.4a.55.55 0 0 0-.535-.08l-.615.225c-.13-.077-.264-.26-.21-.318l.187-.02c-.15-.107-.152-.4-.45-.3-.213-.088.032-.25-.047-.4-.592-.017-.68-1.1-1.214-.763.155.238.33.462.524.67-.116-.01-.154.124-.25.047-.257-.218-.215-.5-.526-.668l.3-.25c-.117-.685-1.154-.4-1.07-1.112z"/><path d="M78.796 35.647a1.28 1.28 0 0 1-.088-.263l-.064.16a.16.16 0 0 1 .152.104zm-.152-.103a.7.7 0 0 0-.145.009c.035.03.083.042.13.032zm-3.6-3.406a.38.38 0 0 0-.187-.188c.016.082.106.193.187.188z"/><path d="M74.747 32.023l.044.13.045-.02zm-5.33-4.743l-.448-.1c.036-.135-.382-.34-.133-.4-.367.042-.533-.512-.688-.083.956.963 1.987 1.848 3.083 2.648l-.268-.032c.723.25.42.92 1.275.844l-.3.187c.16.288.772.08.76.562l.072-.12c.062.062.044.13.106.192l.02-.068c.212.04.384.193.446.4-.064.087-.108-.042-.18-.07 0 .15.286.114.4.24.034.163-.1.106-.155.126.483.267.406.686 1.03.6.1-.04.02-.217.2-.112-.14-.356-.48-.416-.8-.544l.063.063c-.524.167-.06-.213-.5-.35.216-.065.342.06.467.036-.075-.593-.68-.27-.566-.828l.034.015c-.018-.082-.17-.1-.277-.147-.02.067.034.163.05.246-.108-.043-.3.07-.388.1.065-.237-.188-.037-.25-.248.1-.2.243-.017.37-.043l-.26-.065c-.16-.14 0-.3.005-.45-.235-.017 0 .15-.254.2.012-.334-.73-.964-1.193-1.15.133.092.2-.112.3.047a.28.28 0 0 0-.376-.074 1.33 1.33 0 0 1-.66-.787l-.046.17c-.358.008-.318-.58-.74-.78v.01c-.124-.076-.472.1-.6-.133.18-.088.27.022.4-.12zm-1.362-.84l.25-.052c-.08-.145-.4-.087-.483.035.107.04.142.207.24.133.013-.034.066-.087-.01-.116z"/><path d="M65.922 24.394c-.075-.006-.12.062-.18.088.466.42 1.076.9 1.14 1.2.108.193.357-.01.6.122l-.064.238c.2 0 .346.477.482.117.01-.034-.205.03-.25-.1l.1-.073-.23-.168.17-.046c-.124-.426-.51.14-.75-.294l.216-.218c-.215-.235-.4-.27-.472-.6 0 0-.108.108-.027.1a.2.2 0 0 1-.1.226c-.508-.163.18-.08.03-.4-.437-.135-1.114-.553-1.1-.888.008.267-.33.21-.482.037 0-.15.178-.08.267-.12-.052-.1-.06-.214-.17-.256-.017.218-.24.32-.5.222.25.51.946.406 1.31.814z"/><path d="M65.627 24.466c.032.027.078.034.116.016l-.16-.147z"/><use xlink:href="#E" y="-0.001"/><path d="M21.338 35.595v-.145l-.186.046z"/><path d="M21.676 34.752l-.166-.165c-.435.348-.367.125-.566.607.13.073.416.23.592.106-.06-.068-.3-.092-.3-.238.165-.018.21.115.42.083.06-.26-.177-.06-.208-.3z"/><path d="M21.076 34.75a1.06 1.06 0 0 0 .253-.079c-.088.022-.243-.026-.253.08z"/><path d="M20.968 34.65c-.04-.135.18-.083.2-.1h-.383zm-.222-.537a.4.4 0 0 0-.057-.046c-.042.044.01.04.057.046z"/><path d="M20.6 33.87c-.1.1.007.14.1.2l.017-.017c.06-.115.32-.148.312 0 .106.1-.123.2.073.228l.116-.228c-.116-.184-.495-.146-.618-.183zm.155.243a.21.21 0 0 1 .046.063c.024-.048-.008-.055-.046-.063zm.095.277l.077.044.088-.06zm-.455-.954c.325-.1.1.33.357.26-.1-.166.084-.4.272-.433l-.174-.146c-.144-.016-.348.158-.455.32zm.65-.686c-.025.001-.05-.007-.07-.02.02.017.045.025.07.02z"/><path d="M20.17 31.98l.46.348c-.117-.007-.213.042-.283-.048.02.213.234.17.26.34-.282.155-.122-.28-.357-.094.052.18.224.298.4.282l-.132.26.3-.187c.065-.107-.312-.05-.1-.18.074-.055.177-.043.237.027-.11-.09.14-.4.027-.608-.108-.222-.61-.013-.822-.14z"/><path d="M20.533 31.866l.124-.063-.172.066zm-.553-.39l.262.194c-.044.04-.094.07-.148.094.076-.027.224 0 .285-.02.277-.176-.16-.256-.238-.38.085-.356.17-.014.44-.188.007.1-.07.105-.066.232.3-.254-.04-.434-.14-.56-.028.04-.124.06-.087.128l-.117-.125a.46.46 0 0 0-.19.625z"/><path d="M20.08 31.907c-.045-.084-.03-.122.01-.14-.077.042-.13.088-.01.14zm.28-1.127c-.018.016-.01.04.014.068.012-.016.014-.037-.014-.068zm-.358.17l.018-.172-.142.08c.014.022.048.105.124.092z"/><path d="M24.1 27.284c-.03-.124-.1-.174-.214-.128-.013-.168.152-.174.22-.274-.185-.087-.022-.2-.086-.36-.2.02-.254.255-.47.25-.002-.063-.023-.123-.06-.174-.243.143-.6.443-.875.4a1 1 0 0 0-.568.384 5.52 5.52 0 0 0-1.9 1.845q.117.135.238.26c-.174-.034-.086.183-.272.078.053-.03.04-.086.065-.14-.355.062-.172.487-.3.675.065-.018.354.008.4.073-.374-.062-.012.2-.44.263-.094.246.322 0 .275.243.218.014.1-.243.258-.28.175.055-.066.213.16.188a.58.58 0 0 0-.01-.265c-.036-.102-.063-.207-.08-.314a1.96 1.96 0 0 1 .059-.894l.143.154c.017-.313.317-.723.717-.644-.173-.1.356-.208.035-.507.125.03.13 0 .237-.03l-.065-.126c.122-.092.23.093.354-.02-.2-.086-.135-.2-.175-.364a6.02 6.02 0 0 1 .807.188.51.51 0 0 0-.177-.153c.137.01.036-.143.037-.214.1-.058.2.17.244.283.207-.01.1-.5.323-.4l-.12-.167c.2-.108.44.023.657-.1.172.235-.14.262-.2.412.06.04.156.024.206.1.076-.18.172-.353.286-.513-.064.33.222.258.3.263zm-.588.25c-.014.04-.025.08-.032.123.015-.023.03-.047.062-.044a.2.2 0 0 0-.03-.079z"/><path d="M24.1 27.284l.008.03c.023-.02.015-.028-.008-.03zm-1.52-.298c.012.001.025.001.037 0l.04-.01zm.198.887a1.17 1.17 0 0 0-.244-.118c.05.085.146.13.244.118zm-1.232.55c-.006.055.05.08.075.148.066-.053.04-.122-.075-.148zm2.214-.884l.154-.1.053-.064z"/><path d="M27.57 26.903c-.1-.27-.4-.206-.594-.312-.418.01-.175.474-.537.412l.168-.456c-.378-.027-.914-.26-1.266.167-.022-.06-.084-.135.018-.2-.254 0-.167.675-.47.5.3-.28-.093-.3-.01-.58l.05-.03c-.218.014-.5.2-.63.193.006.123.135.3-.04.33.074.02.056.16.062.284.165-.146.264-.068.37-.238.1.156-.065.057.036.2a1.65 1.65 0 0 1 .141-.15c.105.044-.108.154.053.2a.25.25 0 0 1 .285-.157l-.04.053c.1-.058.236.028.2-.24l.095.27v-.182c.274.088.3.558.68.386-.072-.067.02-.15.073-.176-.123-.15-.205.1-.343.1 0-.183.282-.356.126-.493.154.246.37.036.354.493.2.073.347-.1.546.056l-.025.064c.124-.277.14.18.4-.066l-.1-.1c.04-.115.1-.1.2-.1-.024.043-.024.043-.016.106.1-.2.366-.152.418-.2-.1-.07-.3.054-.435.073.098-.104.134-.282.234-.216zm-2.484.32l.076-.1c-.038.022-.065.058-.076.1z"/><path d="M28.5 27.587c.136.1-.09.167.022.3.193-.1-.09-.347.12-.522.056.152.264-.025.325-.013a.78.78 0 0 0-.126.458c.08-.062.172.11.27.144-.2-.238.23-.05.062-.3.06-.162.316-.224.376-.075-.036.118-.105.075-.167.064-.108.215.122.16.106.376.31-.253 1.043-.068.946-.624-.056-.115-.15-.007-.24 0 .214.156-.06.27-.1.355-.083-.1-.3.014-.214-.158l.206-.152a8.63 8.63 0 0 0-1.8-.463l.25.085c-.07.126-.19.1-.3.137l.027.366c-.067-.045-.152-.018-.11-.134a.3.3 0 0 0-.1.338c-.21 0-.2-.14-.418.03.24.37.34-.14.64.207z"/><path d="M27.748 27.558l.13-.142-.143.046zm.345-.686c-.02.073-.075.1-.093.164.132.094.145-.012.093-.164zm1.59 1.215l.2-.012-.1-.095a.14.14 0 0 1-.098.107zm1.548-.584c-.272-.018-.42.118-.684-.117-.2.188-.02.427-.126.613.14.08.2-.295.37-.336.02.2.237.005.377.077a.38.38 0 0 1 .062-.237z"/><path d="M32.033 28.428c.133.023.28-.114.376-.014-.023.12-.1.16-.187.118.025.28.152-.026.288.165-.012-.03-.064-.08-.018-.14.366.1.228-.247.56-.02.07-.06.12-.04.172-.216.12.3.033.253.114.54.06-.1.122-.342.233-.54.1.25.165.305.246.352.104.04.16.152.125.257-.025-.017-.092-.008-.108-.078-.235.22.168.118.174.284l-.253.106c.08.054.316.22.125.38l-.14-.014a.42.42 0 0 1 .12.39c-.02.145-.07.243-.1.405l-.224.06c-.015.47.28-.32.493.15-.463-.206.042.27-.245.38-.23 0 .02-.263-.237-.265.2.172.005.148.01.3-.2-.143-.154.216-.358.014l.187.6c-.155 0-.2.12-.2.22.115-.2.287.234.513.052.105-.514.334-.994.666-1.4-.275-.186.137-.33-.117-.482.108.012.2-.01.312-.006-.023-.366-.2.058-.3-.054-.02-.133.18-.237.3-.226.013-.258-.1-.032-.277-.143a2.33 2.33 0 0 0 .347-.2 1.86 1.86 0 0 0-.855-1.046c-.198-.115-.4-.204-.632-.263-.22-.067-.454-.073-.632-.138l.046.233c-.333-.144-.7.445-.93-.114l-.158.164c.087-.093.03-.35.158-.478a.2.2 0 0 1-.169-.012c-.05-.02-.106-.02-.157 0l.13.113.033.032a.4.4 0 0 1-.049.036c-.14.1-.234-.032-.242-.192-.3.175.082.42.1.622.02-.018.03-.035.044-.048.367-.2.25.548.67.444.27-.104.004-.22.04-.34zm-.333-.708a.25.25 0 0 0-.065.047c.024-.01.046-.027.065-.047zm1.488 4.15a.44.44 0 0 0-.038.1c.03.06.02-.01.038-.1zm-2.018-4.13z"/><path d="M30.883 28.26l.1.027v-.106zm1.542 4.416l.106.06c-.03-.03-.066-.05-.106-.06zM31 35.203l.035-.052c-.022.008-.036.03-.035.052z"/><path d="M27.93 41.398a3.78 3.78 0 0 0-.2.61l-.05-.112c-.032.1-.306.42 0 .528l.012-.122c.16-.287.277.082.533 0 .218-.247-.033-.665.174-.768.04-.088.14-.013.2.062.164-.207-.137-.413-.107-.564.838.373.068-.66.726-.653.023-.2.212-.384.165-.68.143.22.124-.19.33-.024-.44-.307.535-.5-.04-.846.32-.2-.033-.033.283-.3.067.036.037.09.038.12.192-.067-.146-.336.184-.3.185-.242-.137-.13-.213-.37.217-.24.257-.12.583-.14-.27-.175-.045-.268-.12-.48-.03.026-.187.184-.23 0 .217-.3-.05-.356.036-.7.393.015-.15.305.237.172.044.268-.048.4.126.627.17-.282.27-.602.287-.93.124-.132.1.158.2.05.285-.2-.09-.594.165-.74l.136.132c-.14-.25.308-.46.326-.78-.1-.01-.164-.02-.2-.082.4.222-.02-.47.4-.568a.5.5 0 0 1-.222-.612.44.44 0 0 1 .267.091c-.288.17.145.4.157.662-.043-.24.242-.44.134-.688l.17.166c.154-.216-.345-.45-.023-.588l.134.1c.24-.5.808-.928.688-1.5-.1-.1-.49-.06-.59-.1.025.263.068.523.13.78l-.23-.128c.135.127.115.392.3.342.04.21-.26 0-.218.237-.233-.145-.206-.26-.405-.37l.04.21c-.07-.1-.128.044-.2-.052.147.428-.314.314-.332.664l.126-.132c.133.074.072.156.075.244-.23-.027-.227.032-.386.13.04.18.244.38.154.546-.236-.174-.286.2-.518.116.235.173-.082.37.053.474 0 .117-.088.225-.224.15a.51.51 0 0 1-.008-.091l-.056.084c-.025-.025-.048-.033-.047-.046-.05.076.136.176-.044.21-.067-.037-.036-.09-.04-.15-.156.188.187.577-.137.628.1.1-.018.35.28.44-.132.014-.333-.125-.4.073.173.224-.2.154-.115.367-.144-.308-.067-.036-.21-.316-.16.07.05.415-.1.6-.065-.008-.133-.045-.2-.052.038.122.178.31-.053.286l.168.077c-.16.1-.215.327-.476.386l.212.343c-.455.07-.335.548-.157.886-.06.08-.19.184-.257.148-.012-.033-.04-.092-.06-.156-.08.124-.343.19-.124.4.007.175-.23.005-.325.083.217.458-.693.657-.184 1.027.062-.1.285-.262.373-.485.037.09.168.1.14.188-.088.224-.35.226-.37.485l-.34-.21c-.55.167.12 1-.54.905z"/><path d="M29.38 38.766l-.26.06.16.063c-.006-.06.038-.116.1-.123zm-.1.124c.001.043.01.086.024.127.024-.032.03-.073.017-.1zm-1.77 2.926c-.06-.006-.116.018-.153.064.058.03.15.006.153-.064z"/><path d="M27.4 42l.1.027-.007-.047zm-3.863-2.668l-.36-.1c.073-.1-.23-.287 0-.323-.332.026-.307-.435-.573-.1.58.6 1.058 1.682 1.942 2.2l-.225-.02c.563.2.14.766.9.668l-.294.17c.036.12.2.128.336.156.152.062.318.125.34.353l.052-.13c.064.043.058.113.128.155v-.07a.55.55 0 0 1 .5.185c-.015.106-.105.017-.174.02.058.138.282-.033.424-.012.108.1-.022.152-.05.194a4.62 4.62 0 0 1 .6 0c.158-.012.305-.08.377-.368 0-.1-.15-.13-.03-.215-.283-.07-.417.15-.7.277h.07c-.243.47-.148-.1-.5.03.14-.166.266-.14.33-.242-.064-.137-.223-.202-.364-.147-.113.02-.234.01-.2-.247h.027c-.014-.06-.127-.027-.2-.034-.022.06.02.13.038.2-.1 0-.246.144-.334.192.054-.23-.205-.027-.233-.237.12-.172.218-.01.34-.05a1.51 1.51 0 0 1-.222-.045c-.106-.108.074-.253.1-.378-.2 0-.036.126-.266.18.087-.28-.395-.776-.75-.922.092.073.193-.1.252.03.005-.067-.185-.143-.307-.052a.7.7 0 0 1-.36-.644l-.087.14c-.314.008-.116-.478-.423-.645v.007c-.086-.063-.44.08-.487-.117.18-.072.225.02.368-.1zm-.93-.732l.235-.034c-.025-.12-.33-.086-.43.01.08.038.058.176.168.12.018-.03.08-.07.028-.096z"/><path d="M21.42 36.825c-.064-.01-.126.04-.187.056.257.377.63.8.59 1.046.03.164.314.013.48.133l-.132.2c.17.012.152.405.383.117.02-.027-.19.017-.186-.092l.1-.055-.147-.147.163-.03c.03-.35-.49.088-.557-.278l.26-.163c-.108-.2-.26-.242-.208-.51 0 0-.13.08-.058.08.006.04-.07.15-.163.175-.387-.167.183-.052.16-.322-.334-.137-.774-.53-.645-.8-.09.213-.364.136-.432-.017.056-.12.184-.046.276-.07-.01-.083.025-.175-.053-.22a.37.37 0 0 1-.507.126c.032.442.675.428.853.78z"/><path d="M21.134 36.86a.09.09 0 0 0 .1.022l-.087-.13z"/><use xlink:href="#F" x="0.001" y="0.001"/><path d="M29.43 43.678l.14-.13-.14-.137z"/><path d="M30.423 43.223l.073-.314c-.564-.1-.314-.23-.88.023 0 .2-.008.6.2.664.036-.12-.066-.374.076-.5.1.14 0 .306.136.48.283-.185-.033-.224.18-.477zm-.31-.576a.81.81 0 0 0 .209.168c-.07-.068-.103-.256-.2-.168z"/><path d="M30.15 42.453c.108-.165.176.095.212.1l-.2-.36zm.393-.715l.014-.1c-.065.007-.035.05-.014.1z"/><path d="M30.693 41.366c-.145.015-.13.137-.14.277h.026c.144-.052.313.155.172.286-.038.194-.248.066-.18.287l.283-.108c.1-.28-.125-.594-.162-.742zm-.15.372a.4.4 0 0 1-.035.1c.06-.02.05-.058.035-.1zm-.213.352v.114l.105.026zm.665-1.325c.28.2-.26.406-.05.573a.39.39 0 0 1 .57-.173l.045-.306c-.067-.146-.352-.154-.566-.094zm1.032-.105c-.015-.026-.022-.056-.02-.086a.1.1 0 0 0 .019.086zm.183-1.573v.76c-.067-.106-.173-.134-.134-.3-.183.245-.01.38-.158.583-.316-.08.187-.4-.13-.4a.6.6 0 0 0-.016.646l-.323.146.353.078c.142-.054-.134-.327.113-.277.148.038.12.15.113.237.023-.2.473-.308.605-.65.152-.358-.375-.532-.402-.833z"/><path d="M32.56 39.242l.142.023-.177-.058zm-.05-.867l.025.415c-.062.013-.125.013-.187 0 .078.026.153.173.218.2.355 0 .117-.43.16-.623.364-.378.138.1.493.065-.074.12-.143.1-.254.252.458-.106.354-.6.37-.815-.055.036-.148 0-.174.113l.006-.23c-.323.066-.468.195-.657.63z"/><path d="M32.213 38.935c.042-.128.086-.16.13-.15-.1-.01-.166-.002-.13.15zm1.164-1.177c-.028.01-.04.045-.043.1.03-.023.048-.06.043-.1zm-.424.002l.147-.2-.178.017c-.001.034-.04.153.03.183z"/><path d="M37.898 29.615c-.122-.043-.22.006-.293.186-.137-.1.013-.3-.016-.454-.22.17-.172-.1-.347-.125-.152.24-.02.458-.207.7a.23.23 0 0 0-.174-.063c-.065.453-.252.88-.54 1.233a2.38 2.38 0 0 0-.38.905c-.665 1.05-1.124 2.275-1.895 3.376l.2.323c-.176-.02-.15.28-.32.145.07-.045.073-.122.1-.2-.392.113-.338.678-.592.93.07-.007.35.08.347.2-.312-.2-.185.36-.606.248-.255.253.277.163.057.45.174.135.255-.252.43-.23.1.18-.22.25-.01.343.34-.782.6-1.596.774-2.43l.136.178a1.72 1.72 0 0 1 .88-1.262c-.2-.018.4-.53-.014-.684.14-.05.143-.1.252-.213l-.1-.106c.112-.2.283-.065.395-.3-.246.06-.207-.134-.308-.277.33-.165.657-.384.936-.536a.43.43 0 0 0-.251.018c.145-.128-.03-.2-.062-.263.075-.16.28-.025.384.042.218-.247-.122-.6.13-.736l-.2-.02c.116-.315.442-.454.56-.806.32-.025.056.376.083.564.085-.038.174-.168.276-.17a6.41 6.41 0 0 1-.1-.756c.182.307.398-.1.476-.2zm-.375.957c.01.05.024.098.042.145-.003-.043.012-.085.04-.117-.023-.02-.052-.03-.082-.028z"/><path d="M37.898 29.615l.03.01c.002-.04-.01-.035-.03-.01zm-1.614 1.512a.5.5 0 0 0 .038-.034l.035-.05zm.646.67a2.11 2.11 0 0 0-.315.146c.1.015.164.026.315-.146zm-1.25 1.865c0 .077.068.07.1.143.075-.12.042-.194-.1-.143zm2.082-3.416l.083-.272v-.115zm4.015-2.592c-.272-.2-.614-.02-.92-.032-.54.185-.01.515-.53.6l.034-.487c-.517.1-1.288.075-1.66.548-.043-.05-.152-.1-.03-.2-.347.108.012.68-.35.678.07-.208.034-.262-.063-.3s-.224-.034-.25-.2l.046-.065a2.34 2.34 0 0 0-.544.725c.1.07.33.065.23.246.064-.058.163.047.266.116-.014-.226.123-.246.106-.443.186.058-.02.084.16.143.006-.07.018-.14.037-.206.1-.024-.008.193.146.14-.01-.062.004-.127.042-.177a.29.29 0 0 1 .158-.1l-.022.063c.08-.1.245-.036.155-.292.052.08.134.162.2.242l-.053-.176c.417.023.622.437 1.122.15-.132-.04-.028-.15.036-.192-.235-.1-.255.167-.46.216-.053-.177.275-.434.008-.512.3.182.52-.088.694.348.34-.01.438-.245.8-.18v.07c.028-.305.292.1.507-.23l-.187-.047c-.006-.122.082-.137.2-.173-.008.05-.008.05.038.1.012-.22.4-.3.432-.368-.165-.018-.342.182-.524.26.074-.123.024-.3.2-.282z"/><path d="M38.6 28.857l.033-.122c-.028.034-.04.078-.033.122zm4.748-1c.213.025-.02.188.16.267.07-.08.028-.156-.034-.237s-.144-.168-.05-.292c.132.114.336-.1.44-.092-.115.115-.085.408-.07.47.08-.073.2.1.275.145-.192-.266.26-.014.094-.3.07-.167.45-.12.476.077-.082.092-.145.012-.22-.023-.17.167.1.2-.008.4.193-.06.46.118.638.316s.33.4.56.177c.07-.16-.1-.248-.165-.37.04.412-.255.1-.35.12.018-.176-.266-.287-.082-.35.103.028.204.066.3.113a1.67 1.67 0 0 0-1.09-.96c-.26-.08-.532-.1-.8-.062l-.666.125.37-.032c-.027.145-.2.174-.328.257l.22.32c-.1-.012-.206.05-.2-.073-.113.16-.044.24.048.35-.27.1-.33-.036-.516.2.5.226.36-.277.914-.093z"/><path d="M42.356 28.16l.1-.186-.16.105zm.087-.773c.014.075-.05.116-.036.2.22.026.184-.075.036-.2zm2.1 1.05a1.13 1.13 0 0 1 .165.129 1.32 1.32 0 0 0-.02-.152.15.15 0 0 1-.144.023zM45.683 30c-.015-.193-.062-.33-.082-.476a1.33 1.33 0 0 1 .063-.557c-.252-.216-.406.154-.62.07-.04.18.334.172.407.395-.2.08.038.33-.01.543.08-.03.17-.02.243.026z"/><path d="M44.923 31.316c0 .176.147.356.054.5-.052-.007-.098-.038-.124-.084s-.03-.1-.01-.15c-.277.063.042.2-.143.384.03-.016.077-.086.137-.03-.067.474.226.27.066.883.076.1.074.178.257.166-.233.347-.23.17-.436.6a2.38 2.38 0 0 1 .583-.145c-.325.6.043.607-.2.984-.01-.042-.07-.095-.04-.2-.32.046.057.32-.007.528l-.273-.022c.042.194.22.533.02.776l-.137-.056a8.19 8.19 0 0 1 .211 1.5l-.17.226c.207.586.1-.58.506-.15-.505.06.163.3-.04.634-.2.155-.1-.337-.334-.164.26.075.075.177.148.355-.244-.04-.034.37-.3.26l.45.624a.37.37 0 0 0-.082.413c0-.335.364.093.478-.283a6.2 6.2 0 0 1-.064-2.152c-.336-.077.005-.44-.27-.552.107-.015.2-.067.307-.082-.07-.442-.184.1-.306-.006-.013-.082.01-.166.064-.23s.133-.1.216-.1c.02-.316-.1-.037-.272-.2l.37-.2a11.93 11.93 0 0 1-.141-3.422l-.23.082c.128-.507-.5-.86-.008-1.3l-.2-.158c.1.087.347-.083.5.053-.077-.14.013-.286-.056-.43l-.113.253c-.077-.058-.112-.156-.1-.25s.096-.166.2-.185c-.225-.384-.4.22-.6.3.418.542-.426.533-.253 1.05.146.32.228-.03.35-.01zm.64-.653c-.015-.03-.035-.057-.06-.08a.3.3 0 0 0 .06.079zm-.5 8.477a.9.9 0 0 0 .014.15c.055.052.016-.03-.014-.15zm.388-9.17z"/><path d="M44.878 29.707l-.01.142.105-.023zm-.12 10.938h.12c-.04-.015-.082-.015-.12 0zm-.088 4.075l.007-.088a.1.1 0 0 0-.007.088z"/><path d="M41.053 50.324a2.02 2.02 0 0 0-.87.152l.047-.113c-.15.025-.65.1-.412.384l.1-.086c.373-.094.192.254.435.393.327.015.6-.39.856-.225.125.014.082.13.027.21.278.092.454-.234.65-.246-.062.925.895-.114 1.25.49.223-.034.744.054 1.03-.26-.11.3.34-.12.377.136-.07-.264.187-.34.413-.514s.395-.42.107-.6c.187-.17.17-.193.163-.207s-.01-.037.122-.3c.074.012.058.11.06.152.19-.222-.234-.38.072-.545.045-.423-.183-.07-.366-.318.075-.44.168-.318.442-.563-.32-.036-.168-.3-.336-.513-.015.053-.075.353-.2.16.047-.512-.215-.407-.305-.884.352-.244.016.477.3.055.168.3.153.53.413.69a3.85 3.85 0 0 0-.2-1.341c.045-.246.168.124.2-.07.152-.44-.367-.672-.214-1.024l.183.072c-.245-.213.055-.776-.078-1.18-.092.052-.154.087-.215.033.46 0-.236-.566.088-.97-.3.033-.452-.357-.482-.6.078-.063.18-.088.28-.068-.175.4.314.39.448.7-.15-.266.008-.705-.2-.936l.228.1c.034-.37-.515-.322-.3-.708l.167.038c-.02-.776.28-1.688-.092-2.31-.137-.054-.462.258-.57.275.14.3.3.59.48.87h-.262c.18.065.285.406.426.216.134.23-.23.174-.082.44-.274-.02-.3-.18-.53-.183l.134.23c-.106-.072-.093.14-.2.07.33.427-.13.6.017 1.04l.05-.247c.152 0 .136.143.18.25-.215.12-.186.192-.28.42.12.2.393.3.4.568-.3-.056-.16.44-.4.49.29.054.1.512.268.548.06.142.027.336-.128.335a1 1 0 0 1-.049-.107l-.01.142c-.034-.014-.058-.008-.064-.025-.008.126.2.126.06.29-.076 0-.074-.09-.1-.16-.052.336.44.586.18.866.136.054.152.442.458.355-.108.1-.352.07-.306.35.26.16-.092.317.076.53-.275-.284-.076 0-.338-.25-.106.194.245.478.2.813-.062.034-.14.034-.2.07.092.124.3.265.09.388l.184-.017c-.092.23-.03.546-.23.793l.35.282c-.145.132-.213.328-.18.52l.106.646c-.1.112-.3.21-.352.148l.014-.188c-.146.134-.413.07-.367.37-.143.165-.21-.123-.34-.13-.05.112-.16.185-.28.187a1.2 1.2 0 0 1-.388-.073c-.27-.07-.5-.117-.6.185.27.09.55.15.833.18-.1.07-.03.2-.17.2-.32 0-.49-.244-.832-.183l.09-.39c-.498-.47-1.175.36-1.503-.3z"/><path d="M44.753 50.002a1.28 1.28 0 0 1-.274.038l.145.093a.16.16 0 0 1 .129-.131zm-.13.13a.86.86 0 0 0-.02.144c.037-.03.058-.074.056-.12zm-4.524.04a.4.4 0 0 0-.255-.067.23.23 0 0 0 .255.067z"/><path d="M39.795 50.22l.1.1.028-.04zM33.012 48l-.463.03c0-.14-.47-.224-.24-.34-.346.137-.657-.362-.7.092 1.08.462 2.432 1.4 3.83 1.58l-.264.068c.77-.034.768.7 1.525.288l-.186.3c.273.2.74-.248.943.194l.012-.14c.084.03.1.1.183.127l-.015-.07a.6.6 0 0 1 .587.161c-.016.107-.117.012-.194.018.07.135.3-.03.48.025.108.13-.045.146-.077.184.557.01.7.416 1.2.028.06-.08-.1-.2.108-.192-.3-.24-.623-.125-.97-.086l.086.026c-.382.4-.156-.158-.6-.077.162-.157.33-.1.43-.184-.34-.5-.73.073-.88-.48h.038c-.052-.065-.2-.018-.312-.01.013.07.1.132.154.2-.115.008-.237.194-.3.268-.046-.243-.187.046-.336-.12 0-.2.213-.118.316-.2l-.264.052c-.2-.06-.125-.273-.187-.4-.218.08.062.137-.146.287-.13-.3-1.056-.6-1.558-.6.16.037.134-.174.3-.07a.28.28 0 0 0-.378.071 1.3 1.3 0 0 1-.9-.513l.014.176c-.34.126-.5-.445-.958-.5l.007.007c-.142-.036-.423.238-.624.047.153-.127.275-.048.346-.217zm-1.55-.458l.23-.1c-.1-.126-.416-.007-.46.13.113.022.187.184.265.1-.001-.04.04-.105-.036-.12zm-2.568-2.072c-.08-.052-.143 0-.212-.012a2.48 2.48 0 0 0 .405.61 3.37 3.37 0 0 0 .514.434 1.5 1.5 0 0 1 .531.479c.148.175.357-.07.623.02l-.013.25c.2-.032.448.42.5.03 0-.036-.193.07-.266-.054l.08-.092-.262-.126.158-.077c-.207-.4-.478.23-.806-.163l.176-.25c-.26-.2-.447-.187-.6-.524 0 0-.1.117-.01.106.045.084.02.2-.056.246-.632-.2.18-.073-.052-.438a1.38 1.38 0 0 1-.728-.686.83.83 0 0 1-.02-.835c-.187.258-.4-.146-.3-.5.145-.12.145.15.234.2.06-.135.16-.217.168-.36-.2.117-.425-.06-.338-.47a1.27 1.27 0 0 0-.193 1.171 9.49 9.49 0 0 0 .447 1.036z"/><path d="M28.564 45.34c.04.078.08.1.12.11-.047-.1-.085-.202-.115-.308l-.004.2z"/><use xlink:href="#G" x="0.002"/><path d="M47.376 50.022l.064-.27-.188-.083z"/><path d="M48.04 48.742l-.082-.46c-.54.27-.386-.088-.768.635.086.252.28.807.5.732-.025-.18-.233-.446-.168-.716.156.115.14.4.345.538.164-.436-.134-.272-.063-.75zm-.545-.542c.08.046.17.072.263.076-.093-.042-.2-.264-.263-.076z"/><path d="M47.437 47.916c.018-.3.2 0 .23-.026l-.352-.328zm.02-1.216l-.032-.135c-.056.047-.01.085.032.135z"/><path d="M47.42 46.116c-.122.12-.05.27.006.46l.023-.02c.1-.167.35-.012.284.257.054.28-.192.257-.028.5l.2-.336c-.03-.44-.388-.7-.485-.862z"/><path d="M47.457 46.7c.01.052.015.105.015.158.034-.05.028-.116-.015-.158zm-.03.618l.053.15.105-.037zm-.024-2.196c.34.07-.04.7.224.786-.012-.4.237-.705.424-.62l-.1-.433c-.13-.14-.386.04-.548.267zm.863-.85c-.028-.027-.048-.062-.057-.1.014.048.03.086.057.1zm-.57-2.19l.336 1.012c-.108-.094-.215-.056-.253-.287-.048.448.168.506.132.875-.317.112-.02-.65-.3-.438a1.09 1.09 0 0 0 .287.859l-.218.414.35-.14c.1-.17-.27-.338-.03-.442.15-.052.176.115.2.234-.068-.267.275-.73.232-1.273-.036-.57-.583-.436-.747-.813z"/><path d="M48.077 42.045l.136-.067-.183.046zm-.45-1.105l.215.527a.41.41 0 0 1-.167.126c.08-.02.216.122.282.1.315-.242-.1-.645-.15-.927.145-.747.168.034.465-.255-.01.2-.084.216-.107.506.356-.456.034-1.03-.052-1.325-.032.086-.13.107-.1.27l-.1-.3c-.273.366-.377.83-.286 1.28z"/><path d="M47.628 41.88c-.022-.2 0-.27.046-.286-.085.05-.147.117-.046.286zm.48-2.347c-.017.05-.015.108.008.157a.23.23 0 0 0-.008-.157zm-.373.297l.035-.37-.15.145c.016.05.038.232.114.224z"/><path d="M48.735 26.46c-.092-.083-.222-.074-.32.1-.13-.12.08-.318.14-.472-.316.12-.124-.16-.3-.235-.336.284-.263.565-.445.923-.054-.042-.128-.047-.187-.012a5.35 5.35 0 0 0 .065 1.007 2.94 2.94 0 0 1-.055.988 5.14 5.14 0 0 0 .064 1.448c-.134 1.837.057 3.76-.12 5.736l.33.283c-.166.095 0 .472-.216.414a.86.86 0 0 0 0-.342c-.294.42.018 1.123-.1 1.63.06-.058.348-.138.4.014-.368-.043 0 .6-.42.746-.108.508.322.02.26.55.216.057.108-.507.272-.6.175.167-.078.478.15.456a26.76 26.76 0 0 0-.448-3.722l.2.138c-.18-.756-.114-1.55.2-2.265-.194.122.1-.977-.332-.885.08-.14.122-.295.124-.455l-.14-.067c.007-.34.217-.282.212-.672-.194.25-.245-.03-.4-.148l.6-1.352a.45.45 0 0 0-.217.2c.073-.268-.1-.226-.173-.3 0-.26.24-.228.364-.212.084-.475-.378-.7-.215-1.053l-.2.12c-.008-.235.016-.47.07-.7a3.95 3.95 0 0 0 .078-.682c.155-.073.186.03.2.144a.8.8 0 0 1 .019.094l.022.144a.92.92 0 0 0 .06.239c.06-.1.077-.356.168-.4-.17-.186-.26-.432-.246-.684.18.308.398-.08.5-.116zm-.255.8c.04.04.074.118.1.145-.015-.04-.034-.132-.017-.15-.028-.005-.056-.003-.083.006z"/><path d="M48.735 26.46l.025.02c.014-.033.002-.034-.025-.02zm-1.1 2.372c.008-.02.012-.047.02-.07l.01-.1zm.88.425c-.083.13-.156.268-.217.4.1-.04.158-.078.217-.4zm-.27 3.31c.034.1.093.045.157.116.008-.208-.055-.28-.157-.116zm.358-5.592c.006-.074.022-.148.047-.218a.84.84 0 0 1 .006-.1.89.89 0 0 0-.053.318zm6.587-3.78c-.427-.053-.85.3-1.275.43-.715.4.1.515-.634.82l-.04-.5a6.17 6.17 0 0 0-2.3 1.172c-.073-.038-.227-.064-.054-.192-.5.175-.052.736-.77.8.54-.475-.287-.2-.2-.546l.087-.062-1.2.537c.047.118.288.217.017.35.125-.03.13.12.177.235.053-.1.236-.163.35-.213a.79.79 0 0 0 .33-.218c.264.1-.133.095.132.182l.272-.236c.243-.034-.192.227.178.15.014-.1.276-.3.563-.357l-.064.078c.2-.128.522-.152.336-.372l.336.17-.1-.158c.6-.126.97.2 1.645-.273-.2.014-.066-.137.018-.2-.354-.006-.34.267-.628.395-.1-.156.325-.537-.07-.513.467.065.73-.3 1.055.07.482-.156.583-.414 1.106-.53l.014.068c-.03-.314.445-.047.66-.5l-.274.054c-.04-.116.078-.176.233-.273 0 .052 0 .052.08.08-.04-.22.46-.5.494-.6-.23.072-.418.363-.65.533.07-.178-.046-.32.185-.392z"/><path d="M50.612 25.77l.124-.148a.27.27 0 0 0-.124.148zm6.76-3.264c.307-.108.01.2.32.15.216-.287-.475-.1-.3-.445.236.022.407-.33.52-.4-.065.182.145.395.226.42.07-.13.38-.14.57-.237-.54.1.328-.307-.176-.25-.026-.083.05-.213.164-.316a.46.46 0 0 1 .4-.115c.014.122-.134.137-.246.2 0 .246.32.01.42.225a1.1 1.1 0 0 1 1-.2c.373.063.688.226.668-.148-.1-.207-.323-.2-.52-.264.467.364-.127.23-.186.32-.172-.176-.572-.062-.462-.232.13-.05.268-.087.407-.108a1.94 1.94 0 0 0-1.014-.12 2.7 2.7 0 0 0-1 .415l-1.73 1.014.492-.246c.01.154-.216.284-.364.438l.4.178c-.154.052-.266.167-.3.052-.106.22.012.256.17.307-.342.245-.463.155-.65.5.747-.062.416-.47 1.233-.62z"/><path d="M56.12 23.37l.07-.23-.188.2zm-.108-.796c.04.064-.033.14.008.2.308-.096.226-.172-.008-.2zm3.578-.852c.105-.017.212-.02.318-.012a1.43 1.43 0 0 0-.2-.106c-.001.078-.08.1-.118.118zm2.64.798c-.44-.37-.728-.42-1.078-.993-.383-.054-.18.4-.418.465.2.257.43-.048.72.126-.043.227.382.3.583.555a.2.2 0 0 1 .192-.153z"/><path d="M63.15 24.415c.187.182.484.253.568.465-.1.067-.25-.008-.34-.14-.118.268.24.167.314.5 0-.04-.04-.145.06-.133.458.54.44.112.982.864.148.037.24.13.35-.018.2.53.024.345.33.927.056-.094.082-.414.244-.576.406.848.675.6.9 1.163a.51.51 0 0 1-.235-.174c-.17.282.377.287.556.55l-.212.176c.236.17.718.4.838.787l-.154.04c.6.43 1.2.897 1.74 1.4l.122.357c.765.456-.548-.67.192-.52-.286.428.434.194.646.682.025.307-.43-.273-.406.07.26-.108.24.13.48.26-.2.134.37.406.06.5l.977.322c.01.2.217.372.382.485-.353-.35.353-.163.033-.634a13.57 13.57 0 0 1-2.332-2.18c-.314.163-.465-.46-.77-.376.058-.093.067-.214.124-.307-.518-.406-.02.24-.218.216-.237-.17-.26-.476-.157-.544-.323-.34-.1.028-.4-.01l.038-.48a26.04 26.04 0 0 1-3.734-3.437l-.07.254c-.452-.62-1.267-.5-1.4-1.32l-.3-.015c.17.006.143-.34.395-.318-.2-.085-.3-.3-.505-.393l.2.34c-.124-.008-.24-.068-.316-.167s-.107-.225-.084-.347c-.567-.22-.03.52-.072.747.867.237.292.853.966 1.247.425.226.102-.2.2-.26zm-.28-1.133a.41.41 0 0 0-.126-.035.43.43 0 0 0 .126.035z"/><path d="M71.55 32.396a1.91 1.91 0 0 0 .169.145c.094.013-.02-.043-.17-.145zm-9.512-9.72h.007zm-.66.15l.147.15.045-.1zM72.94 34.158l.087-.084c-.043.01-.076.042-.087.084z"/><path d="M76.966 38.374a.52.52 0 0 0-.034-.084c.001.03.013.06.034.084zm-9.944 8.76a3.67 3.67 0 0 0-.931.837l-.027-.122c-.16.152-.706.606-.2.623l.053-.14c.376-.383.414.022.8-.082.4-.264.446-.78.86-.887.156-.1.2.023.183.13.388-.17.366-.556.6-.732.56.756 1-.86 1.82-.675a7.33 7.33 0 0 0 1.1-.915c-.094.34.4-.248.456.025-.2-.522 1.33-.63 1-1.237.653-.258 0-.052.714-.4.045.06-.06.14-.094.183.334-.08.205-.515.6-.428.518-.36-.03-.2.143-.586.553-.352.47-.164.927-.18-.162-.28.242-.4.367-.75-.068.042-.443.284-.306 0 .595-.462.3-.555.747-1.1.5.007-.492.492.143.266-.2.428-.467.644-.474 1a6.18 6.18 0 0 0 1.305-1.526c.285-.234-.007.25.214.063.247-.16.414-.42.456-.712a2.76 2.76 0 0 1 .128-.726 2.03 2.03 0 0 1 .163.139c-.062-.27-.102-.547-.118-.824a1.31 1.31 0 0 0-.533-.878c-.01.118-.02.2-.12.183.332-.316-.762-.426-.953-1.075-.172.238-.7-.055-.976-.294-.034-.147.07-.213.126-.267.3.546.633.188 1.064.428-.386-.173-.736-.745-1.128-.838l.257-.067c-.364-.4-.706.03-.96-.526l.158-.08c-.84-.788-1.6-1.946-2.52-2.323-.154.04-.05.6-.108.7.4.207.83.393 1.26.557l-.187.183c.194-.06.63.216.53-.08.34.144.022.344.4.513-.215.173-.4.03-.568.188l.34.144c-.15 0 .083.2-.067.213.685.208.544.708 1.113 1.064l-.225-.292c.1-.106.25.052.4.132-.025.278.07.332.242.637.3.12.6.04.872.32-.264.145.348.572.227.8.132-.072.284.044.423.17s.2.212.283.192c.152.1.215.35.06.4-.013-.02-.057-.05-.087-.087.018.045.032.092.042.14-.036 0-.058.01-.068 0 .027.1.237.083.117.27-.08 0-.08-.082-.128-.14a1.9 1.9 0 0 0 .173.452c.057.16.05.35-.142.42.044.06.01.185-.023.312s-.062.267.1.328c-.184.038-.325-.165-.577.163.02.35-.4.265-.5.6.106-.487-.05-.056.023-.5-.27.12-.324.66-.72.956-.077-.013-.128-.07-.207-.082-.073.187-.1.486-.365.436l.137.126c-.32.14-.644.482-1.047.553l-.107.54c-.68.047-1.07.772-1.255 1.3-.18.106-.474.234-.517.17l.112-.233c-.26.165-.675.213-.652.55-.208.254-.3-.035-.522.052-.3.692-1.725.74-1.577 1.36a7.29 7.29 0 0 0 1.121-.566c-.07.135.08.183-.067.294-.406.3-.754.217-1.13.564l-.148-.373c-.908.1-1.153 1.264-2.003 1.08z"/><path d="M72.416 43.83l-.4.043.13.117c.068-.088.17-.145.28-.16zm-.28.16a1 1 0 0 0-.125.186.42.42 0 0 0 .157-.156zm-6.37 3.83c-.13.027-.25.08-.357.16a.47.47 0 0 0 .357-.159z"/><path d="M65.436 48.103l.192-.017v-.052zm-9.994 3.42l-.54.33c-.12-.106-.754.134-.572-.1-.305.342-1.1.154-.766.53 1.693-.34 4.1-.54 5.933-1.438l-.268.242c.914-.572 1.477-.05 2.08-.9v.352c.5-.05.7-.753 1.3-.58l-.094-.112c.124-.043.194 0 .32-.046l-.07-.04a1.31 1.31 0 0 1 .83-.345c.06.1-.132.1-.22.167.185.043.353-.268.6-.362.23.01.055.143.045.2.686-.42 1.152-.27 1.467-.946.012-.106-.258-.073-.012-.227a2.45 2.45 0 0 0-1.231.726l.123-.047c-.167.588-.3 0-.8.422.078-.243.322-.338.38-.475-.785-.093-.824.642-1.428.344l.044-.03c-.113-.01-.255.137-.388.23a1.09 1.09 0 0 0 .34.029c-.134.095-.14.323-.16.426-.24-.143-.2.178-.5.172-.16-.154.167-.252.232-.388l-.28.243c-.294.115-.36-.1-.542-.157-.2.222.182.056.043.322-.834.04-1.646.28-2.367.7.223-.088.026-.227.312-.27-.112-.018-.44.177-.406.326-.464.23-.986.318-1.5.253l.158.122c-.3.34-.96.016-1.58.277h.015c-.2.07-.32.475-.72.46.08-.198.288-.224.234-.4z"/><path d="M53.184 52.19l.2-.235c-.24-.022-.5.28-.44.412.154-.062.376.01.39-.115-.03-.027-.037-.103-.14-.062z"/><path d="M48.566 52.3c-.126.013-.123.1-.192.137a2.51 2.51 0 0 0 .512.108 3.47 3.47 0 0 0 .456.01h.722c.353-.023.707.004 1.052.08.33.048.37-.273.768-.375l.2.2c.206-.156.884.007.618-.32-.03-.028-.172.185-.362.143l.02-.124-.42.082.124-.163c-.593-.175-.377.5-1.1.38v-.307a2.31 2.31 0 0 1-1.14-.087s-.006.152.075.092c.08.018.183.14.127.23-.732.23.113-.18-.4-.313a3.46 3.46 0 0 1-.561.128 1.83 1.83 0 0 1-.783-.1 1.26 1.26 0 0 1-.87-.838c.032.2-.063.23-.215.143a1.05 1.05 0 0 1-.4-.554c.03-.243.22.088.338.1-.024-.2-.06-.38-.1-.564-.1.3-.4.213-.538-.37a1.77 1.77 0 0 0 .651 1.567 4 4 0 0 0 1.427.715zm-.41.126c.07.035.15.038.22.01-.15-.048-.296-.1-.435-.187a2.66 2.66 0 0 0 .215.177z"/><use xlink:href="#B"/><use xlink:href="#H" y="-0.002"/><use xlink:href="#J"/><use xlink:href="#K" y="-0.001"/><use xlink:href="#L" y="-0.001"/></g><defs ><path id="B" d="M18.778 66.622c1.295 2.72-1.115 6.1-2.768 7.514-2.363 2.13-5.714 2.764-8.692 1.647-1.976-.842-3.84-3.3-4.224-6.734-.944-8.88 5.86-17.127 10.4-19.34 2.19-1.08 4.23-1.426 5.675-.37a7.82 7.82 0 0 1 2.492 2.869c.48 1.2.46 2.54-.055 3.725-.516 1.356-.96 3.043-1.316 4.3-.1.347-.367.624-.9.332-1.02-.544-1.806-1.786-1.36-3.94.477-2.28 1.778-4.806.725-5.728-1.285-1.156-7.365 2.8-10.6 9.38-3.157 6.448-2.2 12.62.008 14.12 2.876 1.947 7.078-1.25 9.72-7.783.17-.48.637-.515.894.007z"/><path id="C" d="M83.863 17.76l.413.13a1.74 1.74 0 0 0 1.517-.246c.416-.29.674-.757.7-1.263l-.025-.205c-.26-2.444-.717-4.862-1.37-7.23-.908-2.622-1.45-3.77-2.456-4.823s-5.44-1.982-7.95 3.163c-.54 1.17-1.193 2.284-1.953 3.324l-.918 1.257a1.6 1.6 0 0 0-.332 1.5c.16.515.573.91 1.093 1.052q5.682 1.6 11.28 3.343z"/><path id="D" d="M65.284 22.865q5.076 4.88 10.033 9.842 1.395 1.4 2.783 2.8c.35.356.838.54 1.335.5s.956-.295 1.25-.7c.48-.562.918-1.16 1.306-1.792a31.5 31.5 0 0 0 3.949-9.036c.182-.712.32-1.435.408-2.165.155-.82-.334-1.625-1.133-1.867q-1.08-.34-2.165-.673-5.93-1.827-11.954-3.522-.944-.264-1.888-.526a1.84 1.84 0 0 0-1.625.336q-1.82 1.45-3.628 2.91c-.38.3-.616.75-.65 1.233a1.6 1.6 0 0 0 .494 1.255q.747.695 1.484 1.404z"/><path id="E" d="M21.414 35.555a45.05 45.05 0 0 0 4.18 6.054l.133.16a1.65 1.65 0 0 0 1.391.389 1.73 1.73 0 0 0 1.237-.906l.2-.384q2.7-5.2 5.547-10.374a1.57 1.57 0 0 0 .019-1.517 1.6 1.6 0 0 0-1.3-.816c-.48.002-.956-.066-1.416-.2a29.15 29.15 0 0 1-3.862-.978c-5.424-1.832-7.892 1.983-7.837 3.434s.48 2.652 1.708 5.137z"/><path id="F" d="M29.505 43.716a1.63 1.63 0 0 0 .533 2.118 17.15 17.15 0 0 0 1.83 1.235 31.4 31.4 0 0 0 9.2 3.54c.72.164 1.453.274 2.2.327a1.72 1.72 0 0 0 1.377-.4 1.69 1.69 0 0 0 .59-1.3q-.022-1.97-.036-3.942-.045-7.014.047-14.057l.03-2.048a1.6 1.6 0 0 0-.544-1.231 1.73 1.73 0 0 0-1.334-.4q-2.3.257-4.62.536a1.85 1.85 0 0 0-1.384.921l-.952 1.713q-3.033 5.476-5.9 10.98z"/><path id="G" d="M47.46 50.02a1.75 1.75 0 0 0 .537 1.245 1.78 1.78 0 0 0 1.272.488 23.22 23.22 0 0 0 2.809-.062 40.65 40.65 0 0 0 22.954-9.594c.71-.6 1.385-1.263 2.017-1.955.7-.668.73-1.777.062-2.48l-.024-.025q-1.034-1.042-2.075-2.08-5.526-5.52-11.2-10.947-1.51-1.44-3.026-2.873c-.574-.528-1.416-.642-2.11-.284 0 0-2.7 1.552-4.75 2.408l-5.052 1.686c-.738.245-1.247.923-1.276 1.7q-.048 2.085-.083 4.172-.128 7.846-.082 15.662.013 1.474.026 2.94z"/><path id="H" d="M41.792 73.94c-3 .106-4.422-2.385-3.732-5.645.548-2.662 2.737-5.74 4.2-7.78a8.9 8.9 0 0 1-4.553 1.918 5.97 5.97 0 0 1-4.528 3.557c-.487 3.36-2.54 7.558-5.325 8.737-1.77.8-3.86.3-5.063-1.235-1.865-2.14-1.577-5.56-.18-8.765 1.238-2.8 3.49-5.182 5.8-5.58 1.04-.23 2.116.203 2.7 1.09 1.034 1.12 2.178 1.254 2.23 4.1.017.194-.043.394-.023.627a4.44 4.44 0 0 0 2.811-2.666c-2.974-.988.375-6.432 1.92-6.606 1.352-.157.9 2.73.307 4.85 1.492-.424 2.868-1.185 4.02-2.224.473-.393.81-.54 1.155-.18.767.752 1.895 2.49.848 3.907a23.04 23.04 0 0 0-3.787 7.121c-.55 2.194.047 3.664 1.293 3.632 1.56-.018 3.307-2.785 4.3-5.72.125-.362.39-.463.574-.128.36.798.394 1.703.1 2.527-.845 2.416-2.938 4.393-5.078 4.463zM27.766 62.13a14.36 14.36 0 0 0-2.664 3.9c-1.408 3.09-1.642 6.66-.558 7.463s3.364-.8 4.993-4.494a16.31 16.31 0 0 0 1.078-3.294 4.82 4.82 0 0 1-2.848-3.574zm3.056-.305c-.266-1.265-1.09-.88-1.148.256a2.89 2.89 0 0 0 1.192 2.471 8.83 8.83 0 0 0-.041-2.726z"/><path id="I" d="M56.788 56.63c1.295.082 2.66 1.875 1.87 3.972-.664 1.776-2.312 4.807-3.027 6.9-.81 2.334-.42 4.132.968 3.935 1.58-.217 3.255-2.938 4.5-5.778.163-.365.434-.39.655-.1.333.8.283 1.7-.135 2.47-.856 2.26-3.123 4.448-5.37 4.645-3.292.288-4.276-2.047-3.447-5.514.946-3.907 4-8.308 3.27-8.558-.4-.12-2.553 1.16-4.794 4.087-2.068 2.678-3.447 6.544-4.794 10.33-.124.362-.343.537-.722.22-.842-.708-1.187-1.965-.736-3.955.56-2.507 3.073-8.15 5.2-11.965.234-.45.547-.438.813-.072a4.61 4.61 0 0 1 .437 3.669c1.582-2.007 4.026-4.367 5.32-4.285z"/><path id="J" d="M66.398 70.58c3.227-.127 5.783-3.472 7.225-6.173.167-.327.476-.354.662-.02.195.846.033 1.735-.448 2.458-1.526 2.648-4.195 4.44-7.225 4.846-4.912.507-7.038-4.185-4.957-9.4s5.855-7.573 7.89-6.62c.94.423 1.78 1.04 2.46 1.814.778.868.675 3.258-.78 5.375-1.7 2.49-4.2 3.723-7.1 1.752-.934 3.67.212 6.03 2.272 5.967zm2.435-9.19c1.1-1.734 1.774-3.823 1.194-4.2-.87-.587-3.88 2.017-5.38 5.855-.1.242-.192.485-.253.686 2.003 1.034 3.444-.77 4.444-2.34z"/><path id="K" d="M74.635 54.096c-.43-.47-.142-.73.44-.78l3.095-.31 2.5-4.9c.343-.536.69-.567.93-.08.52 1.047.636 2.363-.19 4.543l5.627-.8 2.392-4.774c.343-.537.7-.49.933-.042.555 1 .632 2.325-.118 4.46a2.78 2.78 0 0 1 2.509 1.028c.31.44.14.73-.443.74-.662.018-1.67.106-2.9.254-1.235 2.84-3.266 6.84-4.453 10.222-1.028 2.977-.356 5.3 1.238 5.238 1.75-.075 3.678-3.013 4.9-6.047.192-.485.61-.6.813-.07a3.26 3.26 0 0 1-.194 2.242c-.406 1.166-2.664 4.8-5.81 4.955-1.748.035-3.276-1.172-3.646-2.88-.88 1.52-2.62 3.507-5 3.635-2.6.15-4.826-2.544-3.4-7.156.986-2.886 2.12-5.72 3.395-8.5a3.51 3.51 0 0 1-2.626-.986zm5.868.62c-1.284 2.727-3.07 6.4-4.226 9.7-1.03 2.938-.356 5.3 1.277 5.234 1.71-.07 3.735-3.253 4.724-6.227.708-2.17 2.28-6.052 3.8-9.542l-5.585.835z"/><path id="L" d="M102.2 60.078c-.526 3.363-2.624 7.487-5.406 8.706-1.772.756-3.832.233-5.028-1.278-1.9-2.1-1.614-5.516-.14-8.768 1.242-2.76 3.408-5.214 5.717-5.57a2.65 2.65 0 0 1 2.748 1.087c1 1.123 2.18 1.292 2.192 4.1-.012.314.013.585 0 .9.232-.02.458-.12.768-.146.272-.024.288.17.15.377a1.59 1.59 0 0 1-1 .593zm-3.376-.68c-1.115-.748-1.868-1.927-2.08-3.253-1.11 1.134-2.01 2.454-2.664 3.9-1.37 3.085-1.64 6.7-.558 7.462 1.162.8 3.406-.765 4.993-4.494.45-1.04.812-2.116 1.084-3.216-.277-.094-.54-.23-.777-.4zm1.016-3.56c-.3-1.223-1.056-.923-1.152.217-.083 1.015.323 2.01 1.093 2.675a7.46 7.46 0 0 0 .059-2.893z"/></defs></svg>