<svg xmlns="http://www.w3.org/2000/svg" width="105" height="43" viewBox="0 0 104.146 42.955"><path d="M11.23 6.915c.9-2.4 1.08-4.74.06-6.42-.36-.6-.84-.66-1.26 0-3.78 5.64-8.16 14.1-9.42 17.88-1.02 3.06-.72 5.04.6 6.18.54.48.9.24 1.14-.3 2.4-5.64 5.28-11.22 8.82-15.06 3.84-4.2 6.78-5.82 7.5-5.52 1.2.42-5.28 8.7-7.26 13.68-1.74 4.32-.9 6.66.12 7.56.54.6 1.02.42 1.38-.3 2.52-5.64 5.46-11.4 10.44-16.38 3.9-3.9 5.94-4.56 6.42-4.38.9.3-4.44 7.02-6.66 12-2.22 4.92-.3 9.06 4.92 9.06 3.48 0 7.32-3 9-6.42.66-1.38.84-3.36.54-3.78s-.78-.42-1.08.12c-2.34 4.2-5.04 8.16-7.5 8.22-2.16.06-3-2.7-1.32-6.12 1.5-3 4.44-6.96 5.52-9.66 1.2-3 .72-6.54-1.44-6.6-1.98-.06-6 2.76-8.88 5.58.78-2.64-.3-5.82-2.34-5.88-2.16-.06-6.66 3.48-9.3 6.54zm29.94 6.78c4.2 3.42 8.22 1.86 11.16-1.74 2.52-3.06 3-6.72 1.92-8.16-.944-1.28-2.15-2.344-3.54-3.12-3-1.74-9.12 1.38-13.02 9.12s-1.26 15.24 6.36 15.12a15.2 15.2 0 0 0 11.76-6.48 4.87 4.87 0 0 0 1.02-3.72c-.24-.54-.72-.54-1.02-.06-2.58 3.96-6.96 8.76-11.94 8.52-3.18-.18-4.62-3.96-2.7-9.48zm.54-1.32c.12-.3.3-.66.48-1.02 2.82-5.7 7.8-9.3 9.06-8.28.84.66-.48 3.78-2.4 6.3-1.74 2.28-4.2 4.86-7.14 3zm22.74-6.06c.66-2.16.72-4.2-.18-5.7-.36-.6-.84-.66-1.26 0-3.78 5.58-8.4 13.92-9.6 17.7-.96 3-.6 4.98.6 6.18.54.54.9.3 1.14-.24 2.58-5.64 5.22-11.4 8.76-15.24 3.84-4.2 7.32-5.88 7.92-5.64 1.08.48-4.2 6.84-6.18 12.72-1.74 5.22-.54 8.94 4.56 8.94 3.48 0 7.26-3.06 8.88-6.42.84-1.74.96-3.12.54-3.78-.3-.48-.72-.48-1.02.06-2.28 4.2-5.22 8.16-7.68 8.28-2.16.12-2.52-2.7-.96-6.18 1.38-3.12 4.32-7.56 5.58-10.2 1.5-3.12-.36-6.06-2.34-6.36s-6.06 3-8.76 5.88zm25.02 12.78c-.48 3.48 1.08 5.94 4.98 5.94 3.54 0 7.26-3.06 9-6.42a5.22 5.22 0 0 0 .54-3.78c-.24-.54-.78-.48-1.08.06-2.34 4.2-5.4 8.16-7.92 8.28-2.16.12-2.4-2.4-.84-5.82 1.38-3.06 4.38-7.56 5.7-10.26 1.44-3 .96-5.64.06-6.72-.48-.6-.9-.48-1.5.36-1.92 2.58-3.66 6.72-7.44 12.84-3.24 5.22-6.54 9.42-8.88 9.24-1.38-.12-1.56-2.28-.3-5.22 1.318-3.062 2.883-6.012 4.68-8.82 2.16-3.42 2.46-6.12 1.14-8.1a.9.9 0 0 0-1.56.06 64.39 64.39 0 0 0-8.28 15.3c-1.32 3.96-1.2 8.4 3.06 8.7 3.36.24 6.54-2.82 8.64-5.64z" fill="#806342"/><path fill="none" stroke="#806342" stroke-linecap="round" d="M22.35 42.455h60"/></svg>