<svg xmlns="http://www.w3.org/2000/svg" width="110" height="59" viewBox="0 0 109.804 58.578"><path d="M19.423 20.078c.12-2.34-1.08-4.32-3.66-4.32-3 0-7.74 2.7-12.6 9.78-4.98 7.26-3.84 14.88 1.74 14.88 2.88 0 5.58-2.22 7.5-4.68 0 2.82 1.68 4.74 4.92 4.92 3.3.18 7.08-3.12 8.64-6.42a5.39 5.39 0 0 0 .54-3.72c-.24-.54-.66-.48-.96.06-2.1 4.14-5.4 8.22-7.86 8.34-2.04.12-1.98-2.46-.48-5.82 1.44-3.18 4.44-7.68 5.76-10.38 1.44-3 .96-5.58.06-6.66q-.63-.8-1.44.36c-.66.96-1.38 2.22-2.16 3.66zm-5.22 9.3c-3.06 5.28-6.18 9.12-8.64 9.06-2.34-.06-1.56-5.34 1.62-10.5 3.3-5.34 7.68-9.24 9.6-9.06 1.74.18 1.2 3.9-2.58 10.5zm28.92 1.14c3.3-7.32 3.06-14.4-2.04-14.4a8.46 8.46 0 0 0-5.16 2.52c1.86-3.3 4.44-7.44 5.34-9.12 2.46-4.5 2.46-7.2 1.56-8.88-.48-.84-.96-.84-1.5-.06-4.14 5.76-15.9 27.96-17.52 32.94-1.2 3.66-.6 5.4.3 6.6.36.48.72.42.96-.18l1.74-3.96a6.36 6.36 0 0 0 6.3 4.26c3.48 0 7.2-3.42 10.02-9.72zm-2.94-11.94c1.38.12 2.1 3.78-1.32 10.56-3.48 6.96-6.24 8.76-8.34 8.28-1.62-.36-2.4-2.28-2.52-4.02 2.22-4.62 5.1-9.6 7.8-12.42 1.8-1.86 3.12-2.52 4.38-2.4zm52.74 15.6c.684-1.113.88-2.458.54-3.72-.3-.54-.78-.48-1.08.06-2.28 4.2-5.4 8.16-7.86 8.28-2.16.12-2.4-2.34-.84-5.82 1.38-3.12 4.32-7.5 5.64-10.2 1.44-3 .96-5.58.06-6.66-.48-.54-.96-.42-1.5.36-1.86 2.58-3.6 6.72-7.32 12.78-3.18 5.22-6.54 9.3-8.88 9.12-1.32-.12-1.5-2.22-.3-5.16 1.308-3.048 2.874-5.978 4.68-8.76 2.16-3.54 2.46-6.06 1.14-8.04a.85.85 0 0 0-1.5.06c-.72 1.02-1.68 2.34-2.28 3.3-2.04 3.3-5.34 6.12-8.76 6.18a10.1 10.1 0 0 0 .12-1.2c.3-4.44-1.38-4.8-2.82-6.6-1.26-1.62-2.28-2.16-4.08-2.04-3.6.24-7.32 3.6-9.6 7.74-2.64 4.8-3.54 9.96-.9 13.5 1.652 2.5 4.775 3.582 7.62 2.64 4.26-1.44 7.92-7.38 9.3-12.42 1.864.125 3.728-.247 5.4-1.08a30.35 30.35 0 0 0-2.28 5.16c-1.32 3.96-1.2 8.34 3.06 8.7 3.42.3 6.48-2.88 8.58-5.64-.48 3.48 1.02 5.88 4.92 5.88 3.54 0 7.2-3 8.94-6.42zm-31.62-13.68a11.49 11.49 0 0 1-.42 4.26 4.66 4.66 0 0 1-1.38-4.08c.18-1.68 1.56-2.1 1.8-.18zm-.84 6c-.565 1.675-1.268 3.3-2.1 4.86-3 5.46-6.72 7.62-8.28 6.24s-.72-6.84 1.8-11.34a21.84 21.84 0 0 1 4.68-5.7c0 2.46 1.86 4.8 3.9 5.94zm38.46-10.26c-2.58 4.74-5.1 9.78-6.36 12.78-2.88 6.9.3 11.34 4.26 11.46 4.8.18 8.76-5.1 9.54-6.84a5.02 5.02 0 0 0 .6-3.42c-.24-.84-.9-.72-1.26 0-2.22 4.5-5.64 8.76-8.34 8.64-2.52-.12-3.18-3.84-1.2-8.22 2.28-5.04 5.7-10.86 8.04-14.88a17.9 17.9 0 0 1 4.68-.24c.9 0 1.14-.42.72-1.14-.77-1.3-2.232-1.997-3.72-1.8 1.44-3.12 1.44-5.1.78-6.78-.3-.72-.9-.78-1.44 0a77.1 77.1 0 0 0-4.56 7.44 34.2 34.2 0 0 1-4.98.24c-.9-.06-1.26.36-.66 1.2a4.95 4.95 0 0 0 3.9 1.56z" fill="#806342"/><path d="M24.623 58.078h60" fill="none" stroke="#806342" stroke-linecap="round"/></svg>