<svg xmlns="http://www.w3.org/2000/svg" width="128" height="59" viewBox="0 0 127.038 58.631"><path d="M20 39.39c2.28-1.38 4.5-4.26 6.3-8.22 2.22-4.92 3.54-10.26.66-13.32-2.58-2.7-6.12-1.02-8.76 1.26a6.42 6.42 0 0 0-.36-2.7c-.3-.72-.84-.84-1.44-.06C12.62 21.39 2.54 40.41.74 46.23-.4 49.89-.1 51.57.8 52.83c.36.54.78.42 1.02-.12 2.88-6.66 5.94-12.78 8.76-17.94.154 1.548.88 2.982 2.04 4.02 2.1 1.92 4.62 2.46 8.46 2.22a12.73 12.73 0 0 0 10.68-6.42 5.98 5.98 0 0 0 .78-3.96c-.12-.6-.78-.84-1.14 0-1.92 4.08-5.52 8.4-11.4 8.76zm-6.06-10.62c.72-1.26 1.38-2.34 2.04-3.42 2.82-4.62 6.54-7.62 7.98-6.9 1.5.72.84 5.7-1.5 10.5-2.82 5.76-6.72 10.14-8.64 8.58-1.68-1.38-1.38-4.98.12-8.76zm41.1 5.4c.9-1.8.9-3.06.6-3.72-.094-.224-.32-.365-.56-.35s-.45.178-.52.41c-1.86 3.84-5.16 8.16-7.62 8.28-2.22.12-2.52-2.7-1.02-6.18 1.38-3.12 4.26-7.5 5.58-10.14 1.56-3.06-.3-6.06-2.34-6.3-1.62-.18-4.74 1.8-7.2 4.2l7.2-11.28c2.28-3.78 2.46-6.78 1.68-8.52-.3-.72-.9-.78-1.44-.06-4.86 6.06-17.34 27.18-19.44 33.18-1.26 3.6-.72 5.28.24 6.36.36.42.78.3 1.02-.24a78.6 78.6 0 0 1 5.82-11.4c3.48-5.7 10.02-9.78 10.86-9.3.96.54-4.26 6.78-6.24 12.6-1.8 5.22-.54 8.88 4.5 8.88 3.54 0 7.2-3 8.88-6.42zm19.2-7.44c.24-.3.24-.6-.18-.6-.48 0-.84.12-1.2.12.06-.48.06-.9.12-1.38.36-4.32-1.44-4.74-2.82-6.6a4.09 4.09 0 0 0-4.08-2.04c-3.6.24-7.26 3.72-9.54 7.8-2.7 4.8-3.6 10.02-.96 13.5 2.4 3.12 5.4 3.36 7.56 2.64 4.44-1.5 8.22-7.56 9.48-12.66.62-.045 1.2-.324 1.62-.78zm-5.16-1.62c-1.093-1.13-1.583-2.71-1.32-4.26.3-1.74 1.5-2.1 1.8-.18.132 1.497-.03 3.006-.48 4.44zm-.42 1.62a31.66 31.66 0 0 1-2.1 4.8c-2.94 5.52-6.6 7.62-8.28 6.24-1.56-1.32-.66-6.84 1.86-11.4 1.2-2.135 2.763-4.044 4.62-5.64a7.46 7.46 0 0 0 2.76 5.28c.342.295.726.538 1.14.72zm12.48-10.44c-2.58 4.74-5.1 9.78-6.36 12.78-2.88 6.9.3 11.34 4.26 11.46 4.8.18 8.76-5.1 9.54-6.84a5.02 5.02 0 0 0 .6-3.42c-.24-.84-.9-.72-1.26 0-2.22 4.5-5.64 8.76-8.34 8.64-2.52-.12-3.18-3.84-1.2-8.22 2.28-5.04 5.7-10.86 8.04-14.88a17.9 17.9 0 0 1 4.68-.24c.9 0 1.14-.42.72-1.14-.77-1.3-2.232-1.997-3.72-1.8 1.44-3.12 1.44-5.1.78-6.78-.3-.72-.9-.78-1.44 0a77.1 77.1 0 0 0-4.56 7.44 34.2 34.2 0 0 1-4.98.24c-.9-.06-1.26.36-.66 1.2a4.95 4.95 0 0 0 3.9 1.56zM107 26.73c.24-.3.24-.6-.18-.6-.48 0-.84.12-1.2.12.06-.48.06-.9.12-1.38.36-4.32-1.44-4.74-2.82-6.6a4.09 4.09 0 0 0-4.08-2.04c-3.6.24-7.26 3.72-9.54 7.8-2.7 4.8-3.6 10.02-.96 13.5 2.4 3.12 5.4 3.36 7.56 2.64 4.44-1.5 8.22-7.56 9.48-12.66.62-.045 1.2-.324 1.62-.78zm-5.16-1.62c-1.093-1.13-1.583-2.71-1.32-4.26.3-1.74 1.5-2.1 1.8-.18a11.49 11.49 0 0 1-.48 4.44zm-.42 1.62a31.66 31.66 0 0 1-2.1 4.8c-2.94 5.52-6.6 7.62-8.28 6.24-1.56-1.32-.66-6.84 1.86-11.4 1.2-2.135 2.763-4.044 4.62-5.64a7.46 7.46 0 0 0 2.76 5.28c.342.295.726.538 1.14.72zm7.32 3.06c-.06-.48-.06-.96-.12-1.44-.06-.96-.54-1.2-1.26-.6-2.04 1.68-2.22 5.64-.78 8.34 2.04 3.72 5.4 4.62 8.88 4.5a12.64 12.64 0 0 0 10.62-6.6c1.02-1.86 1.08-3.42.84-3.96-.24-.48-.84-.66-1.14 0-1.5 3.24-4.02 6.84-8.04 8.34 2.16-1.44 2.58-3.96 2.7-6.3.18-4.14-.96-8.82-.54-14.34.24-.42.42-.78.66-1.14.78-1.38 1.08-2.04.48-2.64-.54-.54-1.92-.3-3.24.9-1.32 1.18-2.1 2.85-2.16 4.62a118.87 118.87 0 0 1-6.9 10.32zm6.78-6.48c.24 4.8 1.14 14.22-1.62 15.06-1.98.6-3.72-1.86-4.62-5.34a105.41 105.41 0 0 0 6.24-9.72z" fill="#806342"/><path d="M33.49 58.13h60" fill="none" stroke="#806342" stroke-linecap="round"/></svg>