<svg xmlns="http://www.w3.org/2000/svg" width="120" height="45" viewBox="0 0 119.38 44.953"><path d="M19.423 6.453c.12-2.34-1.08-4.32-3.66-4.32-3 0-7.74 2.7-12.6 9.78-4.98 7.26-3.84 14.88 1.74 14.88 2.88 0 5.58-2.22 7.5-4.68 0 2.82 1.68 4.74 4.92 4.92 3.3.18 7.08-3.12 8.64-6.42a5.39 5.39 0 0 0 .54-3.72c-.24-.54-.66-.48-.96.06-2.1 4.14-5.4 8.22-7.86 8.34-2.04.12-1.98-2.46-.48-5.82 1.44-3.18 4.44-7.68 5.76-10.38 1.44-3 .96-5.58.06-6.66q-.63-.8-1.44.36c-.66.96-1.38 2.22-2.16 3.66zm-5.22 9.3c-3.06 5.28-6.18 9.12-8.64 9.06-2.34-.06-1.56-5.34 1.62-10.5 3.3-5.34 7.68-9.24 9.6-9.06 1.74.18 1.2 3.9-2.58 10.5zm25.02-12.96c-3-1.8-9.06 1.44-12.9 9-3.9 7.74-1.32 15.18 6.3 15.06 4.67-.253 8.953-2.672 11.58-6.54a5.44 5.44 0 0 0 1.08-3.6c-.24-.6-.78-.54-1.08-.06-2.46 3.78-6.78 8.58-11.82 8.52-3.54-.06-4.8-5.04-1.5-11.82 2.7-5.46 7.2-9.3 8.22-8.46.84.66-.96 3.24-1.62 5.4-.84 2.7 0 4.5 1.44 5.22.78.42 1.02.24 1.26-.48 1.2-3.24 3.6-6.42 2.34-8.94a7.93 7.93 0 0 0-3.3-3.3zm18.66 0c-3-1.8-9.06 1.44-12.9 9-3.9 7.74-1.32 15.18 6.3 15.06 4.67-.253 8.953-2.672 11.58-6.54a5.44 5.44 0 0 0 1.08-3.6c-.24-.6-.78-.54-1.08-.06-2.46 3.78-6.78 8.58-11.82 8.52-3.54-.06-4.8-5.04-1.5-11.82 2.7-5.46 7.2-9.3 8.22-8.46.84.66-.96 3.24-1.62 5.4-.84 2.7 0 4.5 1.44 5.22.78.42 1.02.24 1.26-.48 1.2-3.24 3.6-6.42 2.34-8.94a7.93 7.93 0 0 0-3.3-3.3zm9.36 12.9c4.2 3.42 8.22 1.86 11.16-1.74 2.52-3.06 3-6.72 1.92-8.16-.944-1.28-2.15-2.344-3.54-3.12-3-1.74-9.12 1.38-13.02 9.12s-1.26 15.24 6.36 15.12a15.2 15.2 0 0 0 11.76-6.48 4.87 4.87 0 0 0 1.02-3.72c-.24-.54-.72-.54-1.02-.06-2.58 3.96-6.96 8.76-11.94 8.52-3.18-.18-4.62-3.96-2.7-9.48zm.54-1.32c.12-.3.3-.66.48-1.02 2.82-5.7 7.8-9.3 9.06-8.28.84.66-.48 3.78-2.4 6.3-1.74 2.28-4.2 4.86-7.14 3zm15.18 1.74c-.06-.48-.06-.96-.12-1.44-.06-.96-.54-1.2-1.26-.6-2.04 1.68-2.22 5.64-.78 8.34 2.04 3.72 5.4 4.62 8.88 4.5a12.64 12.64 0 0 0 10.62-6.6c1.02-1.86 1.08-3.42.84-3.96-.24-.48-.84-.66-1.14 0-1.5 3.24-4.02 6.84-8.04 8.34 2.16-1.44 2.58-3.96 2.7-6.3.18-4.14-.96-8.82-.54-14.34.24-.42.42-.78.66-1.14.78-1.38 1.08-2.04.48-2.64-.54-.54-1.92-.3-3.24.9-1.32 1.18-2.1 2.85-2.16 4.62a118.87 118.87 0 0 1-6.9 10.32zm6.78-6.48c.24 4.8 1.14 14.22-1.62 15.06-1.98.6-3.72-1.86-4.62-5.34a105.41 105.41 0 0 0 6.24-9.72zm11.34 6.48c-.06-.48-.06-.96-.12-1.44-.06-.96-.54-1.2-1.26-.6-2.04 1.68-2.22 5.64-.78 8.34 2.04 3.72 5.4 4.62 8.88 4.5a12.64 12.64 0 0 0 10.62-6.6c1.02-1.86 1.08-3.42.84-3.96-.24-.48-.84-.66-1.14 0-1.5 3.24-4.02 6.84-8.04 8.34 2.16-1.44 2.58-3.96 2.7-6.3.18-4.14-.96-8.82-.54-14.34.24-.42.42-.78.66-1.14.78-1.38 1.08-2.04.48-2.64-.54-.54-1.92-.3-3.24.9-1.32 1.18-2.1 2.85-2.16 4.62a118.87 118.87 0 0 1-6.9 10.32zm6.78-6.48c.24 4.8 1.14 14.22-1.62 15.06-1.98.6-3.72-1.86-4.62-5.34a105.41 105.41 0 0 0 6.24-9.72z" fill="#806342"/><path d="M25.923 44.453h60" fill="none" stroke="#806342" stroke-linecap="round"/></svg>