<svg xmlns="http://www.w3.org/2000/svg" width="252" height="36" viewBox="0 0 251.53 35.412"><defs><clipPath id="A"><path fill="none" d="M0 0h251.53v35.412H0z"/></clipPath></defs><g clip-path="url(#A)" fill="#032559"><path d="M91.798 4.668l2.187-.135h4.1c-.062 2.124-.444 4.227-1.134 6.237a26.41 26.41 0 0 1-4.914 9.153 19.55 19.55 0 0 1-5.689 4.877l.216.378a18.72 18.72 0 0 0 7.992-5.859 21 21 0 0 0 4.617-9.018c.585 3.194 1.816 6.236 3.618 8.937a17.03 17.03 0 0 0 6.156 5.724c.4-1.323.837-1.674 2.268-1.97l.027-.3a14.85 14.85 0 0 1-4.86-2.457 20.17 20.17 0 0 1-5.86-7.722 19.45 19.45 0 0 1-1.54-7.263c1.647-.73 1.782-.783 1.782-1 0-.054-.08-.162-.3-.35l-1.59-1.37-1.053 1.378h-3.722a12.79 12.79 0 0 1-2.457-.27zm39.478 12.15a13.15 13.15 0 0 1-2.592 4.1c-1.762 2.046-3.9 3.726-6.318 4.945l.27.378a26.88 26.88 0 0 0 2.7-1.27 21.13 21.13 0 0 0 4.779-3.537c1.3-1.335 2.316-2.9 3.024-4.617h1.4a26.09 26.09 0 0 1-1.076 6.453c-.243.54-.486.675-1.215.675-.7 0-1.836-.08-3.483-.243l-.027.46c2.673.378 2.97.567 3.213 1.944a3.89 3.89 0 0 0 2.97-1.593 27.11 27.11 0 0 0 1.43-7.155c.62-.27.864-.46.864-.675 0-.08-.054-.2-.216-.3a13.27 13.27 0 0 0-1.566-1.183 8.71 8.71 0 0 0-1 1h-9.236a25.2 25.2 0 0 0 1.785-2.46h10.88q.324 0 .324-.162c0-.08-.054-.162-.162-.27a27.07 27.07 0 0 0-2.214-1.808l-1.566 1.62h-11.6a9.37 9.37 0 0 1-2.43-.243l.192 1.023c.74-.134 1.5-.188 2.24-.162h2.3c-.6 1.12-1.328 2.157-2.195 3.08-1.308 1.53-2.86 2.834-4.6 3.86l.216.4a22.7 22.7 0 0 0 6.264-4.261h2.322c-.6 1.133-1.335 2.178-2.214 3.105a18.67 18.67 0 0 1-5.724 3.942l.216.4a18.38 18.38 0 0 0 6.7-3.834c1.144-1.06 2.133-2.277 2.94-3.613zm-12.933-7.3V3.48c.837-.216 1.08-.35 1.08-.567 0-.27-.324-.35-2.943-.675l.108 2.5v4.78h-1.566a6.7 6.7 0 0 1-1.917-.216l.2.972a8.35 8.35 0 0 1 1.728-.135h1.566v7.48a32.65 32.65 0 0 1-3.3 1.053l1.053 2.62c.08.2.2.27.3.27.27 0 .35-.324.4-1.323l3.43-2.133c.73-.432 1.593-1.026 3.132-2.133l-.2-.38-3.078 1.377v-6.83h4.293c.2 0 .3-.08.3-.162s-.054-.135-.162-.27a27.72 27.72 0 0 0-1.89-1.7l-1.3 1.512zm7.128 1.215h6.885v.675c0 .216.108.3.35.3.38-.01.76-.055 1.134-.135.216-.08.27-.162.27-.4l-.054-5.427V4.163c.783-.4.864-.486.864-.648 0-.108-.08-.216-.27-.378l-1.54-1.134-1.05 1.097h-6.3c-.662-.433-1.347-.83-2.052-1.188l.08 5.832-.08 3.78c0 .27.108.35.486.35.972 0 1.27-.108 1.27-.486zm6.885-4.243h-6.885V3.72h6.885zm0 .62v3h-6.885v-3zm14.607 4.428h4.535c.216 0 .35-.08.35-.2-.02-.085-.067-.16-.135-.216a15.43 15.43 0 0 0-1.944-1.809c-.45.496-.856 1.03-1.215 1.593h-1.62V2.72c.837-.2 1.134-.35 1.134-.594 0-.3-.378-.378-3.024-.648a28.9 28.9 0 0 1 .243 3.564v5.886h-3.482c-.443-.02-.88-.102-1.3-.243l.108 1.026a6.57 6.57 0 0 1 1.188-.162h2.866a25.02 25.02 0 0 1-1.377 4.081 36.67 36.67 0 0 1-3.267 6.507l.27.162a17.34 17.34 0 0 0 2.457-3.24c1.086-1.724 2-3.55 2.727-5.454l-.2 5.05-.162 7.1c.027.35.2.46.567.46.355-.01.707-.055 1.053-.135.216-.054.3-.108.35-.324l-.135-11.934a9.02 9.02 0 0 1 2.565 3.48c.162.35.324.513.513.513.324 0 .648-.756.648-1.566 0-.46-.027-.648-.2-.837a3.98 3.98 0 0 0-1.242-1.022 22.92 22.92 0 0 0-2.3-1.134zm14.283 5.4l-.054-8.8.027-5.292c.9-.27 1.16-.405 1.16-.648 0-.3-.7-.46-3.16-.73.162 1.485.216 4.536.216 10.125v5.7l-7.7 1.512a9.63 9.63 0 0 1-1.27.108h-.243l.35.945a6.9 6.9 0 0 1 1.323-.432l7.533-1.43-.027 7.75c0 .27.135.378.46.378a4.36 4.36 0 0 0 1.35-.189.42.42 0 0 0 .162-.324l-.027-1.917-.08-3.456-.027-2.592 4.357-.838c.162-.027.3-.162.3-.27s-.135-.27-.4-.46a26.98 26.98 0 0 0-2.349-1.35l-1.188 2.08zm-20.3-13.122c.525 1.272.923 2.592 1.188 3.942a11.73 11.73 0 0 1 .243 1.43c.08.3.162.378.35.378.486 0 1.026-.9 1.026-1.674-.075-.612-.317-1.2-.7-1.674-.52-.907-1.146-1.75-1.863-2.5zm7.047 5.86a11.17 11.17 0 0 0 1.593-2.214c.864-1.458.972-1.674 1.43-2.592.648-.054.9-.162.9-.35 0-.243-.46-.432-2.484-1-.096.814-.268 1.618-.513 2.4a24.9 24.9 0 0 1-1.188 3.645zm4.995-5.2a14.52 14.52 0 0 1 3 3.78c.46.9.54 1 .783 1 .432 0 .675-.54.675-1.43a1.87 1.87 0 0 0-.948-1.914 21.91 21.91 0 0 0-3.321-1.728zm-.868 6.725a15.42 15.42 0 0 1 3.267 3.645c.378.62.567.8.837.8.35 0 .648-.7.648-1.512a1.28 1.28 0 0 0-.432-1.188 14.09 14.09 0 0 0-4.158-1.97zm-77.6 24.22L64.25 4.156 60.998 8l12.787 27.157zm102.468 0l10.28-31.256 3.25 3.85-12.787 27.157z"/></g></svg>