<svg xmlns="http://www.w3.org/2000/svg" width="252" height="36" viewBox="0 0 251.53 35.412"><defs><clipPath id="A"><path fill="none" d="M0 0h251.53v35.412H0z"/></clipPath></defs><g clip-path="url(#A)" fill="#032559"><path d="M89.264 6.53l.62-.567 2.9-2.754c.9-.08 1.215-.2 1.215-.432s-.4-.405-2.835-1.27c-.745 1.748-1.64 3.428-2.673 5.022H76.088V5.154L75.7 5.1c-.3 1.9-.783 2.835-1.755 3.483-.756.513-.783.54-.783.918 0 .783.486 1.782.9 1.782.594 0 1.27-.783 1.593-1.863.23-.735.356-1.498.378-2.268H94.26a21.19 21.19 0 0 1-1.053 3.132l.324.162a24.08 24.08 0 0 0 2.511-2.538l.9-.2a2.26 2.26 0 0 0 .756-.243.24.24 0 0 0 .135-.216c0-.162-.135-.324-.432-.54L95.204 5.1l-1.377 1.43zm.594 8.586v.675c.054.243.162.324.513.324 1 0 1.3-.108 1.377-.513l-.08-3.186v-1.35c.675-.378.9-.567.9-.8 0-.108-.108-.243-.378-.46l-1.485-1.08-1.107 1.188h-9.4l-2.4-1.188c.15 1.1.214 2.193.2 3.294l-.135 3.726c.027.3.162.4.54.4.372.001.742-.036 1.107-.108.2-.054.243-.162.3-.405v-.513h3.645a17.7 17.7 0 0 1-.783 3.267H78.09a15.4 15.4 0 0 0-2.214-1.107 36.67 36.67 0 0 1 .135 3.7l-.162 4.887c0 .27.2.378.567.378h.27c.73-.027 1-.135 1.107-.46v-1.2H91.86V25.9c0 .27.135.378.432.378.437-.015.872-.07 1.3-.162a.38.38 0 0 0 .27-.378l-.08-5.022V19.6c.62-.324.9-.567.9-.8 0-.108-.08-.216-.324-.405l-1.62-1.188-1.053 1.188h-8.4c.87-1.024 1.656-2.116 2.35-3.267zm-10.07-4.6h10.07V14.5h-10.07zm-2 8.478h14.067v4.94H77.8zM77.004 1.94a9.91 9.91 0 0 1 2.241 3.294c.378.9.432.972.7.972a.74.74 0 0 0 .513-.324 2.9 2.9 0 0 0 .459-1.269c0-.73-1.188-1.7-3.672-2.97zm5.643-.324c.85 1.063 1.498 2.27 1.917 3.564.243.756.35.9.567.9.513 0 1.134-.945 1.134-1.728 0-.486-.324-.918-1.188-1.566a15.89 15.89 0 0 0-2.187-1.431zm29.808 9.747h10.26c.216 0 .3-.054.3-.135-.003-.07-.032-.138-.08-.2l-2.322-1.782-1.512 1.485h-4.617a21.97 21.97 0 0 0 1.755-1.431l.756-.62c.216.027.567.027.594.027.378 0 .594-.08.594-.27 0-.108-.135-.243-.378-.378l-2.08-1.188h8.56c.2 0 .27-.027.27-.135 0-.054-.027-.108-.135-.216L122 4.56l-1.512 1.7h-3.43l3.132-2.97c.945-.027 1.16-.108 1.16-.324 0-.108-.054-.162-.243-.27-.486-.27-1.566-.73-2.376-1.053-.324 1.134-.648 1.728-2.4 4.617h-1.566V2.534c.9-.27 1.053-.35 1.053-.567 0-.135-.08-.216-.27-.27A11.13 11.13 0 0 0 113 1.373l.054 2.4v2.484h-2.727v-3.78c.8-.243 1.026-.35 1.026-.567 0-.3-.432-.378-2.78-.567l.08 2.43v2.484h-5.778a10.46 10.46 0 0 1-2.862-.35l.2 1.107a17.3 17.3 0 0 1 2.673-.135h4.1l-.243.324a9.93 9.93 0 0 1 1.54 2.898 2.46 2.46 0 0 0 .3.648h-4.212a10.35 10.35 0 0 1-2.7-.3l.2 1.053a20.65 20.65 0 0 1 2.511-.135h6.372v2.484H105.9a12.93 12.93 0 0 1-2.808-.3l.162 1.08a23.4 23.4 0 0 1 2.646-.16h4.833v2.457h-7.48a12.51 12.51 0 0 1-2.97-.27l.162 1.107a18.52 18.52 0 0 1 2.808-.216h5.886a16.4 16.4 0 0 1-3.026 2.943 27.87 27.87 0 0 1-6.7 3.915l.2.432a25.84 25.84 0 0 0 5.647-2.349c2.02-1.175 3.866-2.63 5.48-4.32v2.24l-.135 5.238v.053c0 .243.054.324.324.324 1.35 0 1.54-.054 1.566-.46l-.027-5.05v-2.672a21.97 21.97 0 0 0 4 3.834c1.826 1.3 3.836 2.318 5.963 3.022.648-1.16.918-1.4 1.863-1.672v-.405c-.964-.085-1.92-.24-2.862-.46a21.26 21.26 0 0 1-5.4-2.133 15.88 15.88 0 0 1-3.159-2.484h10.584c.2 0 .3-.054.3-.162a.83.83 0 0 0-.108-.243l-2.322-1.863-1.593 1.647h-7.263V14.47h8.3c.2 0 .27-.054.27-.135 0-.054-.027-.108-.108-.2l-2.133-1.782-1.377 1.485h-4.94zm3.132-4.482a12.95 12.95 0 0 1-1.809 3.861h-4.563c.365-.26.6-.662.648-1.107 0-.62-.54-1.16-2.78-2.754zM103.06 1.914c.856.916 1.54 1.976 2.025 3.132.27.648.4.837.648.837.378 0 .9-.864.9-1.512 0-.837-.972-1.62-3.32-2.7zm44.172 9.1h4.023c.162 0 .3-.08.3-.2 0-.054-.054-.108-.162-.216l-2.376-1.97-1.43 1.755h-4.43v-4.32h6.67c.162 0 .324-.08.324-.2 0-.054-.054-.135-.2-.243l-2.16-2-1.458 1.8h-3.186V2.615c.9-.216 1.188-.378 1.188-.594 0-.27-.513-.378-3.105-.648l.135 2.08v2h-3.348a8.52 8.52 0 0 1-2.241-.243L136 6.3a6.46 6.46 0 0 1 2.025-.216h3.348v4.32h-3.5a11.08 11.08 0 0 1-2.7-.189l.2 1.026c.82-.197 1.668-.27 2.5-.216h7.614v3.645h-7.128a11.07 11.07 0 0 1-2.862-.27l.243 1.107a8.95 8.95 0 0 1 2.567-.217h7.18v7.9c0 .324-.08.405-.378.405l-4.347-.216v.4c1.863.243 2.4.378 2.835.675.46.32.74.84.756 1.4 1.62-.315 2.214-.554 2.592-1.044.27-.35.3-.567.35-1.8l-.054-3.5v-4.22h3.942c.162 0 .324-.08.324-.2 0-.08-.054-.162-.2-.27l-1.97-1.863-1.458 1.7h-.648zm-17.845 8.774h3.645V21.3c.027.243.135.324.35.324.4-.01.78-.054 1.16-.135.135-.054.2-.135.216-.324l-.054-10.827V5.18c.62-.3.945-.54.945-.73 0-.108-.108-.216-.324-.378l-1.43-1.188-1.026 1.188h-3.37a17.08 17.08 0 0 0-1.917-1.3l.135 6.966-.108 12.555c.027.243.135.35.378.35h.08c.08 0 .216-.027.432-.027.73-.027.864-.108.9-.432zm3.645-8.45h-3.645V4.7h3.645zm0 .62v7.2h-3.645v-7.2zm4.455 4.7a13.9 13.9 0 0 1 3.159 4.266c.243.486.4.675.62.675.378 0 .8-.918.8-1.782 0-.54-.35-1.026-1.134-1.593a14.6 14.6 0 0 0-3.213-1.809zm24.948-6.7v.8c.08.216.135.27.324.3.453.014.905-.022 1.35-.108.108-.054.135-.135.162-.35l-.08-3.942V3.724c.567-.324.783-.513.783-.675 0-.08-.054-.2-.243-.35l-1.43-1.215-1.08 1.215h-5.535l-1.917-1.215c.08 1.54.108 3.942.108 10.962l-.108 13.365c.027.216.108.27.35.27a7.24 7.24 0 0 0 1.3-.108c.2-.08.243-.135.27-.324V9.96zm0-.62h-5.75V6.583h5.75zm0-3.375h-5.75V3.316h5.75zm12.906 4v13.525c0 .3-.08.378-.486.378-1.674-.027-2.214-.054-4.4-.2v.405c.08 0 .594.108 1.54.27.497.05.982.186 1.43.405a2.15 2.15 0 0 1 .944 1.244c2.35-.513 2.835-.864 2.916-2.106l-.027-7.047V3.858c.756-.54.837-.594.837-.783 0-.108-.08-.2-.3-.378l-1.62-1.215-1.107 1.215h-5.64c-.8-.54-1.08-.7-1.944-1.188.08 1.053.08 1.27.08 5.157 0 1.512-.027 2.35-.08 4.05 0 .3.08.35.756.35.73 0 .945-.08 1-.4v-.7zm0-.62h-6.1V6.587h6.1zm0-3.375h-6.1V3.32h6.1zM162.434 21.65h6.8v.95c.027.2.135.243.378.243a5.6 5.6 0 0 0 1.161-.108c.2-.08.216-.135.243-.378v-.027l-.08-4.968v-2.97c.783-.4.9-.486.9-.648 0-.108-.054-.2-.3-.378-.567-.513-.756-.675-1.323-1.134-.486.46-.648.594-1.16 1.053h-6.3c-.864-.513-1.134-.675-2.025-1.16.054 1.026.08 3.537.08 6.723l-.054 4.617c.027.2.108.27.35.27a6.2 6.2 0 0 0 1.107-.135c.2-.054.216-.108.243-.27zm6.8-4.725h-6.8V13.9h6.8zm0 .62v3.483h-6.8v-3.483zM60.53 35.412L50.25 4.156 46.998 8l12.787 27.157zm129.468 0l10.28-31.256 3.25 3.85-12.787 27.157z"/></g></svg>