<svg xmlns="http://www.w3.org/2000/svg" width="215" height="34" viewBox="0 0 214.529 33.876" fill="#032559"><path d="M30.225 7.564a4.49 4.49 0 0 0 4.023 2.21c.706-.004 1.4-.067 2.106-.2l-.135 3.888-.054 1.3a13.41 13.41 0 0 0-4.293 2.781 2.29 2.29 0 0 0-.8 1.512 1.3 1.3 0 0 0 .89 1.134 11.27 11.27 0 0 1 1.81 1.215c1.647 1.454 1.647 1.454 2.025 1.454a1.64 1.64 0 0 0 1.3-1c.254-.5.375-1.04.35-1.593l-.027-1.026-.027-3.672a17.45 17.45 0 0 1 7.314-1.943c2.592 0 4 1.134 4 3.213.08.947-.24 1.885-.88 2.587s-1.545 1.106-2.496 1.113a3.61 3.61 0 0 1-2.565-1.026c-.676-.68-1.225-1.476-1.62-2.35l-.4.135c.945 3.132 2.727 4.78 5.2 4.78a4.6 4.6 0 0 0 4.617-4.7c0-2.862-2.322-4.617-6.02-4.617a20 20 0 0 0-7.155 1.485l.108-3.537.08-1.35a18.77 18.77 0 0 0 3.942-1.323c.972-.46 1.215-.675 1.215-1.053a.69.69 0 0 0-.459-.594 3.29 3.29 0 0 0-1.026-.243 1.28 1.28 0 0 0-.648.27c-.856.73-1.86 1.264-2.943 1.566a10.25 10.25 0 0 1 .837-4.023c.3-.54.3-.54.3-.7-.04-.37-.263-.694-.594-.864a6.31 6.31 0 0 0-2.781-.675 1.52 1.52 0 0 0-1.161.378c1.863.324 2.187.9 2.187 3.726l-.027 2.484c-.884.22-1.8.338-2.7.35a4.51 4.51 0 0 1-3.223-1.378zm5.86 8.64l-.2 3.915c-.027.486-.162.675-.486.675-.577-.057-1.14-.203-1.674-.432-.73-.27-1.08-.567-1.08-.837q0-.446.8-1.3a11.31 11.31 0 0 1 2.619-2.025zm9.4-11.26a7.51 7.51 0 0 1 1.863.7 4.07 4.07 0 0 1 1.7 1.674 19.08 19.08 0 0 1-2.949 1.726l.162.27c1.08-.35 2.193-.595 3.32-.73a3.57 3.57 0 0 1 .567.054c.13.035.265.053.4.054a.74.74 0 0 0 .584-.206.75.75 0 0 0 .226-.577c-.168-1.07-.886-1.972-1.9-2.376a8.95 8.95 0 0 0-3.969-.972zm19.008 3.86V9.94c.027.216.08.27.3.27 1.08 0 1.377-.08 1.4-.405L66.165 4.8V2.326c.648-.27.837-.4.837-.594 0-.08-.08-.2-.27-.35L65.193.14l-1.026 1.188h-5.4L56.823.14c.054 1.377.054 3.807.054 10.962l-.054 13.365c.027.27.135.35.513.35a2.5 2.5 0 0 0 1.188-.216c.08-.054.108-.108.108-.3V8.8zm0-.62h-5.86v-3h5.86zm0-3.618h-5.86V1.944h5.86zm12.852 4.24V21.95c0 .35-.054.405-.405.405a54.49 54.49 0 0 1-4.86-.3v.435c2.457.46 2.78.54 3.24.783.513.27.675.567.783 1.377a7.9 7.9 0 0 0 2.457-.864 1.83 1.83 0 0 0 .7-1.674l-.027-3.105V2.484c.73-.46.864-.567.864-.756 0-.08-.08-.2-.27-.35L78.287.135c-.378.35-.783.756-1.215 1.188h-5.86L69.54.135c.027 1 .027 1.43.027 2.592l-.027 7.128c0 .243.108.3.4.3 1 0 1.242-.08 1.27-.378v-.972zm0-.62h-6.13v-3h6.13zm0-3.618h-6.13V1.944h6.13zm-12.83 14.576h6.7v1.32c0 .27.108.35.4.35a6.95 6.95 0 0 0 1.242-.135c.2-.054.243-.108.243-.27-.08-2.133-.08-2.133-.08-6.4.62-.324.837-.513.837-.7 0-.08-.08-.2-.27-.35a27.76 27.76 0 0 0-1.35-1.161L71.2 12.96h-6.426c-.864-.62-1.16-.783-2.106-1.377.08 1.134.08 1.377.08 3.888l-.08 5.616c.027.243.135.324.4.324a11.43 11.43 0 0 0 1.161-.108c.2-.054.243-.108.27-.324zm0-5.562h6.7v4.94h-6.7zm28.863-2.052l-.783 1.3-2.268 3.807c-.594 1-.594 1-.9 1.43a3.92 3.92 0 0 1-1.4-2.106 11.58 11.58 0 0 1-.62-3.915 21.12 21.12 0 0 1 .486-4.023 4.6 4.6 0 0 0 .081-.7 3.25 3.25 0 0 0-1.215-2.133 4.01 4.01 0 0 0-2.03-1.326h-.24c1.16 1.512 1.35 2.133 1.377 4.644a30.56 30.56 0 0 0 .189 4.752 12.38 12.38 0 0 0 1.836 5.4c.837 1.242 2.214 2.3 2.97 2.3a.64.64 0 0 0 .594-.675 2.31 2.31 0 0 0-.054-.432c-.098-.297-.153-.606-.162-.918 0-1.08.567-2.673 2.538-7.2zm6.02-4.374a7.46 7.46 0 0 1 3.348 3.537c.497 1.117.78 2.316.837 3.537 0 .513-.08.62-.62.8-.243.08-1.458.432-3.645 1.026l.08.405c.918-.054 1.43-.054 2.052-.054a3.6 3.6 0 0 1 2.025.324 1.3 1.3 0 0 0 .81.3c.8 0 1.35-.837 1.35-2.133 0-3.726-2.7-7.317-6.1-8.073zm10.288 6.237a27.2 27.2 0 0 0 6.4-4.374 31.88 31.88 0 0 0 6.1-7.317c1.246 2.475 2.877 4.737 4.833 6.7a19.76 19.76 0 0 0 5.94 4.4c.567-1.27 1-1.647 2.133-1.782l.054-.378a20.83 20.83 0 0 1-6.993-3.348c-2.24-1.546-4.134-3.54-5.562-5.86.73-.135 1.053-.3 1.053-.513 0-.243-.324-.35-1.8-.648-.3-.054-.756-.162-1.377-.27a8.8 8.8 0 0 1-.486 1.323 28.06 28.06 0 0 1-2.97 4.455 33.64 33.64 0 0 1-7.613 7.206zm6.56-2.835c.588-.106 1.184-.16 1.782-.162h9.207c.3 0 .35-.027.35-.135 0-.08-.08-.2-.216-.324-.972-.8-1.3-1.026-2.268-1.782-.62.7-.8.945-1.43 1.62h-5.643a12.06 12.06 0 0 1-2-.216zm-.2 11.934h11.42v1.273q0 .324.4.324c.464-.016.926-.08 1.377-.2.2-.054.243-.135.243-.35v-.112l-.1-8.127c.648-.216.9-.405.9-.567 0-.108-.054-.2-.27-.378-.73-.62-.972-.8-1.728-1.377a16.87 16.87 0 0 0-1.11 1.377H116.27a18.53 18.53 0 0 0-2.16-1.377c.054 1.026.084 2.025.084 4.158l-.08 6.642c0 .3.08.378.378.378a5.7 5.7 0 0 0 1.4-.162c.135-.054.162-.135.162-.378zm0-7.506h11.42v6.885h-11.42zm34.02 7.128a14.9 14.9 0 0 0 4.995-1.649c2.916-1.62 4.455-3.888 4.455-6.56 0-3.24-2.592-5.616-6.13-5.616a12.52 12.52 0 0 0-5.508 1.4c-.837.4-1.215.594-2.78 1.458.027-.4.027-.513.08-.9.246-.633.573-1.232.972-1.782.46-.513.46-.513.46-.7q0-.4-.972-1.215c.078-.768.26-1.522.54-2.24.324-.864.324-.864.324-1.08 0-.378-.324-.783-1-1.27a4.59 4.59 0 0 0-2.214-.945c-.145.006-.285.053-.405.135 1.4 1.026 1.593 1.4 1.593 3.1a42.01 42.01 0 0 1-.135 2.7 14.65 14.65 0 0 1-4.185 1.7c-.62 0-1.188-.432-1.647-1.3a1.56 1.56 0 0 0-.135.459c.08.55.314 1.064.675 1.485a2.03 2.03 0 0 0 1.43.918 2 2 0 0 0 1.107-.513 21.91 21.91 0 0 1 2.646-1.7c-.027.35-.054 1-.108 1.97-.675 1.107-3.213 4.7-4 5.7a14.74 14.74 0 0 1-1.16 1.323c-.405.432-.513.648-.513 1 0 .9.432 1.917.8 1.917.216 0 .4-.243.783-.972a4.9 4.9 0 0 1 .27-.54 16.6 16.6 0 0 1 2.052 2.079 3.87 3.87 0 0 1 .945 1.62 6.96 6.96 0 0 1 .27.756.66.66 0 0 0 .567.351c.313-.03.578-.24.675-.54a6.13 6.13 0 0 0 .54-2.511 6.86 6.86 0 0 0-.077-1.044c-.135-1.053-.27-4.023-.3-6.2 2.862-2.4 5.94-3.807 8.343-3.807 2.43 0 4.1 1.8 4.1 4.455 0 3.564-2.646 6.453-7.506 8.154zm-6.048-10.017l-.2 8.02a34.61 34.61 0 0 1-3.24-2.16c.243-.432.243-.432 1.566-2.646l1.863-3.213zm30 1.242c.46.432.486.432.837.73l1.3 1.134c.412.33.736.757.945 1.242.162.54.324.675.675.675.8 0 1.62-.864 2.025-2.187.397-1.834.657-3.695.776-5.567l3.43-.243c.324 0 1.944.054 2.24.08.197.02.396.03.594.027.335.035.635-.206.675-.54 0-.3-.162-.46-.756-.783a4.67 4.67 0 0 0-1.836-.675 2.34 2.34 0 0 0-.837.216 14.03 14.03 0 0 1-1.782.486l-1.593.3a21.96 21.96 0 0 1 .675-3.942c.243-.62.243-.62.243-.864 0-.486-.378-.9-1.08-1.242a6.77 6.77 0 0 0-2.646-.729c-.277-.025-.55.087-.73.3a3.34 3.34 0 0 1 1.377.7 2.38 2.38 0 0 1 .891 2.214c0 1.242-.054 2.862-.135 3.834a100.47 100.47 0 0 0-7.344 1.566 16.8 16.8 0 0 0 .162-1.755 7.98 7.98 0 0 1 .135-1.026 2.1 2.1 0 0 0 .135-.675 1.46 1.46 0 0 0-1-1.269 6.87 6.87 0 0 0-2.592-.756c-.256-.01-.506.077-.7.243 1.377.54 1.97 1.08 2.133 1.944a26.72 26.72 0 0 1 .27 3.672c-3.132.864-3.888 1.026-4.752 1.026a2.66 2.66 0 0 1-2.322-1.3 2.81 2.81 0 0 0-.054.405 3.71 3.71 0 0 0 2.753 2.785 1.35 1.35 0 0 0 .7-.243 20.1 20.1 0 0 1 3.672-1.485l.135 4.023c.162 2.187.46 3.4 1.053 4.212 1.2 1.675 2.864 2.215 6.86 2.215a20.61 20.61 0 0 0 4.779-.459c.297-.07.5-.343.486-.648 0-.54-1.08-1.377-1.782-1.377-.162 0-.2 0-.7.2a17.12 17.12 0 0 1-4.59.648c-1.9 0-2.916-.2-3.618-.7-1.026-.7-1.3-1.836-1.3-5.32 0-1.134.027-1.944.108-3.267a36.09 36.09 0 0 1 7.263-1.62c-.378 3.672-.756 5.454-1.215 5.454-.27 0-1.215-.486-3.753-1.917zM13.53 33.876L3.25 2.62-.002 6.464 12.785 33.62zm187.468 0l10.28-31.256 3.25 3.85-12.787 27.157z"/></svg>